QalamBadi-Curved.ufo
<glyph name="four" format="2">
  <advance width="1228"/>
  <unicode hex="0034"/>
  <outline>
    <contour>
      <point x="641.0" y="1148.0" type="curve" smooth="yes"/>
      <point x="157.0" y="425.0" type="line" smooth="yes"/>
      <point x="150.0" y="415.0"/>
      <point x="145.0" y="397.0"/>
      <point x="145.0" y="376.0" type="curve" smooth="yes"/>
      <point x="145.0" y="326.0"/>
      <point x="165.0" y="302.0"/>
      <point x="210.0" y="302.0" type="curve" smooth="yes"/>
      <point x="640.0" y="302.0" type="line" smooth="yes"/>
      <point x="665.44" y="302.0"/>
      <point x="688.0" y="279.44"/>
      <point x="688.0" y="254.0" type="curve" smooth="yes"/>
      <point x="688.0" y="55.0" type="line" smooth="yes"/>
      <point x="688.0" y="9.0"/>
      <point x="706.0" y="-10.0"/>
      <point x="762.0" y="-10.0" type="curve" smooth="yes"/>
      <point x="764.0" y="-10.0" type="line" smooth="yes"/>
      <point x="820.0" y="-10.0"/>
      <point x="838.0" y="9.0"/>
      <point x="838.0" y="55.0" type="curve" smooth="yes"/>
      <point x="838.0" y="254.0" type="line" smooth="yes"/>
      <point x="838.0" y="279.44"/>
      <point x="860.56" y="302.0"/>
      <point x="886.0" y="302.0" type="curve" smooth="yes"/>
      <point x="1000.0" y="302.0" type="line" smooth="yes"/>
      <point x="1045.0" y="302.0"/>
      <point x="1063.0" y="322.0"/>
      <point x="1063.0" y="374.0" type="curve" smooth="yes"/>
      <point x="1063.0" y="426.0"/>
      <point x="1045.0" y="446.0"/>
      <point x="1000.0" y="446.0" type="curve" smooth="yes"/>
      <point x="886.0" y="446.0" type="line" smooth="yes"/>
      <point x="860.56" y="446.0"/>
      <point x="838.0" y="468.56"/>
      <point x="838.0" y="494.0" type="curve" smooth="yes"/>
      <point x="838.0" y="1131.0" type="line" smooth="yes"/>
      <point x="838.0" y="1178.0"/>
      <point x="813.0" y="1209.0"/>
      <point x="751.0" y="1209.0" type="curve" smooth="yes"/>
      <point x="699.0" y="1209.0"/>
      <point x="668.0" y="1189.0"/>
    </contour>
    <contour>
      <point x="688.9109857941545" y="493.99513761017477" type="line" smooth="yes"/>
      <point x="688.5488884209088" y="468.55771467678215"/>
      <point x="665.667783203125" y="446.0"/>
      <point x="640.227783203125" y="446.0" type="curve" smooth="yes"/>
      <point x="390.0" y="446.0" type="line" smooth="yes"/>
      <point x="364.56" y="446.0"/>
      <point x="354.2729939299016" y="464.92953301052614"/>
      <point x="368.1127530423438" y="486.27560215005565" type="curve" smooth="yes"/>
      <point x="669.8872469576562" y="951.7243978499444" type="line" smooth="yes"/>
      <point x="683.7270060700985" y="973.0704669894739"/>
      <point x="695.6788947822162" y="969.4422853232179"/>
      <point x="695.3167974089705" y="944.0048623898252" type="curve" smooth="yes"/>
    </contour>
  </outline>
</glyph>
<glyph name="T" format="2">
  <advance width="1228"/>
  <unicode hex="0054"/>
  <outline>
    <contour>
      <point x="269.08561151079135" y="1187.0" type="line" smooth="yes"/>
      <point x="234.7744604316547" y="1187.0"/>
      <point x="221.05" y="1167.0"/>
      <point x="221.05" y="1115.0" type="curve" smooth="yes"/>
      <point x="221.05" y="1063.0"/>
      <point x="234.7744604316547" y="1043.0"/>
      <point x="269.08561151079135" y="1043.0" type="curve" smooth="yes"/>
      <point x="491.0" y="1043.0" type="line" smooth="yes"/>
      <point x="516.44" y="1043.0"/>
      <point x="539.0" y="1020.44"/>
      <point x="539.0" y="995.0" type="curve" smooth="yes"/>
      <point x="539.0" y="55.0" type="line" smooth="yes"/>
      <point x="539.0" y="9.0"/>
      <point x="557.0" y="-10.0"/>
      <point x="613.0" y="-10.0" type="curve" smooth="yes"/>
      <point x="615.0" y="-10.0" type="line" smooth="yes"/>
      <point x="671.0" y="-10.0"/>
      <point x="689.0" y="9.0"/>
      <point x="689.0" y="55.0" type="curve" smooth="yes"/>
      <point x="689.0" y="995.0" type="line" smooth="yes"/>
      <point x="689.0" y="1020.44"/>
      <point x="711.56" y="1043.0"/>
      <point x="737.0" y="1043.0" type="curve" smooth="yes"/>
      <point x="958.9143884892087" y="1043.0" type="line" smooth="yes"/>
      <point x="993.2255395683453" y="1043.0"/>
      <point x="1006.95" y="1063.0"/>
      <point x="1006.95" y="1115.0" type="curve" smooth="yes"/>
      <point x="1006.95" y="1167.0"/>
      <point x="993.2255395683453" y="1187.0"/>
      <point x="958.9143884892087" y="1187.0" type="curve" smooth="yes"/>
    </contour>
  </outline>
</glyph>
<glyph name="W" format="2">
  <advance width="1228"/>
  <unicode hex="0057"/>
  <outline>
    <contour>
      <point x="1003.0" y="1139.0" type="curve" smooth="yes"/>
      <point x="897.0534361091635" y="305.6167608229736" type="line" smooth="yes"/>
      <point x="893.8451149713069" y="280.3798775867976"/>
      <point x="883.4972661034913" y="279.27586858575177"/>
      <point x="875.036736390407" y="303.2678055015995" type="curve" smooth="yes"/>
      <point x="684.0" y="845.0" type="line" smooth="yes"/>
      <point x="675.0" y="871.0"/>
      <point x="654.0" y="885.0"/>
      <point x="610.0" y="885.0" type="curve" smooth="yes"/>
      <point x="566.0" y="885.0"/>
      <point x="545.0" y="871.0"/>
      <point x="536.0" y="845.0" type="curve" smooth="yes"/>
      <point x="344.963263609593" y="303.2678055015995" type="line" smooth="yes"/>
      <point x="336.50273389650874" y="279.27586858575177"/>
      <point x="326.1548850286932" y="280.3798775867976"/>
      <point x="322.9465638908365" y="305.6167608229736" type="curve" smooth="yes"/>
      <point x="217.0" y="1139.0" type="line" smooth="yes"/>
      <point x="211.0" y="1186.0"/>
      <point x="191.0" y="1202.0"/>
      <point x="135.0" y="1196.0" type="curve" smooth="yes"/>
      <point x="79.0" y="1189.0"/>
      <point x="61.0" y="1169.0"/>
      <point x="68.0" y="1122.0" type="curve" smooth="yes"/>
      <point x="217.0" y="43.0" type="line" smooth="yes"/>
      <point x="224.0" y="-6.0"/>
      <point x="252.0" y="-22.0"/>
      <point x="303.0" y="-22.0" type="curve" smooth="yes"/>
      <point x="354.0" y="-22.0"/>
      <point x="387.0" y="-2.0"/>
      <point x="403.0" y="43.0" type="curve" smooth="yes"/>
      <point x="594.0125150889146" y="583.7407431985697" type="line" smooth="yes"/>
      <point x="602.4858820917899" y="607.7281493033278"/>
      <point x="617.5141179082101" y="607.7281493033278"/>
      <point x="625.9874849110854" y="583.7407431985697" type="curve" smooth="yes"/>
      <point x="817.0" y="43.0" type="line" smooth="yes"/>
      <point x="833.0" y="-2.0"/>
      <point x="866.0" y="-22.0"/>
      <point x="917.0" y="-22.0" type="curve" smooth="yes"/>
      <point x="968.0" y="-22.0"/>
      <point x="996.0" y="-6.0"/>
      <point x="1003.0" y="43.0" type="curve" smooth="yes"/>
      <point x="1152.0" y="1122.0" type="line" smooth="yes"/>
      <point x="1159.0" y="1169.0"/>
      <point x="1141.0" y="1189.0"/>
      <point x="1085.0" y="1196.0" type="curve" smooth="yes"/>
      <point x="1029.0" y="1202.0"/>
      <point x="1009.0" y="1186.0"/>
    </contour>
  </outline>
</glyph>
<glyph name="f" format="2">
  <advance width="1228"/>
  <unicode hex="0066"/>
  <outline>
    <contour>
      <point x="576" y="1317"/>
      <point x="448" y="1186"/>
      <point x="448" y="967" type="curve" smooth="yes"/>
      <point x="448" y="55" type="line" smooth="yes"/>
      <point x="448" y="9"/>
      <point x="466" y="-10"/>
      <point x="522" y="-10" type="curve" smooth="yes"/>
      <point x="524" y="-10" type="line" smooth="yes"/>
      <point x="580" y="-10"/>
      <point x="598" y="9"/>
      <point x="598" y="55" type="curve" smooth="yes"/>
      <point x="598" y="954" type="line" smooth="yes"/>
      <point x="598" y="1091"/>
      <point x="625.5622255589227" y="1171"/>
      <point x="689.2716321787277" y="1171" type="curve" smooth="yes"/>
      <point x="724.9669734763489" y="1171"/>
      <point x="761.1141545372312" y="1152"/>
      <point x="796.3576560715915" y="1122" type="curve" smooth="yes"/>
      <point x="812.6238875489885" y="1108"/>
      <point x="824.8235611570362" y="1126"/>
      <point x="829.7937985529076" y="1173" type="curve" smooth="yes"/>
      <point x="834.7640359487789" y="1219"/>
      <point x="828.4382792631245" y="1250"/>
      <point x="809.4610092061613" y="1266" type="curve" smooth="yes"/>
      <point x="773.313828145279" y="1297"/>
      <point x="731.7445699252644" y="1317"/>
      <point x="689.2716321787277" y="1317" type="curve" smooth="yes"/>
    </contour>
    <contour>
      <point x="358.5357268743164" y="844" type="line" smooth="yes"/>
      <point x="338.20293752757016" y="844"/>
      <point x="330.06982178887165" y="824"/>
      <point x="330.06982178887165" y="772" type="curve" smooth="yes"/>
      <point x="330.06982178887165" y="720"/>
      <point x="338.20293752757016" y="700"/>
      <point x="358.5357268743164" y="700" type="curve" smooth="yes"/>
      <point x="754.3365580883158" y="700" type="line" smooth="yes"/>
      <point x="774.669347435062" y="700"/>
      <point x="782.8024631737605" y="720"/>
      <point x="782.8024631737605" y="772" type="curve" smooth="yes"/>
      <point x="782.8024631737605" y="824"/>
      <point x="774.669347435062" y="844"/>
      <point x="754.3365580883158" y="844" type="curve" smooth="yes"/>
    </contour>
  </outline>
</glyph>
<glyph name="r" format="2">
  <advance width="1228"/>
  <unicode hex="0072"/>
  <outline>
    <contour>
      <point x="447.0" y="634.0" type="curve"/>
      <point x="447.0" y="869.0" type="line" smooth="yes"/>
      <point x="447.0" y="915.0"/>
      <point x="431.0" y="934.0"/>
      <point x="378.0" y="934.0" type="curve" smooth="yes"/>
      <point x="376.0" y="934.0" type="line" smooth="yes"/>
      <point x="323.0" y="934.0"/>
      <point x="307.0" y="915.0"/>
      <point x="307.0" y="869.0" type="curve" smooth="yes"/>
      <point x="307.0" y="55.0" type="line" smooth="yes"/>
      <point x="307.0" y="9.0"/>
      <point x="325.0" y="-10.0"/>
      <point x="381.0" y="-10.0" type="curve" smooth="yes"/>
      <point x="383.0" y="-10.0" type="line" smooth="yes"/>
      <point x="439.0" y="-10.0"/>
      <point x="457.0" y="9.0"/>
      <point x="457.0" y="55.0" type="curve" smooth="yes"/>
      <point x="457.0" y="270.0" type="line" smooth="yes"/>
      <point x="457.0" y="554.0"/>
      <point x="561.9115759951509" y="786.0"/>
      <point x="675.502414203857" y="786.0" type="curve" smooth="yes"/>
      <point x="693.0529299785928" y="786.0"/>
      <point x="711.0909600804044" y="780.0"/>
      <point x="729.1289901822162" y="768.0" type="curve" smooth="yes"/>
      <point x="749.6045919194079" y="754.0"/>
      <point x="759.3548784609277" y="778.0"/>
      <point x="765.6925647129156" y="830.0" type="curve" smooth="yes"/>
      <point x="771.5427366378275" y="880.0"/>
      <point x="764.7175360587637" y="911.0"/>
      <point x="743.754419994496" y="925.0" type="curve" smooth="yes"/>
      <point x="722.3037896031524" y="939.0"/>
      <point x="700.8531592118086" y="946.0"/>
      <point x="679.890043147541" y="946.0" type="curve" smooth="yes"/>
      <point x="592.6249786009383" y="946.0"/>
      <point x="512.1851146333996" y="828.0"/>
    </contour>
  </outline>
</glyph>
<glyph name="x" format="2">
  <advance width="1228"/>
  <unicode hex="0078"/>
  <outline>
    <contour>
      <point x="906.0" y="909.0" type="curve" smooth="yes"/>
      <point x="651.3130277635839" y="613.1015407685572" type="line" smooth="yes"/>
      <point x="634.7171230488844" y="593.8202143955968"/>
      <point x="605.2828769511156" y="593.8202143955968"/>
      <point x="588.6869722364161" y="613.1015407685572" type="curve" smooth="yes"/>
      <point x="334.0" y="909.0" type="line" smooth="yes"/>
      <point x="303.0" y="945.0"/>
      <point x="275.0" y="947.0"/>
      <point x="224.0" y="924.0" type="curve" smooth="yes"/>
      <point x="178.0" y="903.0"/>
      <point x="165.0" y="872.0"/>
      <point x="197.0" y="835.0" type="curve" smooth="yes"/>
      <point x="480.3690189783266" y="507.4057576125388" type="line" smooth="yes"/>
      <point x="497.0121315467666" y="488.1651650012331"/>
      <point x="497.0826919547019" y="453.97955977382134"/>
      <point x="480.5191475058484" y="434.67042734144997" type="curve" smooth="yes"/>
      <point x="184.0" y="89.0" type="line" smooth="yes"/>
      <point x="153.0" y="52.0"/>
      <point x="165.0" y="21.0"/>
      <point x="211.0" y="0.0" type="curve" smooth="yes"/>
      <point x="262.0" y="-23.0"/>
      <point x="290.0" y="-21.0"/>
      <point x="321.0" y="15.0" type="curve" smooth="yes"/>
      <point x="588.926669391977" y="330.4488230745601" type="line" smooth="yes"/>
      <point x="605.3955346142292" y="349.83877094172294"/>
      <point x="634.6044653857708" y="349.83877094172294"/>
      <point x="651.073330608023" y="330.4488230745601" type="curve" smooth="yes"/>
      <point x="919.0" y="15.0" type="line" smooth="yes"/>
      <point x="950.0" y="-21.0"/>
      <point x="978.0" y="-23.0"/>
      <point x="1029.0" y="0.0" type="curve" smooth="yes"/>
      <point x="1075.0" y="21.0"/>
      <point x="1087.0" y="52.0"/>
      <point x="1056.0" y="89.0" type="curve" smooth="yes"/>
      <point x="759.4808524941516" y="434.67042734144997" type="line" smooth="yes"/>
      <point x="742.9173080452981" y="453.97955977382134"/>
      <point x="742.9878684532333" y="488.1651650012331"/>
      <point x="759.6309810216734" y="507.4057576125388" type="curve" smooth="yes"/>
      <point x="1043.0" y="835.0" type="line" smooth="yes"/>
      <point x="1075.0" y="872.0"/>
      <point x="1062.0" y="903.0"/>
      <point x="1016.0" y="924.0" type="curve" smooth="yes"/>
      <point x="965.0" y="947.0"/>
      <point x="937.0" y="945.0"/>
    </contour>
  </outline>
</glyph>
<glyph name="currency" format="2">
  <advance width="1228"/>
  <unicode hex="00A4"/>
  <outline>
    <contour>
      <point x="204.0" y="602.0" type="curve" smooth="yes"/>
      <point x="204.0" y="511.7172546386719"/>
      <point x="230.19935607910156" y="430.9615783691406"/>
      <point x="256.65982940673825" y="393.1799627685547" type="curve" smooth="yes"/>
      <point x="266.8151765838623" y="378.679639263916"/>
      <point x="264.7201743612924" y="354.7201743612924"/>
      <point x="252.20237786935542" y="342.2023778693554" type="curve" smooth="yes"/>
      <point x="134.0" y="224.0" type="line" smooth="yes"/>
      <point x="102.0" y="192.0"/>
      <point x="103.0" y="165.0"/>
      <point x="140.0" y="128.0" type="curve" smooth="yes"/>
      <point x="177.0" y="91.0"/>
      <point x="204.0" y="90.0"/>
      <point x="236.0" y="122.0" type="curve" smooth="yes"/>
      <point x="356.13909259802875" y="242.13909259802872" type="line" smooth="yes"/>
      <point x="368.4864559795696" y="254.4864559795696"/>
      <point x="392.3826205078125" y="256.94069009399414"/>
      <point x="406.98199584960935" y="247.36086730957032" type="curve" smooth="yes"/>
      <point x="445.0216979980469" y="222.39996337890625"/>
      <point x="525.3485107421875" y="198.0"/>
      <point x="614.0" y="198.0" type="curve" smooth="yes"/>
      <point x="702.6514892578125" y="198.0"/>
      <point x="782.978271484375" y="222.39996337890625"/>
      <point x="821.0179736328125" y="247.36086730957032" type="curve" smooth="yes"/>
      <point x="835.6173489746094" y="256.94069009399414"/>
      <point x="859.5135146676702" y="254.48645714438763"/>
      <point x="871.8608793627291" y="242.13909507636498" type="curve" smooth="yes"/>
      <point x="992.0" y="122.0" type="line" smooth="yes"/>
      <point x="1024.0" y="90.0"/>
      <point x="1051.0" y="91.0"/>
      <point x="1088.0" y="128.0" type="curve" smooth="yes"/>
      <point x="1125.0" y="165.0"/>
      <point x="1126.0" y="192.0"/>
      <point x="1094.0" y="224.0" type="curve" smooth="yes"/>
      <point x="975.7976247302432" y="342.20237526975677" type="line" smooth="yes"/>
      <point x="963.279826860519" y="354.720173139481"/>
      <point x="961.1848264282227" y="378.679639263916"/>
      <point x="971.3401770019532" y="393.1799627685547" type="curve" smooth="yes"/>
      <point x="997.8006591796875" y="430.9615783691406"/>
      <point x="1024.0" y="511.7172546386719"/>
      <point x="1024.0" y="602.0" type="curve" smooth="yes"/>
      <point x="1024.0" y="692.28271484375"/>
      <point x="997.8006591796875" y="773.0384521484375"/>
      <point x="971.3401770019532" y="810.8200500488281" type="curve" smooth="yes"/>
      <point x="961.1848264282227" y="825.3203667602539"/>
      <point x="963.2798233713906" y="849.2798233713906"/>
      <point x="975.7976173065659" y="861.7976173065659" type="curve" smooth="yes"/>
      <point x="1094.0" y="980.0" type="line" smooth="yes"/>
      <point x="1126.0" y="1012.0"/>
      <point x="1125.0" y="1039.0"/>
      <point x="1088.0" y="1076.0" type="curve" smooth="yes"/>
      <point x="1051.0" y="1113.0"/>
      <point x="1024.0" y="1114.0"/>
      <point x="992.0" y="1082.0" type="curve" smooth="yes"/>
      <point x="871.8608818566404" y="961.8608818566404" type="line" smooth="yes"/>
      <point x="859.5135158398085" y="949.5135158398085"/>
      <point x="835.6173489746094" y="947.0592854125977"/>
      <point x="821.0179736328125" y="956.6391149902344" type="curve" smooth="yes"/>
      <point x="782.978271484375" y="981.6000366210938"/>
      <point x="702.6514892578125" y="1006.0"/>
      <point x="614.0" y="1006.0" type="curve" smooth="yes"/>
      <point x="525.3485107421875" y="1006.0"/>
      <point x="445.0216979980469" y="981.6000366210938"/>
      <point x="406.98199584960935" y="956.6391149902344" type="curve" smooth="yes"/>
      <point x="392.3826205078125" y="947.0592854125977"/>
      <point x="368.4864548074317" y="949.5135170046266"/>
      <point x="356.1390901041183" y="961.8608843349768" type="curve" smooth="yes"/>
      <point x="236.0" y="1082.0" type="line" smooth="yes"/>
      <point x="204.0" y="1114.0"/>
      <point x="177.0" y="1113.0"/>
      <point x="140.0" y="1076.0" type="curve" smooth="yes"/>
      <point x="103.0" y="1039.0"/>
      <point x="102.0" y="1012.0"/>
      <point x="134.0" y="980.0" type="curve" smooth="yes"/>
      <point x="252.2023852930335" y="861.7976147069666" type="line" smooth="yes"/>
      <point x="264.72017785042107" y="849.279822149579"/>
      <point x="266.8151765838623" y="825.3203667602539"/>
      <point x="256.65982940673825" y="810.8200500488281" type="curve" smooth="yes"/>
      <point x="230.19935607910156" y="773.0384521484375"/>
      <point x="204.0" y="692.28271484375"/>
    </contour>
    <contour>
      <point x="876.0" y="602.0" type="curve" smooth="yes"/>
      <point x="876.0" y="450.0"/>
      <point x="771.0" y="340.0"/>
      <point x="614.0" y="340.0" type="curve" smooth="yes"/>
      <point x="457.0" y="340.0"/>
      <point x="352.0" y="450.0"/>
      <point x="352.0" y="602.0" type="curve" smooth="yes"/>
      <point x="352.0" y="754.0"/>
      <point x="457.0" y="864.0"/>
      <point x="614.0" y="864.0" type="curve" smooth="yes"/>
      <point x="771.0" y="864.0"/>
      <point x="876.0" y="754.0"/>
    </contour>
  </outline>
</glyph>
<glyph name="paragraph" format="2">
  <advance width="1228"/>
  <unicode hex="00B6"/>
  <outline>
    <contour>
      <point x="548.0" y="1187.0" type="line" smooth="yes"/>
      <point x="303.0" y="1187.0"/>
      <point x="131.0" y="1060.0"/>
      <point x="131.0" y="844.0" type="curve" smooth="yes"/>
      <point x="131.0" y="635.0"/>
      <point x="293.0" y="509.0"/>
      <point x="478.0216471941908" y="503.44140974094705" type="curve" smooth="yes"/>
      <point x="503.4501741812697" y="502.6774625782451"/>
      <point x="526.0" y="479.44"/>
      <point x="526.0" y="454.0" type="curve" smooth="yes"/>
      <point x="526.0" y="-345.0" type="line" smooth="yes"/>
      <point x="526.0" y="-391.0"/>
      <point x="545.0" y="-410.0"/>
      <point x="601.0" y="-410.0" type="curve" smooth="yes"/>
      <point x="657.0" y="-410.0"/>
      <point x="676.0" y="-391.0"/>
      <point x="676.0" y="-345.0" type="curve" smooth="yes"/>
      <point x="676.0" y="995.0" type="line" smooth="yes"/>
      <point x="676.0" y="1020.44"/>
      <point x="698.56" y="1043.0"/>
      <point x="724.0" y="1043.0" type="curve" smooth="yes"/>
      <point x="788.0" y="1043.0" type="line" smooth="yes"/>
      <point x="813.44" y="1043.0"/>
      <point x="836.0" y="1020.44"/>
      <point x="836.0" y="995.0" type="curve" smooth="yes"/>
      <point x="836.0" y="-345.0" type="line" smooth="yes"/>
      <point x="836.0" y="-391.0"/>
      <point x="855.0" y="-410.0"/>
      <point x="911.0" y="-410.0" type="curve" smooth="yes"/>
      <point x="967.0" y="-410.0"/>
      <point x="986.0" y="-391.0"/>
      <point x="986.0" y="-345.0" type="curve" smooth="yes"/>
      <point x="986.0" y="1014.44" type="line" smooth="yes"/>
      <point x="986.0" y="1029.5768"/>
      <point x="999.4232" y="1043.0"/>
      <point x="1014.56" y="1043.0" type="curve" smooth="yes"/>
      <point x="1054.0" y="1043.0" type="line" smooth="yes"/>
      <point x="1099.0" y="1043.0"/>
      <point x="1117.0" y="1063.0"/>
      <point x="1117.0" y="1115.0" type="curve" smooth="yes"/>
      <point x="1117.0" y="1167.0"/>
      <point x="1099.0" y="1187.0"/>
      <point x="1054.0" y="1187.0" type="curve" smooth="yes"/>
    </contour>
  </outline>
</glyph>
<glyph name="uni00B9" format="2">
  <advance width="1228"/>
  <unicode hex="00B9"/>
  <outline>
    <contour>
      <point x="569.0" y="656.0" type="line" smooth="yes"/>
      <point x="569.0" y="630.56"/>
      <point x="546.44" y="608.0"/>
      <point x="521.0" y="608.0" type="curve" smooth="yes"/>
      <point x="365.0" y="608.0" type="line" smooth="yes"/>
      <point x="333.0" y="608.0"/>
      <point x="315.0" y="591.0"/>
      <point x="315.0" y="546.0" type="curve" smooth="yes"/>
      <point x="315.0" y="501.0"/>
      <point x="333.0" y="483.0"/>
      <point x="365.0" y="483.0" type="curve" smooth="yes"/>
      <point x="898.0" y="483.0" type="line" smooth="yes"/>
      <point x="930.0" y="483.0"/>
      <point x="947.0" y="501.0"/>
      <point x="947.0" y="546.0" type="curve" smooth="yes"/>
      <point x="947.0" y="591.0"/>
      <point x="930.0" y="608.0"/>
      <point x="898.0" y="608.0" type="curve" smooth="yes"/>
      <point x="752.0" y="608.0" type="line" smooth="yes"/>
      <point x="726.56" y="608.0"/>
      <point x="704.0" y="630.56"/>
      <point x="704.0" y="656.0" type="curve" smooth="yes"/>
      <point x="704.0" y="1292.0" type="line" smooth="yes"/>
      <point x="704.0" y="1330.0"/>
      <point x="672.0" y="1341.0"/>
      <point x="638.0" y="1330.0" type="curve" smooth="yes"/>
      <point x="354.0" y="1239.0" type="line" smooth="yes"/>
      <point x="317.0" y="1227.0"/>
      <point x="312.0" y="1201.0"/>
      <point x="325.0" y="1163.0" type="curve" smooth="yes"/>
      <point x="339.0" y="1123.0"/>
      <point x="360.0" y="1110.0"/>
      <point x="395.0" y="1122.0" type="curve" smooth="yes"/>
      <point x="523.3851666654998" y="1164.0572097697327" type="line" smooth="yes"/>
      <point x="547.5610283327849" y="1171.9768885917745"/>
      <point x="569.0" y="1156.44"/>
      <point x="569.0" y="1131.0" type="curve" smooth="yes"/>
    </contour>
  </outline>
</glyph>
<glyph name="onequarter" format="2">
  <advance width="1228"/>
  <unicode hex="00BC"/>
  <outline>
    <contour>
      <point x="961.0" y="458.0" type="curve" smooth="yes"/>
      <point x="644.0" y="81.0" type="line"/>
      <point x="634.0" y="67.0"/>
      <point x="630.0" y="56.0"/>
      <point x="630.0" y="36.0" type="curve" smooth="yes"/>
      <point x="630.0" y="-9.0"/>
      <point x="649.0" y="-29.0"/>
      <point x="675.0" y="-29.0" type="curve" smooth="yes"/>
      <point x="941.0" y="-29.0" type="line" smooth="yes"/>
      <point x="966.44" y="-29.0"/>
      <point x="989.0" y="-51.56"/>
      <point x="989.0" y="-77.0" type="curve" smooth="yes"/>
      <point x="989.0" y="-182.0" type="line" smooth="yes"/>
      <point x="989.0" y="-208.0"/>
      <point x="1005.0" y="-222.0"/>
      <point x="1046.0" y="-222.0" type="curve" smooth="yes"/>
      <point x="1088.0" y="-222.0"/>
      <point x="1102.0" y="-208.0"/>
      <point x="1102.0" y="-182.0" type="curve" smooth="yes"/>
      <point x="1102.0" y="-67.22" type="line" smooth="yes"/>
      <point x="1102.0" y="-46.9634"/>
      <point x="1119.9634" y="-29.0"/>
      <point x="1140.22" y="-29.0" type="curve" smooth="yes"/>
      <point x="1193.0" y="-29.0" type="line" smooth="yes"/>
      <point x="1219.0" y="-29.0"/>
      <point x="1233.0" y="-14.0"/>
      <point x="1233.0" y="24.0" type="curve" smooth="yes"/>
      <point x="1233.0" y="62.0"/>
      <point x="1219.0" y="76.0"/>
      <point x="1193.0" y="76.0" type="curve" smooth="yes"/>
      <point x="1140.22" y="76.0" type="line" smooth="yes"/>
      <point x="1119.9634" y="76.0"/>
      <point x="1102.0" y="93.96340000000001"/>
      <point x="1102.0" y="114.22" type="curve" smooth="yes"/>
      <point x="1102.0" y="448.0" type="line" smooth="yes"/>
      <point x="1102.0" y="476.0"/>
      <point x="1065.0" y="495.0"/>
      <point x="1028.0" y="495.0" type="curve" smooth="yes"/>
      <point x="998.0" y="495.0"/>
      <point x="980.0" y="482.0"/>
    </contour>
    <contour>
      <point x="213.0" y="836.0" type="line" smooth="yes"/>
      <point x="213.0" y="810.56"/>
      <point x="190.44" y="788.0"/>
      <point x="165.0" y="788.0" type="curve" smooth="yes"/>
      <point x="43.0" y="788.0" type="line" smooth="yes"/>
      <point x="16.0" y="788.0"/>
      <point x="1.0" y="774.0"/>
      <point x="1.0" y="736.0" type="curve" smooth="yes"/>
      <point x="1.0" y="699.0"/>
      <point x="16.0" y="684.0"/>
      <point x="43.0" y="684.0" type="curve" smooth="yes"/>
      <point x="488.0" y="684.0" type="line" smooth="yes"/>
      <point x="515.0" y="684.0"/>
      <point x="529.0" y="699.0"/>
      <point x="529.0" y="736.0" type="curve" smooth="yes"/>
      <point x="529.0" y="774.0"/>
      <point x="515.0" y="788.0"/>
      <point x="488.0" y="788.0" type="curve" smooth="yes"/>
      <point x="374.0" y="788.0" type="line" smooth="yes"/>
      <point x="348.56" y="788.0"/>
      <point x="326.0" y="810.56"/>
      <point x="326.0" y="836.0" type="curve" smooth="yes"/>
      <point x="326.0" y="1359.0" type="line" smooth="yes"/>
      <point x="326.0" y="1390.0"/>
      <point x="299.0" y="1399.0"/>
      <point x="271.0" y="1390.0" type="curve" smooth="yes"/>
      <point x="34.0" y="1314.0" type="line" smooth="yes"/>
      <point x="3.0" y="1304.0"/>
      <point x="-1.0" y="1283.0"/>
      <point x="9.0" y="1251.0" type="curve" smooth="yes"/>
      <point x="21.0" y="1218.0"/>
      <point x="39.0" y="1207.0"/>
      <point x="68.0" y="1217.0" type="curve" smooth="yes"/>
      <point x="167.3388077474943" y="1249.199475614705" type="line" smooth="yes"/>
      <point x="191.53923964132233" y="1257.0437535389115"/>
      <point x="213.0" y="1241.44"/>
      <point x="213.0" y="1216.0" type="curve" smooth="yes"/>
    </contour>
    <contour>
      <point x="125.0" y="279.0" type="line" smooth="yes"/>
      <point x="106.0" y="267.0"/>
      <point x="106.0" y="240.0"/>
      <point x="125.0" y="214.0" type="curve" smooth="yes"/>
      <point x="144.0" y="188.0"/>
      <point x="168.0" y="180.0"/>
      <point x="185.0" y="190.0" type="curve" smooth="yes"/>
      <point x="1103.0" y="751.0" type="line" smooth="yes"/>
      <point x="1122.0" y="763.0"/>
      <point x="1122.0" y="790.0"/>
      <point x="1103.0" y="816.0" type="curve" smooth="yes"/>
      <point x="1084.0" y="842.0"/>
      <point x="1060.0" y="850.0"/>
      <point x="1043.0" y="840.0" type="curve" smooth="yes"/>
    </contour>
    <contour>
      <point x="989.9020962857185" y="123.99152240022494" type="line" smooth="yes"/>
      <point x="989.4239852542877" y="98.55601552810572"/>
      <point x="966.44" y="76.0"/>
      <point x="941.0" y="76.0" type="curve" smooth="yes"/>
      <point x="821.0" y="76.0" type="line" smooth="yes"/>
      <point x="795.56" y="76.0"/>
      <point x="787.4168780908224" y="93.35244150298071"/>
      <point x="803.6742087038773" y="112.92008830421427" type="curve" smooth="yes"/>
      <point x="963.3257912961227" y="305.0799116957857" type="line" smooth="yes"/>
      <point x="979.5831219091776" y="324.6475584970193"/>
      <point x="993.5760147457123" y="319.4439844718943"/>
      <point x="993.0979037142815" y="294.00847759977506" type="curve" smooth="yes"/>
    </contour>
  </outline>
</glyph>
<glyph name="dcroat" format="2">
  <advance width="1228"/>
  <unicode hex="0111"/>
  <outline>
    <contour>
      <point x="940.0" y="1322.0" type="line" smooth="yes"/>
      <point x="884.0" y="1322.0"/>
      <point x="866.0" y="1303.0"/>
      <point x="866.0" y="1257.0" type="curve" smooth="yes"/>
      <point x="866.0" y="1194.94" type="line" smooth="yes"/>
      <point x="866.0" y="1171.1218000000001"/>
      <point x="844.8782" y="1150.0"/>
      <point x="821.06" y="1150.0" type="curve" smooth="yes"/>
      <point x="613.0" y="1150.0" type="line" smooth="yes"/>
      <point x="568.0" y="1150.0"/>
      <point x="550.0" y="1130.0"/>
      <point x="550.0" y="1078.0" type="curve" smooth="yes"/>
      <point x="550.0" y="1026.0"/>
      <point x="568.0" y="1006.0"/>
      <point x="613.0" y="1006.0" type="curve" smooth="yes"/>
      <point x="818.0" y="1006.0" type="line" smooth="yes"/>
      <point x="843.44" y="1006.0"/>
      <point x="866.0" y="983.44"/>
      <point x="866.0" y="958.0" type="curve" smooth="yes"/>
      <point x="866.0" y="786.9091796875" type="line" smooth="yes"/>
      <point x="866.0" y="761.4691796875"/>
      <point x="851.6411294454946" y="756.3096519914047"/>
      <point x="835.4492115861586" y="775.9314611851697" type="curve" smooth="yes"/>
      <point x="790.6318969726562" y="830.2423095703125"/>
      <point x="693.9517211914062" y="886.0"/>
      <point x="569.0" y="886.0" type="curve" smooth="yes"/>
      <point x="334.0" y="886.0"/>
      <point x="159.0" y="716.0"/>
      <point x="159.0" y="432.0" type="curve" smooth="yes"/>
      <point x="159.0" y="148.0"/>
      <point x="334.0" y="-22.0"/>
      <point x="569.0" y="-22.0" type="curve" smooth="yes"/>
      <point x="694.2883911132812" y="-22.0"/>
      <point x="798.2587280273438" y="37.216758728027344"/>
      <point x="854.6946456559843" y="110.46036238569356" type="curve" smooth="yes"/>
      <point x="865.9864834583126" y="125.11512352562167"/>
      <point x="876.0" y="121.70477230529785"/>
      <point x="876.0" y="103.20429595947266" type="curve" smooth="yes"/>
      <point x="876.0" y="55.0" type="line" smooth="yes"/>
      <point x="876.0" y="9.0"/>
      <point x="892.0" y="-10.0"/>
      <point x="945.0" y="-10.0" type="curve" smooth="yes"/>
      <point x="947.0" y="-10.0" type="line" smooth="yes"/>
      <point x="1000.0" y="-10.0"/>
      <point x="1016.0" y="9.0"/>
      <point x="1016.0" y="55.0" type="curve" smooth="yes"/>
      <point x="1016.0" y="958.0" type="line" smooth="yes"/>
      <point x="1016.0" y="983.44"/>
      <point x="1038.56" y="1006.0"/>
      <point x="1064.0" y="1006.0" type="curve" smooth="yes"/>
      <point x="1155.0" y="1006.0" type="line" smooth="yes"/>
      <point x="1200.0" y="1006.0"/>
      <point x="1218.0" y="1026.0"/>
      <point x="1218.0" y="1078.0" type="curve" smooth="yes"/>
      <point x="1218.0" y="1130.0"/>
      <point x="1200.0" y="1150.0"/>
      <point x="1155.0" y="1150.0" type="curve" smooth="yes"/>
      <point x="1060.94" y="1150.0" type="line" smooth="yes"/>
      <point x="1037.1218000000001" y="1150.0"/>
      <point x="1016.0" y="1171.1218000000001"/>
      <point x="1016.0" y="1194.94" type="curve" smooth="yes"/>
      <point x="1016.0" y="1257.0" type="line" smooth="yes"/>
      <point x="1016.0" y="1303.0"/>
      <point x="998.0" y="1322.0"/>
      <point x="942.0" y="1322.0" type="curve" smooth="yes"/>
    </contour>
    <contour>
      <point x="866.0" y="432.0" type="curve" smooth="yes"/>
      <point x="866.0" y="238.0"/>
      <point x="744.0" y="126.0"/>
      <point x="579.0" y="126.0" type="curve" smooth="yes"/>
      <point x="410.0" y="126.0"/>
      <point x="313.0" y="254.0"/>
      <point x="313.0" y="432.0" type="curve" smooth="yes"/>
      <point x="313.0" y="610.0"/>
      <point x="410.0" y="738.0"/>
      <point x="579.0" y="738.0" type="curve" smooth="yes"/>
      <point x="744.0" y="738.0"/>
      <point x="866.0" y="626.0"/>
    </contour>
  </outline>
</glyph>
<glyph name="OE" format="2">
  <advance width="1228"/>
  <unicode hex="0152"/>
  <outline>
    <contour>
      <point x="84.0" y="593.0" type="curve" smooth="yes"/>
      <point x="84.0" y="216.0"/>
      <point x="291.0" y="-8.0"/>
      <point x="611.0" y="0.0" type="curve" smooth="yes"/>
      <point x="1078.0" y="0.0" type="line" smooth="yes"/>
      <point x="1123.0" y="0.0"/>
      <point x="1141.0" y="20.0"/>
      <point x="1141.0" y="72.0" type="curve" smooth="yes"/>
      <point x="1141.0" y="124.0"/>
      <point x="1123.0" y="144.0"/>
      <point x="1078.0" y="144.0" type="curve" smooth="yes"/>
      <point x="784.0" y="144.0" type="line" smooth="yes"/>
      <point x="758.56" y="144.0"/>
      <point x="736.0" y="166.56"/>
      <point x="736.0" y="192.0" type="curve" smooth="yes"/>
      <point x="736.0" y="492.0" type="line" smooth="yes"/>
      <point x="736.0" y="517.44"/>
      <point x="758.56" y="540.0"/>
      <point x="784.0" y="540.0" type="curve" smooth="yes"/>
      <point x="983.0" y="540.0" type="line" smooth="yes"/>
      <point x="1028.0" y="540.0"/>
      <point x="1046.0" y="560.0"/>
      <point x="1046.0" y="612.0" type="curve" smooth="yes"/>
      <point x="1046.0" y="664.0"/>
      <point x="1028.0" y="684.0"/>
      <point x="983.0" y="684.0" type="curve" smooth="yes"/>
      <point x="784.0" y="684.0" type="line" smooth="yes"/>
      <point x="758.56" y="684.0"/>
      <point x="736.0" y="706.56"/>
      <point x="736.0" y="732.0" type="curve" smooth="yes"/>
      <point x="736.0" y="995.0" type="line" smooth="yes"/>
      <point x="736.0" y="1020.44"/>
      <point x="758.56" y="1043.0"/>
      <point x="784.0" y="1043.0" type="curve" smooth="yes"/>
      <point x="1058.0" y="1043.0" type="line" smooth="yes"/>
      <point x="1103.0" y="1043.0"/>
      <point x="1121.0" y="1063.0"/>
      <point x="1121.0" y="1115.0" type="curve" smooth="yes"/>
      <point x="1121.0" y="1167.0"/>
      <point x="1103.0" y="1187.0"/>
      <point x="1058.0" y="1187.0" type="curve" smooth="yes"/>
      <point x="611.0" y="1187.0" type="line" smooth="yes"/>
      <point x="291.0" y="1195.0"/>
      <point x="84.0" y="970.0"/>
    </contour>
    <contour>
      <point x="586.0" y="184.28994750976562" type="line" smooth="yes"/>
      <point x="586.0" y="158.84994750976563"/>
      <point x="563.4550373019537" y="137.11351107361574"/>
      <point x="538.0319942594759" y="138.0422104115744" type="curve" smooth="yes"/>
      <point x="376.88592529296875" y="143.92884826660156"/>
      <point x="238.0" y="302.3509216308594"/>
      <point x="238.0" y="593.0" type="curve" smooth="yes"/>
      <point x="238.0" y="883.6491088867188"/>
      <point x="376.88592529296875" y="1043.0223388671875"/>
      <point x="538.0250465745703" y="1048.2299620755596" type="curve" smooth="yes"/>
      <point x="563.451771890048" y="1049.0516917946536"/>
      <point x="586.0" y="1027.2203955078126"/>
      <point x="586.0" y="1001.7803955078125" type="curve" smooth="yes"/>
    </contour>
  </outline>
</glyph>
<glyph name="uni01DA" format="2">
  <advance width="1228"/>
  <unicode hex="01DA"/>
  <outline>
    <contour>
      <point x="950.0" y="934.0" type="line" smooth="yes"/>
      <point x="894.0" y="934.0"/>
      <point x="876.0" y="915.0"/>
      <point x="876.0" y="869.0" type="curve" smooth="yes"/>
      <point x="876.0" y="532.0" type="line" smooth="yes"/>
      <point x="876.0" y="304.0"/>
      <point x="687.0" y="126.0"/>
      <point x="516.0" y="126.0" type="curve" smooth="yes"/>
      <point x="387.0" y="126.0"/>
      <point x="334.0" y="204.0"/>
      <point x="334.0" y="319.0" type="curve" smooth="yes"/>
      <point x="334.0" y="869.0" type="line" smooth="yes"/>
      <point x="334.0" y="915.0"/>
      <point x="316.0" y="934.0"/>
      <point x="260.0" y="934.0" type="curve" smooth="yes"/>
      <point x="258.0" y="934.0" type="line" smooth="yes"/>
      <point x="202.0" y="934.0"/>
      <point x="184.0" y="915.0"/>
      <point x="184.0" y="869.0" type="curve" smooth="yes"/>
      <point x="184.0" y="304.0" type="line" smooth="yes"/>
      <point x="184.0" y="104.0"/>
      <point x="297.0" y="-22.0"/>
      <point x="501.0" y="-22.0" type="curve" smooth="yes"/>
      <point x="647.0" y="-22.0"/>
      <point x="798.0" y="82.0"/>
      <point x="859.9239386484509" y="177.70063245669672" type="curve" smooth="yes"/>
      <point x="873.7442511647719" y="199.05929725464745"/>
      <point x="886.0" y="195.44"/>
      <point x="886.0" y="170.0" type="curve" smooth="yes"/>
      <point x="886.0" y="55.0" type="line" smooth="yes"/>
      <point x="886.0" y="9.0"/>
      <point x="902.0" y="-10.0"/>
      <point x="955.0" y="-10.0" type="curve" smooth="yes"/>
      <point x="957.0" y="-10.0" type="line" smooth="yes"/>
      <point x="1010.0" y="-10.0"/>
      <point x="1026.0" y="9.0"/>
      <point x="1026.0" y="55.0" type="curve" smooth="yes"/>
      <point x="1026.0" y="869.0" type="line" smooth="yes"/>
      <point x="1026.0" y="915.0"/>
      <point x="1008.0" y="934.0"/>
      <point x="952.0" y="934.0" type="curve" smooth="yes"/>
    </contour>
    <contour>
      <point x="799.0" y="1450.0" type="line" smooth="yes"/>
      <point x="872.0" y="1477.0"/>
      <point x="836.0" y="1588.0"/>
      <point x="762.0" y="1565.0" type="curve" smooth="yes"/>
      <point x="584.9128593499661" y="1511.0003337928147" type="line" smooth="yes"/>
      <point x="560.579043894484" y="1503.580156882623"/>
      <point x="517.4127741909391" y="1503.5532649777506"/>
      <point x="493.06973232114694" y="1510.9431169739375" type="curve" smooth="yes"/>
      <point x="315.0" y="1565.0" type="line" smooth="yes"/>
      <point x="242.0" y="1588.0"/>
      <point x="205.0" y="1477.0"/>
      <point x="276.0" y="1450.0" type="curve" smooth="yes"/>
      <point x="518.0" y="1362.0" type="line" smooth="yes"/>
      <point x="530.0" y="1358.0"/>
      <point x="545.0" y="1358.0"/>
      <point x="557.0" y="1362.0" type="curve" smooth="yes"/>
    </contour>
    <contour>
      <point x="499.0" y="1298.0" type="line" smooth="yes"/>
      <point x="499.0" y="1344.0"/>
      <point x="480.0" y="1363.0"/>
      <point x="404.0" y="1363.0" type="curve" smooth="yes"/>
      <point x="328.0" y="1363.0"/>
      <point x="309.0" y="1344.0"/>
      <point x="309.0" y="1298.0" type="curve" smooth="yes"/>
      <point x="309.0" y="1168.0" type="line" smooth="yes"/>
      <point x="309.0" y="1122.0"/>
      <point x="328.0" y="1103.0"/>
      <point x="404.0" y="1103.0" type="curve" smooth="yes"/>
      <point x="480.0" y="1103.0"/>
      <point x="499.0" y="1122.0"/>
      <point x="499.0" y="1168.0" type="curve" smooth="yes"/>
    </contour>
    <contour>
      <point x="919.0" y="1298.0" type="line" smooth="yes"/>
      <point x="919.0" y="1344.0"/>
      <point x="900.0" y="1363.0"/>
      <point x="824.0" y="1363.0" type="curve" smooth="yes"/>
      <point x="748.0" y="1363.0"/>
      <point x="729.0" y="1344.0"/>
      <point x="729.0" y="1298.0" type="curve" smooth="yes"/>
      <point x="729.0" y="1168.0" type="line" smooth="yes"/>
      <point x="729.0" y="1122.0"/>
      <point x="748.0" y="1103.0"/>
      <point x="824.0" y="1103.0" type="curve" smooth="yes"/>
      <point x="900.0" y="1103.0"/>
      <point x="919.0" y="1122.0"/>
      <point x="919.0" y="1168.0" type="curve" smooth="yes"/>
    </contour>
  </outline>
</glyph>
<glyph name="Chi" format="2">
  <advance width="1228"/>
  <unicode hex="03A7"/>
  <outline>
    <contour>
      <point x="918.0" y="1172.0" type="curve" smooth="yes"/>
      <point x="649.1723454094166" y="764.8051727040549" type="line" smooth="yes"/>
      <point x="635.156048118793" y="743.5746048769605"/>
      <point x="610.2544524582261" y="743.5464760834107"/>
      <point x="596.1902269826784" y="764.7453242071402" type="curve" smooth="yes"/>
      <point x="326.0" y="1172.0" type="line" smooth="yes"/>
      <point x="299.0" y="1211.0"/>
      <point x="270.0" y="1210.0"/>
      <point x="219.0" y="1187.0" type="curve" smooth="yes"/>
      <point x="173.0" y="1166.0"/>
      <point x="161.0" y="1138.0"/>
      <point x="189.0" y="1098.0" type="curve" smooth="yes"/>
      <point x="500.9267210358486" y="644.2107264990258" type="line" smooth="yes"/>
      <point x="515.3375388673176" y="623.2459481928233"/>
      <point x="515.151803186561" y="586.1921809200336"/>
      <point x="500.5315387363665" y="565.3729237909625" type="curve" smooth="yes"/>
      <point x="166.0" y="89.0" type="line" smooth="yes"/>
      <point x="139.0" y="49.0"/>
      <point x="150.0" y="21.0"/>
      <point x="196.0" y="0.0" type="curve" smooth="yes"/>
      <point x="247.0" y="-23.0"/>
      <point x="276.0" y="-25.0"/>
      <point x="303.0" y="15.0" type="curve" smooth="yes"/>
      <point x="593.4592650201907" y="446.81036649087804" type="line" smooth="yes"/>
      <point x="607.6582251649584" y="467.91920660129864"/>
      <point x="632.9364477946317" y="467.9835697895793"/>
      <point x="647.242717423751" y="446.94730944466676" type="curve" smooth="yes"/>
      <point x="941.0" y="15.0" type="line" smooth="yes"/>
      <point x="967.0" y="-25.0"/>
      <point x="997.0" y="-23.0"/>
      <point x="1048.0" y="0.0" type="curve" smooth="yes"/>
      <point x="1094.0" y="21.0"/>
      <point x="1106.0" y="50.0"/>
      <point x="1078.0" y="89.0" type="curve" smooth="yes"/>
      <point x="742.5221271947031" y="564.8488206474706" type="line" smooth="yes"/>
      <point x="727.8634240735026" y="585.6410312756002"/>
      <point x="727.659525916988" y="622.6598575457341"/>
      <point x="742.0883013297781" y="643.6122807966915" type="curve" smooth="yes"/>
      <point x="1055.0" y="1098.0" type="line" smooth="yes"/>
      <point x="1083.0" y="1138.0"/>
      <point x="1071.0" y="1166.0"/>
      <point x="1025.0" y="1187.0" type="curve" smooth="yes"/>
      <point x="974.0" y="1210.0"/>
      <point x="945.0" y="1211.0"/>
    </contour>
  </outline>
</glyph>
<glyph name="Iotadieresis" format="2">
  <advance width="1228"/>
  <unicode hex="03AA"/>
  <outline>
    <contour>
      <point x="263.0" y="144.0" type="line" smooth="yes"/>
      <point x="218.0" y="144.0"/>
      <point x="200.0" y="124.0"/>
      <point x="200.0" y="72.0" type="curve" smooth="yes"/>
      <point x="200.0" y="20.0"/>
      <point x="218.0" y="0.0"/>
      <point x="263.0" y="0.0" type="curve" smooth="yes"/>
      <point x="965.0" y="0.0" type="line" smooth="yes"/>
      <point x="1010.0" y="0.0"/>
      <point x="1028.0" y="20.0"/>
      <point x="1028.0" y="72.0" type="curve" smooth="yes"/>
      <point x="1028.0" y="124.0"/>
      <point x="1010.0" y="144.0"/>
      <point x="965.0" y="144.0" type="curve" smooth="yes"/>
      <point x="737.0" y="144.0" type="line" smooth="yes"/>
      <point x="711.56" y="144.0"/>
      <point x="689.0" y="166.56"/>
      <point x="689.0" y="192.0" type="curve" smooth="yes"/>
      <point x="689.0" y="995.0" type="line" smooth="yes"/>
      <point x="689.0" y="1020.44"/>
      <point x="711.56" y="1043.0"/>
      <point x="737.0" y="1043.0" type="curve" smooth="yes"/>
      <point x="945.0" y="1043.0" type="line" smooth="yes"/>
      <point x="990.0" y="1043.0"/>
      <point x="1008.0" y="1063.0"/>
      <point x="1008.0" y="1115.0" type="curve" smooth="yes"/>
      <point x="1008.0" y="1167.0"/>
      <point x="990.0" y="1187.0"/>
      <point x="945.0" y="1187.0" type="curve" smooth="yes"/>
      <point x="283.0" y="1187.0" type="line" smooth="yes"/>
      <point x="238.0" y="1187.0"/>
      <point x="220.0" y="1167.0"/>
      <point x="220.0" y="1115.0" type="curve" smooth="yes"/>
      <point x="220.0" y="1063.0"/>
      <point x="238.0" y="1043.0"/>
      <point x="283.0" y="1043.0" type="curve" smooth="yes"/>
      <point x="491.0" y="1043.0" type="line" smooth="yes"/>
      <point x="516.44" y="1043.0"/>
      <point x="539.0" y="1020.44"/>
      <point x="539.0" y="995.0" type="curve" smooth="yes"/>
      <point x="539.0" y="192.0" type="line" smooth="yes"/>
      <point x="539.0" y="166.56"/>
      <point x="516.44" y="144.0"/>
      <point x="491.0" y="144.0" type="curve" smooth="yes"/>
    </contour>
    <contour>
      <point x="499.0" y="1568.0" type="line" smooth="yes"/>
      <point x="499.0" y="1614.0"/>
      <point x="480.0" y="1633.0"/>
      <point x="404.0" y="1633.0" type="curve" smooth="yes"/>
      <point x="328.0" y="1633.0"/>
      <point x="309.0" y="1614.0"/>
      <point x="309.0" y="1568.0" type="curve" smooth="yes"/>
      <point x="309.0" y="1438.0" type="line" smooth="yes"/>
      <point x="309.0" y="1392.0"/>
      <point x="328.0" y="1373.0"/>
      <point x="404.0" y="1373.0" type="curve" smooth="yes"/>
      <point x="480.0" y="1373.0"/>
      <point x="499.0" y="1392.0"/>
      <point x="499.0" y="1438.0" type="curve" smooth="yes"/>
    </contour>
    <contour>
      <point x="919.0" y="1568.0" type="line" smooth="yes"/>
      <point x="919.0" y="1614.0"/>
      <point x="900.0" y="1633.0"/>
      <point x="824.0" y="1633.0" type="curve" smooth="yes"/>
      <point x="748.0" y="1633.0"/>
      <point x="729.0" y="1614.0"/>
      <point x="729.0" y="1568.0" type="curve" smooth="yes"/>
      <point x="729.0" y="1438.0" type="line" smooth="yes"/>
      <point x="729.0" y="1392.0"/>
      <point x="748.0" y="1373.0"/>
      <point x="824.0" y="1373.0" type="curve" smooth="yes"/>
      <point x="900.0" y="1373.0"/>
      <point x="919.0" y="1392.0"/>
      <point x="919.0" y="1438.0" type="curve" smooth="yes"/>
    </contour>
  </outline>
</glyph>
<glyph name="uni03BC" format="2">
  <advance width="1228"/>
  <unicode hex="03BC"/>
  <outline>
    <contour>
      <point x="944.0" y="934.0" type="line" smooth="yes"/>
      <point x="888.0" y="934.0"/>
      <point x="870.0" y="915.0"/>
      <point x="870.0" y="869.0" type="curve" smooth="yes"/>
      <point x="870.0" y="502.0" type="line" smooth="yes"/>
      <point x="870.0" y="292.0"/>
      <point x="701.0" y="126.0"/>
      <point x="550.0" y="126.0" type="curve" smooth="yes"/>
      <point x="421.0" y="126.0"/>
      <point x="368.0" y="204.0"/>
      <point x="368.0" y="319.0" type="curve" smooth="yes"/>
      <point x="368.0" y="869.0" type="line" smooth="yes"/>
      <point x="368.0" y="915.0"/>
      <point x="350.0" y="934.0"/>
      <point x="294.0" y="934.0" type="curve" smooth="yes"/>
      <point x="292.0" y="934.0" type="line" smooth="yes"/>
      <point x="236.0" y="934.0"/>
      <point x="218.0" y="915.0"/>
      <point x="218.0" y="869.0" type="curve" smooth="yes"/>
      <point x="218.0" y="-333.0" type="line" smooth="yes"/>
      <point x="218.0" y="-379.0"/>
      <point x="236.0" y="-398.0"/>
      <point x="292.0" y="-398.0" type="curve" smooth="yes"/>
      <point x="294.0" y="-398.0" type="line" smooth="yes"/>
      <point x="350.0" y="-398.0"/>
      <point x="368.0" y="-379.0"/>
      <point x="368.0" y="-333.0" type="curve" smooth="yes"/>
      <point x="368.0" y="2.3940096434595475" type="line" smooth="yes"/>
      <point x="368.0" y="14.375184532425989"/>
      <point x="376.6856" y="18.8806"/>
      <point x="386.48" y="11.98" type="curve" smooth="yes"/>
      <point x="412.0" y="-6.0"/>
      <point x="470.0" y="-22.0"/>
      <point x="535.0" y="-22.0" type="curve" smooth="yes"/>
      <point x="675.0" y="-22.0"/>
      <point x="800.0" y="74.0"/>
      <point x="853.9779102485395" y="157.66576088523627" type="curve" smooth="yes"/>
      <point x="867.7696178168136" y="179.04290761606106"/>
      <point x="880.0" y="175.44"/>
      <point x="880.0" y="150.0" type="curve" smooth="yes"/>
      <point x="880.0" y="55.0" type="line" smooth="yes"/>
      <point x="880.0" y="9.0"/>
      <point x="896.0" y="-10.0"/>
      <point x="949.0" y="-10.0" type="curve" smooth="yes"/>
      <point x="951.0" y="-10.0" type="line" smooth="yes"/>
      <point x="1004.0" y="-10.0"/>
      <point x="1020.0" y="9.0"/>
      <point x="1020.0" y="55.0" type="curve" smooth="yes"/>
      <point x="1020.0" y="869.0" type="line" smooth="yes"/>
      <point x="1020.0" y="915.0"/>
      <point x="1002.0" y="934.0"/>
      <point x="946.0" y="934.0" type="curve" smooth="yes"/>
    </contour>
  </outline>
</glyph>
<glyph name="chi" format="2">
  <advance width="1228"/>
  <unicode hex="03C7"/>
  <outline>
    <contour>
      <point x="82.0" y="823.0" type="curve" smooth="yes"/>
      <point x="82.0" y="784.0"/>
      <point x="111.0" y="766.0"/>
      <point x="123.0" y="760.0" type="curve" smooth="yes"/>
      <point x="131.0" y="756.0"/>
      <point x="135.0" y="756.0"/>
      <point x="164.0" y="756.0" type="curve" smooth="yes"/>
      <point x="180.82" y="756.0" type="line" smooth="yes"/>
      <point x="187.2754" y="756.0"/>
      <point x="198.05629224194962" y="753.3157954764959"/>
      <point x="203.75806859989282" y="750.2889265457359" type="curve" smooth="yes"/>
      <point x="274.0" y="713.0"/>
      <point x="336.0" y="606.0"/>
      <point x="434.0" y="311.0" type="curve" smooth="yes"/>
      <point x="450.82" y="259.96" type="line" smooth="yes"/>
      <point x="457.2754" y="240.3712"/>
      <point x="453.3658760434037" y="207.45286874729175"/>
      <point x="442.5018639221356" y="189.92099733466327" type="curve" smooth="yes"/>
      <point x="274.0" y="-82.0" type="line" smooth="yes"/>
      <point x="172.0" y="-248.0"/>
      <point x="86.0" y="-389.0"/>
      <point x="82.0" y="-395.0" type="curve"/>
      <point x="82.0" y="-412.0" type="line" smooth="yes"/>
      <point x="82.0" y="-430.0"/>
      <point x="94.0" y="-451.0"/>
      <point x="111.0" y="-461.0" type="curve"/>
      <point x="119.0" y="-465.0"/>
      <point x="123.0" y="-465.0"/>
      <point x="152.0" y="-465.0" type="curve" smooth="yes"/>
      <point x="209.0" y="-465.0"/>
      <point x="197.0" y="-457.0"/>
      <point x="213.0" y="-449.0" type="curve"/>
      <point x="213.0" y="-444.0"/>
      <point x="283.0" y="-334.0"/>
      <point x="365.0" y="-201.0" type="curve" smooth="yes"/>
      <point x="491.03730224941603" y="6.001661972550792" type="line" smooth="yes"/>
      <point x="504.26753205722554" y="27.730781127098872"/>
      <point x="523.2399616420165" y="25.63328393453665"/>
      <point x="531.4041737064181" y="1.538901988375848" type="curve" smooth="yes"/>
      <point x="598.0" y="-195.0"/>
      <point x="676.0" y="-336.0"/>
      <point x="745.0" y="-401.0" type="curve"/>
      <point x="795.0" y="-442.0"/>
      <point x="831.0" y="-469.0"/>
      <point x="901.0" y="-469.0" type="curve" smooth="yes"/>
      <point x="979.0" y="-469.0"/>
      <point x="995.0" y="-426.0"/>
      <point x="995.0" y="-397.0" type="curve" smooth="yes"/>
      <point x="995.0" y="-367.0"/>
      <point x="979.0" y="-328.0"/>
      <point x="913.0" y="-328.0" type="curve" smooth="yes"/>
      <point x="885.0" y="-328.0" type="line"/>
      <point x="868.0" y="-322.0" type="line"/>
      <point x="795.0" y="-281.0"/>
      <point x="725.0" y="-139.0"/>
      <point x="643.0" y="115.0" type="curve" smooth="yes"/>
      <point x="626.18" y="166.04" type="line" smooth="yes"/>
      <point x="619.7246" y="185.6288"/>
      <point x="623.6341239565962" y="218.54713125270825"/>
      <point x="634.4981360778644" y="236.07900266533673" type="curve" smooth="yes"/>
      <point x="803.0" y="508.0" type="line" smooth="yes"/>
      <point x="905.0" y="674.0"/>
      <point x="991.0" y="815.0"/>
      <point x="991.0" y="821.0" type="curve"/>
      <point x="995.0" y="827.0"/>
      <point x="995.0" y="831.0"/>
      <point x="995.0" y="838.0" type="curve" smooth="yes"/>
      <point x="995.0" y="856.0"/>
      <point x="983.0" y="877.0"/>
      <point x="963.0" y="887.0" type="curve" smooth="yes"/>
      <point x="954.0" y="891.0"/>
      <point x="950.0" y="893.0"/>
      <point x="922.0" y="893.0" type="curve" smooth="yes"/>
      <point x="872.0" y="893.0"/>
      <point x="877.0" y="881.0"/>
      <point x="864.0" y="874.0" type="curve"/>
      <point x="860.0" y="870.0"/>
      <point x="795.0" y="760.0"/>
      <point x="713.0" y="629.0" type="curve" smooth="yes"/>
      <point x="564.5498554627799" y="391.09912734419856" type="line" smooth="yes"/>
      <point x="560.5484320675065" y="384.6865898517733"/>
      <point x="555.4208" y="385.5142"/>
      <point x="553.64" y="392.86" type="curve" smooth="yes"/>
      <point x="549.0" y="412.0"/>
      <point x="520.0" y="481.0"/>
      <point x="500.0" y="532.0" type="curve" smooth="yes"/>
      <point x="406.0" y="780.0"/>
      <point x="303.0" y="895.0"/>
      <point x="168.0" y="895.0" type="curve" smooth="yes"/>
      <point x="98.0" y="895.0"/>
      <point x="82.0" y="852.0"/>
    </contour>
  </outline>
</glyph>
<glyph name="uni0410" format="2">
  <advance width="1228"/>
  <unicode hex="0410"/>
  <outline>
    <contour>
      <point x="407.0" y="136.0" type="curve" smooth="yes"/>
      <point x="334.0" y="136.0" type="line" smooth="yes"/>
      <point x="308.56" y="136.0"/>
      <point x="293.42878015530675" y="157.30180333690367"/>
      <point x="301.8059152240569" y="181.3229858231993" type="curve" smooth="yes"/>
      <point x="353.1940847759431" y="328.6770141768007" type="line" smooth="yes"/>
      <point x="361.57121984469325" y="352.6981966630963"/>
      <point x="391.56" y="374.0"/>
      <point x="417.0" y="374.0" type="curve" smooth="yes"/>
      <point x="806.0" y="374.0" type="line" smooth="yes"/>
      <point x="831.44" y="374.0"/>
      <point x="861.3488257115316" y="352.6704814714084"/>
      <point x="869.6357993862374" y="328.61804568384764" type="curve" smooth="yes"/>
      <point x="920.3642006137626" y="181.38195431615236" type="line" smooth="yes"/>
      <point x="928.6511742884684" y="157.32951852859162"/>
      <point x="913.44" y="136.0"/>
      <point x="888.0" y="136.0" type="curve" smooth="yes"/>
      <point x="801.0" y="136.0" type="line" smooth="yes"/>
      <point x="778.3330078125" y="136.0"/>
      <point x="762.1669921875" y="131.0"/>
      <point x="752.5" y="121.0" type="curve" smooth="yes"/>
      <point x="742.8330078125" y="111.0"/>
      <point x="738.0" y="93.33329772949219"/>
      <point x="738.0" y="68.0" type="curve" smooth="yes"/>
      <point x="738.0" y="42.66669845581055"/>
      <point x="742.8330078125" y="25.0"/>
      <point x="752.5" y="15.0" type="curve" smooth="yes"/>
      <point x="762.1669921875" y="5.0"/>
      <point x="778.3330078125" y="0.0"/>
      <point x="801.0" y="0.0" type="curve" smooth="yes"/>
      <point x="1155.0" y="0.0" type="line" smooth="yes"/>
      <point x="1177.6700439453125" y="0.0"/>
      <point x="1193.8299560546875" y="5.0"/>
      <point x="1203.5" y="15.0" type="curve" smooth="yes"/>
      <point x="1213.1700439453125" y="25.0"/>
      <point x="1218.0" y="42.66669845581055"/>
      <point x="1218.0" y="68.0" type="curve" smooth="yes"/>
      <point x="1218.0" y="93.33329772949219"/>
      <point x="1213.1700439453125" y="111.0"/>
      <point x="1203.5" y="121.0" type="curve" smooth="yes"/>
      <point x="1193.8299560546875" y="131.0"/>
      <point x="1177.6700439453125" y="136.0"/>
      <point x="1155.0" y="136.0" type="curve" smooth="yes"/>
      <point x="1119.62" y="136.0" type="line" smooth="yes"/>
      <point x="1106.0413999999998" y="136.0"/>
      <point x="1089.9412997529855" y="147.3367661290548"/>
      <point x="1085.3644675595435" y="160.12077899798894" type="curve" smooth="yes"/>
      <point x="741.0" y="1122.0" type="line" smooth="yes"/>
      <point x="733.0" y="1145.3299560546875"/>
      <point x="720.8330078125" y="1162.0"/>
      <point x="704.5" y="1172.0" type="curve" smooth="yes"/>
      <point x="688.1669921875" y="1182.0"/>
      <point x="666.6669921875" y="1187.0"/>
      <point x="640.0" y="1187.0" type="curve" smooth="yes"/>
      <point x="273.0" y="1187.0" type="line" smooth="yes"/>
      <point x="250.33299255371094" y="1187.0"/>
      <point x="234.16700744628906" y="1182.0"/>
      <point x="224.5" y="1172.0" type="curve" smooth="yes"/>
      <point x="214.83299255371094" y="1162.0"/>
      <point x="210.0" y="1144.3299560546875"/>
      <point x="210.0" y="1119.0" type="curve" smooth="yes"/>
      <point x="210.0" y="1093.6700439453125"/>
      <point x="214.83299255371094" y="1076.0"/>
      <point x="224.5" y="1066.0" type="curve" smooth="yes"/>
      <point x="234.16700744628906" y="1056.0"/>
      <point x="250.33299255371094" y="1051.0"/>
      <point x="273.0" y="1051.0" type="curve" smooth="yes"/>
      <point x="412.0" y="1051.0" type="line" smooth="yes"/>
      <point x="437.44" y="1051.0"/>
      <point x="452.32565753818477" y="1029.7854279378823"/>
      <point x="443.6716117833719" y="1005.8626126337924" type="curve" smooth="yes"/>
      <point x="137.00091022614777" y="158.11731980944174" type="line" smooth="yes"/>
      <point x="132.76042780628944" y="146.39514031043763"/>
      <point x="117.9456" y="136.0"/>
      <point x="105.48" y="136.0" type="curve" smooth="yes"/>
      <point x="73.0" y="136.0" type="line" smooth="yes"/>
      <point x="50.33330154418945" y="136.0"/>
      <point x="34.16669845581055" y="131.0"/>
      <point x="24.5" y="121.0" type="curve" smooth="yes"/>
      <point x="14.83329963684082" y="111.0"/>
      <point x="10.0" y="93.33329772949219"/>
      <point x="10.0" y="68.0" type="curve" smooth="yes"/>
      <point x="10.0" y="42.66669845581055"/>
      <point x="14.83329963684082" y="25.0"/>
      <point x="24.5" y="15.0" type="curve" smooth="yes"/>
      <point x="34.16669845581055" y="5.0"/>
      <point x="50.33330154418945" y="0.0"/>
      <point x="73.0" y="0.0" type="curve" smooth="yes"/>
      <point x="407.0" y="0.0" type="line" smooth="yes"/>
      <point x="429.6669921875" y="0.0"/>
      <point x="445.8330078125" y="5.0"/>
      <point x="455.5" y="15.0" type="curve" smooth="yes"/>
      <point x="465.1669921875" y="25.0"/>
      <point x="470.0" y="42.66669845581055"/>
      <point x="470.0" y="68.0" type="curve" smooth="yes"/>
      <point x="470.0" y="93.33329772949219"/>
      <point x="465.1669921875" y="111.0"/>
      <point x="455.5" y="121.0" type="curve" smooth="yes"/>
      <point x="445.8330078125" y="131.0"/>
      <point x="429.6669921875" y="136.0"/>
    </contour>
    <contour>
      <point x="464.0" y="510.0" type="line" smooth="yes"/>
      <point x="438.56" y="510.0"/>
      <point x="423.3701379312046" y="531.3221637474957"/>
      <point x="431.6811445344779" y="555.3663058457355" type="curve" smooth="yes"/>
      <point x="600.393009721143" y="1043.4578516531465" type="line" smooth="yes"/>
      <point x="601.7747145689373" y="1047.4551902769788"/>
      <point x="606.7506" y="1051.0"/>
      <point x="610.98" y="1051.0" type="curve" smooth="yes"/>
      <point x="614.02" y="1051.0" type="line" smooth="yes"/>
      <point x="618.2494" y="1051.0"/>
      <point x="623.2194274043185" y="1047.4531708293748"/>
      <point x="624.5945263921669" y="1043.4535549561167" type="curve" smooth="yes"/>
      <point x="792.3938262125301" y="555.392150639899" type="line" smooth="yes"/>
      <point x="800.6650983198891" y="531.3343108007525"/>
      <point x="785.44" y="510.0"/>
      <point x="760.0" y="510.0" type="curve" smooth="yes"/>
    </contour>
  </outline>
</glyph>
<glyph name="uni0424" format="2">
  <advance width="1228"/>
  <unicode hex="0424"/>
  <outline>
    <contour>
      <point x="1158.0" y="593.0" type="curve" smooth="yes"/>
      <point x="1158.0" y="647.6669921875"/>
      <point x="1148.1700439453125" y="698.1669921875"/>
      <point x="1128.5" y="744.5" type="curve" smooth="yes"/>
      <point x="1108.8299560546875" y="790.8330078125"/>
      <point x="1079.3299560546875" y="831.1669921875"/>
      <point x="1040.0" y="865.5" type="curve" smooth="yes"/>
      <point x="1000.6699829101562" y="899.8330078125"/>
      <point x="951.6669921875" y="927.5"/>
      <point x="893.0" y="948.5" type="curve" smooth="yes"/>
      <point x="834.3330078125" y="969.5"/>
      <point x="766.3330078125" y="982.3330078125"/>
      <point x="715.8311843248135" y="985.380757051001" type="curve" smooth="yes"/>
      <point x="701.6106566326623" y="986.2389558139705"/>
      <point x="689.0" y="999.6336"/>
      <point x="689.0" y="1013.88" type="curve" smooth="yes"/>
      <point x="689.0" y="1024.12" type="line" smooth="yes"/>
      <point x="689.0" y="1038.3663999999999"/>
      <point x="701.6336" y="1051.0"/>
      <point x="715.88" y="1051.0" type="curve" smooth="yes"/>
      <point x="795.0" y="1051.0" type="line" smooth="yes"/>
      <point x="817.6669921875" y="1051.0"/>
      <point x="833.8330078125" y="1056.0"/>
      <point x="843.5" y="1066.0" type="curve" smooth="yes"/>
      <point x="853.1669921875" y="1076.0"/>
      <point x="858.0" y="1093.6700439453125"/>
      <point x="858.0" y="1119.0" type="curve" smooth="yes"/>
      <point x="858.0" y="1144.3299560546875"/>
      <point x="853.1669921875" y="1162.0"/>
      <point x="843.5" y="1172.0" type="curve" smooth="yes"/>
      <point x="833.8330078125" y="1182.0"/>
      <point x="817.6669921875" y="1187.0"/>
      <point x="795.0" y="1187.0" type="curve" smooth="yes"/>
      <point x="433.0" y="1187.0" type="line" smooth="yes"/>
      <point x="410.3330078125" y="1187.0"/>
      <point x="394.1669921875" y="1182.0"/>
      <point x="384.5" y="1172.0" type="curve" smooth="yes"/>
      <point x="374.8330078125" y="1162.0"/>
      <point x="370.0" y="1144.3299560546875"/>
      <point x="370.0" y="1119.0" type="curve" smooth="yes"/>
      <point x="370.0" y="1093.6700439453125"/>
      <point x="374.8330078125" y="1076.0"/>
      <point x="384.5" y="1066.0" type="curve" smooth="yes"/>
      <point x="394.1669921875" y="1056.0"/>
      <point x="410.3330078125" y="1051.0"/>
      <point x="433.0" y="1051.0" type="curve" smooth="yes"/>
      <point x="512.12" y="1051.0" type="line" smooth="yes"/>
      <point x="526.3664" y="1051.0"/>
      <point x="539.0" y="1038.3663999999999"/>
      <point x="539.0" y="1024.12" type="curve" smooth="yes"/>
      <point x="539.0" y="1013.88" type="line" smooth="yes"/>
      <point x="539.0" y="999.6336"/>
      <point x="526.3893433673377" y="986.2389558139705"/>
      <point x="512.1688156751865" y="985.380757051001" type="curve" smooth="yes"/>
      <point x="461.6669921875" y="982.3330078125"/>
      <point x="393.6669921875" y="969.5"/>
      <point x="335.0" y="948.5" type="curve" smooth="yes"/>
      <point x="276.3330078125" y="927.5"/>
      <point x="227.33299255371094" y="899.8330078125"/>
      <point x="188.0" y="865.5" type="curve" smooth="yes"/>
      <point x="148.66700744628906" y="831.1669921875"/>
      <point x="119.16699981689453" y="790.8330078125"/>
      <point x="99.5" y="744.5" type="curve" smooth="yes"/>
      <point x="79.83329772949219" y="698.1669921875"/>
      <point x="70.0" y="647.6669921875"/>
      <point x="70.0" y="593.0" type="curve" smooth="yes"/>
      <point x="70.0" y="537.6669921875"/>
      <point x="79.83329772949219" y="487.0"/>
      <point x="99.5" y="441.0" type="curve" smooth="yes"/>
      <point x="119.16699981689453" y="395.0"/>
      <point x="148.66700744628906" y="354.8330078125"/>
      <point x="188.0" y="320.5" type="curve" smooth="yes"/>
      <point x="227.33299255371094" y="286.1669921875"/>
      <point x="276.3330078125" y="258.5"/>
      <point x="335.0" y="237.5" type="curve" smooth="yes"/>
      <point x="393.6669921875" y="216.5"/>
      <point x="461.6669921875" y="203.66700744628906"/>
      <point x="512.5880532436261" y="200.59394747042364" type="curve" smooth="yes"/>
      <point x="526.5863850245042" y="199.74915531109912"/>
      <point x="539.0" y="186.5638"/>
      <point x="539.0" y="172.54" type="curve" smooth="yes"/>
      <point x="539.0" y="162.46" type="line" smooth="yes"/>
      <point x="539.0" y="148.4362"/>
      <point x="526.5638" y="136.0"/>
      <point x="512.54" y="136.0" type="curve" smooth="yes"/>
      <point x="413.0" y="136.0" type="line" smooth="yes"/>
      <point x="390.3330078125" y="136.0"/>
      <point x="374.1669921875" y="131.0"/>
      <point x="364.5" y="121.0" type="curve" smooth="yes"/>
      <point x="354.8330078125" y="111.0"/>
      <point x="350.0" y="93.33329772949219"/>
      <point x="350.0" y="68.0" type="curve" smooth="yes"/>
      <point x="350.0" y="42.66669845581055"/>
      <point x="354.8330078125" y="25.0"/>
      <point x="364.5" y="15.0" type="curve" smooth="yes"/>
      <point x="374.1669921875" y="5.0"/>
      <point x="390.3330078125" y="0.0"/>
      <point x="413.0" y="0.0" type="curve" smooth="yes"/>
      <point x="815.0" y="0.0" type="line" smooth="yes"/>
      <point x="837.6669921875" y="0.0"/>
      <point x="853.8330078125" y="5.0"/>
      <point x="863.5" y="15.0" type="curve" smooth="yes"/>
      <point x="873.1669921875" y="25.0"/>
      <point x="878.0" y="42.66669845581055"/>
      <point x="878.0" y="68.0" type="curve" smooth="yes"/>
      <point x="878.0" y="93.33329772949219"/>
      <point x="873.1669921875" y="111.0"/>
      <point x="863.5" y="121.0" type="curve" smooth="yes"/>
      <point x="853.8330078125" y="131.0"/>
      <point x="837.6669921875" y="136.0"/>
      <point x="815.0" y="136.0" type="curve" smooth="yes"/>
      <point x="715.46" y="136.0" type="line" smooth="yes"/>
      <point x="701.4362" y="136.0"/>
      <point x="689.0" y="148.4362"/>
      <point x="689.0" y="162.46" type="curve" smooth="yes"/>
      <point x="689.0" y="172.54" type="line" smooth="yes"/>
      <point x="689.0" y="186.5638"/>
      <point x="701.4136149754958" y="199.74915531109912"/>
      <point x="715.4119467563739" y="200.59394747042364" type="curve" smooth="yes"/>
      <point x="766.3330078125" y="203.66700744628906"/>
      <point x="834.3330078125" y="216.5"/>
      <point x="893.0" y="237.5" type="curve" smooth="yes"/>
      <point x="951.6669921875" y="258.5"/>
      <point x="1000.6699829101562" y="286.1669921875"/>
      <point x="1040.0" y="320.5" type="curve" smooth="yes"/>
      <point x="1079.3299560546875" y="354.8330078125"/>
      <point x="1108.8299560546875" y="395.0"/>
      <point x="1128.5" y="441.0" type="curve" smooth="yes"/>
      <point x="1148.1700439453125" y="487.0"/>
      <point x="1158.0" y="537.6669921875"/>
    </contour>
    <contour>
      <point x="228.0" y="593.0" type="curve" smooth="yes"/>
      <point x="228.0" y="661.6669921875"/>
      <point x="253.0" y="717.8330078125"/>
      <point x="303.0" y="761.5" type="curve" smooth="yes"/>
      <point x="353.0" y="805.1669921875"/>
      <point x="431.6669921875" y="831.0"/>
      <point x="493.92013671875003" y="835.64" type="curve" smooth="yes"/>
      <point x="517.8124642578125" y="837.4208"/>
      <point x="539.0" y="817.7536934158788"/>
      <point x="539.0" y="793.7950923742102" type="curve" smooth="yes"/>
      <point x="539.0" y="393.2049076257898" type="line" smooth="yes"/>
      <point x="539.0" y="369.2463065841212"/>
      <point x="517.8124642578125" y="349.5792"/>
      <point x="493.92013671875003" y="351.36" type="curve" smooth="yes"/>
      <point x="431.6669921875" y="356.0"/>
      <point x="353.0" y="381.3330078125"/>
      <point x="303.0" y="424.0" type="curve" smooth="yes"/>
      <point x="253.0" y="466.6669921875"/>
      <point x="228.0" y="523.0"/>
    </contour>
    <contour>
      <point x="1000.0" y="593.0" type="curve" smooth="yes"/>
      <point x="1000.0" y="523.6669921875"/>
      <point x="974.8330078125" y="467.5"/>
      <point x="924.5" y="424.5" type="curve" smooth="yes"/>
      <point x="874.1669921874999" y="381.5"/>
      <point x="795.6669921874999" y="356.0"/>
      <point x="733.80013671875" y="351.36" type="curve" smooth="yes"/>
      <point x="710.0560642578125" y="349.5792"/>
      <point x="689.0" y="369.1152010331213"/>
      <point x="689.0" y="392.925959644939" type="curve" smooth="yes"/>
      <point x="689.0" y="794.0740403550609" type="line" smooth="yes"/>
      <point x="689.0" y="817.8847989668786"/>
      <point x="710.0560642578125" y="837.4208"/>
      <point x="733.80013671875" y="835.64" type="curve" smooth="yes"/>
      <point x="795.6669921875" y="831.0"/>
      <point x="874.1669921875" y="805.1669921875"/>
      <point x="924.5" y="761.5" type="curve" smooth="yes"/>
      <point x="974.8330078125" y="717.8330078125"/>
      <point x="1000.0" y="661.6669921875"/>
    </contour>
  </outline>
</glyph>
<glyph name="uni0449" format="2">
  <advance width="1228"/>
  <unicode hex="0449"/>
  <outline>
    <contour>
      <point x="945.56" y="788.0" type="line" smooth="yes"/>
      <point x="952.6831999999999" y="788.0"/>
      <point x="959.0" y="781.6831999999999"/>
      <point x="959.0" y="774.56" type="curve" smooth="yes"/>
      <point x="959.0" y="184.0" type="line" smooth="yes"/>
      <point x="959.0" y="158.56"/>
      <point x="936.44" y="136.0"/>
      <point x="911.0" y="136.0" type="curve" smooth="yes"/>
      <point x="742.0" y="136.0" type="line" smooth="yes"/>
      <point x="716.56" y="136.0"/>
      <point x="694.0" y="158.56"/>
      <point x="694.0" y="184.0" type="curve" smooth="yes"/>
      <point x="694.0" y="774.56" type="line" smooth="yes"/>
      <point x="694.0" y="781.6831999999999"/>
      <point x="700.3168000000001" y="788.0"/>
      <point x="707.44" y="788.0" type="curve" smooth="yes"/>
      <point x="726.0" y="788.0" type="line" smooth="yes"/>
      <point x="748.6669921875" y="788.0"/>
      <point x="764.8330078125" y="793.0"/>
      <point x="774.5" y="803.0" type="curve" smooth="yes"/>
      <point x="784.1669921875" y="813.0"/>
      <point x="789.0" y="830.6669921875"/>
      <point x="789.0" y="856.0" type="curve" smooth="yes"/>
      <point x="789.0" y="881.3330078125"/>
      <point x="784.1669921875" y="899.0"/>
      <point x="774.5" y="909.0" type="curve" smooth="yes"/>
      <point x="764.8330078125" y="919.0"/>
      <point x="748.6669921875" y="924.0"/>
      <point x="726.0" y="924.0" type="curve" smooth="yes"/>
      <point x="502.0" y="924.0" type="line" smooth="yes"/>
      <point x="479.3330078125" y="924.0"/>
      <point x="463.1669921875" y="919.0"/>
      <point x="453.5" y="909.0" type="curve" smooth="yes"/>
      <point x="443.8330078125" y="899.0"/>
      <point x="439.0" y="881.3330078125"/>
      <point x="439.0" y="856.0" type="curve" smooth="yes"/>
      <point x="439.0" y="830.6669921875"/>
      <point x="443.8330078125" y="813.0"/>
      <point x="453.5" y="803.0" type="curve" smooth="yes"/>
      <point x="463.1669921875" y="793.0"/>
      <point x="479.3330078125" y="788.0"/>
      <point x="502.0" y="788.0" type="curve" smooth="yes"/>
      <point x="526.36" y="788.0" type="line" smooth="yes"/>
      <point x="535.7092" y="788.0"/>
      <point x="544.0" y="779.7092"/>
      <point x="544.0" y="770.36" type="curve" smooth="yes"/>
      <point x="544.0" y="184.0" type="line" smooth="yes"/>
      <point x="544.0" y="158.56"/>
      <point x="521.44" y="136.0"/>
      <point x="496.0" y="136.0" type="curve" smooth="yes"/>
      <point x="317.0" y="136.0" type="line" smooth="yes"/>
      <point x="291.56" y="136.0"/>
      <point x="269.0" y="158.56"/>
      <point x="269.0" y="184.0" type="curve" smooth="yes"/>
      <point x="269.0" y="774.56" type="line" smooth="yes"/>
      <point x="269.0" y="781.6831999999999"/>
      <point x="275.3168" y="788.0"/>
      <point x="282.44" y="788.0" type="curve" smooth="yes"/>
      <point x="301.0" y="788.0" type="line" smooth="yes"/>
      <point x="323.6669921875" y="788.0"/>
      <point x="339.8330078125" y="793.0"/>
      <point x="349.5" y="803.0" type="curve" smooth="yes"/>
      <point x="359.1669921875" y="813.0"/>
      <point x="364.0" y="830.6669921875"/>
      <point x="364.0" y="856.0" type="curve" smooth="yes"/>
      <point x="364.0" y="881.3330078125"/>
      <point x="359.1669921875" y="899.0"/>
      <point x="349.5" y="909.0" type="curve" smooth="yes"/>
      <point x="339.8330078125" y="919.0"/>
      <point x="323.6669921875" y="924.0"/>
      <point x="301.0" y="924.0" type="curve" smooth="yes"/>
      <point x="87.0" y="924.0" type="line" smooth="yes"/>
      <point x="64.33329772949219" y="924.0"/>
      <point x="48.16669845581055" y="919.0"/>
      <point x="38.5" y="909.0" type="curve" smooth="yes"/>
      <point x="28.83329963684082" y="899.0"/>
      <point x="24.0" y="881.3330078125"/>
      <point x="24.0" y="856.0" type="curve" smooth="yes"/>
      <point x="24.0" y="830.6669921875"/>
      <point x="28.83329963684082" y="813.0"/>
      <point x="38.5" y="803.0" type="curve" smooth="yes"/>
      <point x="48.16669845581055" y="793.0"/>
      <point x="64.33329772949219" y="788.0"/>
      <point x="87.0" y="788.0" type="curve" smooth="yes"/>
      <point x="105.56" y="788.0" type="line" smooth="yes"/>
      <point x="112.6832" y="788.0"/>
      <point x="119.0" y="781.6831999999999"/>
      <point x="119.0" y="774.56" type="curve" smooth="yes"/>
      <point x="119.0" y="153.64" type="line" smooth="yes"/>
      <point x="119.0" y="144.2908"/>
      <point x="110.7092" y="136.0"/>
      <point x="101.36" y="136.0" type="curve" smooth="yes"/>
      <point x="77.0" y="136.0" type="line" smooth="yes"/>
      <point x="54.33330154418945" y="136.0"/>
      <point x="38.16669845581055" y="131.0"/>
      <point x="28.5" y="121.0" type="curve" smooth="yes"/>
      <point x="18.83329963684082" y="111.0"/>
      <point x="14.0" y="93.33329772949219"/>
      <point x="14.0" y="68.0" type="curve" smooth="yes"/>
      <point x="14.0" y="42.66669845581055"/>
      <point x="18.83329963684082" y="25.0"/>
      <point x="28.5" y="15.0" type="curve" smooth="yes"/>
      <point x="38.16669845581055" y="5.0"/>
      <point x="54.33330154418945" y="0.0"/>
      <point x="77.0" y="0.0" type="curve" smooth="yes"/>
      <point x="1061.0" y="0.0" type="line" smooth="yes"/>
      <point x="1086.44" y="0.0"/>
      <point x="1109.0" y="-22.56"/>
      <point x="1109.0" y="-48.0" type="curve" smooth="yes"/>
      <point x="1109.0" y="-164.0" type="line" smooth="yes"/>
      <point x="1109.0" y="-187.33299255371094"/>
      <point x="1114.5" y="-204.0"/>
      <point x="1125.5" y="-214.0" type="curve" smooth="yes"/>
      <point x="1136.5" y="-224.0"/>
      <point x="1156.0" y="-229.0"/>
      <point x="1184.0" y="-229.0" type="curve" smooth="yes"/>
      <point x="1212.0" y="-229.0"/>
      <point x="1231.5" y="-224.0"/>
      <point x="1242.5" y="-214.0" type="curve" smooth="yes"/>
      <point x="1253.5" y="-204.0"/>
      <point x="1259.0" y="-187.33299255371094"/>
      <point x="1259.0" y="-164.0" type="curve" smooth="yes"/>
      <point x="1259.0" y="68.0" type="line" smooth="yes"/>
      <point x="1259.0" y="93.33329772949219"/>
      <point x="1254.1700439453125" y="111.0"/>
      <point x="1244.5" y="121.0" type="curve" smooth="yes"/>
      <point x="1234.8299560546875" y="131.0"/>
      <point x="1218.6700439453125" y="136.0"/>
      <point x="1196.0" y="136.0" type="curve" smooth="yes"/>
      <point x="1145.54" y="136.0" type="line" smooth="yes"/>
      <point x="1126.1738" y="136.0"/>
      <point x="1109.0" y="153.1738"/>
      <point x="1109.0" y="172.54" type="curve" smooth="yes"/>
      <point x="1109.0" y="774.56" type="line" smooth="yes"/>
      <point x="1109.0" y="781.6831999999999"/>
      <point x="1115.3168" y="788.0"/>
      <point x="1122.44" y="788.0" type="curve" smooth="yes"/>
      <point x="1141.0" y="788.0" type="line" smooth="yes"/>
      <point x="1163.6700439453125" y="788.0"/>
      <point x="1179.8299560546875" y="793.0"/>
      <point x="1189.5" y="803.0" type="curve" smooth="yes"/>
      <point x="1199.1700439453125" y="813.0"/>
      <point x="1204.0" y="830.6669921875"/>
      <point x="1204.0" y="856.0" type="curve" smooth="yes"/>
      <point x="1204.0" y="881.3330078125"/>
      <point x="1199.1700439453125" y="899.0"/>
      <point x="1189.5" y="909.0" type="curve" smooth="yes"/>
      <point x="1179.8299560546875" y="919.0"/>
      <point x="1163.6700439453125" y="924.0"/>
      <point x="1141.0" y="924.0" type="curve" smooth="yes"/>
      <point x="927.0" y="924.0" type="line" smooth="yes"/>
      <point x="904.3330078125" y="924.0"/>
      <point x="888.1669921875" y="919.0"/>
      <point x="878.5" y="909.0" type="curve" smooth="yes"/>
      <point x="868.8330078125" y="899.0"/>
      <point x="864.0" y="881.3330078125"/>
      <point x="864.0" y="856.0" type="curve" smooth="yes"/>
      <point x="864.0" y="830.6669921875"/>
      <point x="868.8330078125" y="813.0"/>
      <point x="878.5" y="803.0" type="curve" smooth="yes"/>
      <point x="888.1669921875" y="793.0"/>
      <point x="904.3330078125" y="788.0"/>
      <point x="927.0" y="788.0" type="curve" smooth="yes"/>
    </contour>
  </outline>
</glyph>
<glyph name="uni045F" format="2">
  <advance width="1228"/>
  <unicode hex="045F"/>
  <outline>
    <contour>
      <point x="420.0" y="136.0" type="line" smooth="yes"/>
      <point x="394.56" y="136.0"/>
      <point x="372.0" y="158.56"/>
      <point x="372.0" y="184.0" type="curve" smooth="yes"/>
      <point x="372.0" y="749.36" type="line" smooth="yes"/>
      <point x="372.0" y="769.8392"/>
      <point x="390.1608" y="788.0"/>
      <point x="410.64" y="788.0" type="curve" smooth="yes"/>
      <point x="464.0" y="788.0" type="line" smooth="yes"/>
      <point x="486.6669921875" y="788.0"/>
      <point x="502.8330078125" y="793.0"/>
      <point x="512.5" y="803.0" type="curve" smooth="yes"/>
      <point x="522.1669921875" y="813.0"/>
      <point x="527.0" y="830.6669921875"/>
      <point x="527.0" y="856.0" type="curve" smooth="yes"/>
      <point x="527.0" y="881.3330078125"/>
      <point x="522.1669921875" y="899.0"/>
      <point x="512.5" y="909.0" type="curve" smooth="yes"/>
      <point x="502.8330078125" y="919.0"/>
      <point x="486.6669921875" y="924.0"/>
      <point x="464.0" y="924.0" type="curve" smooth="yes"/>
      <point x="140.0" y="924.0" type="line" smooth="yes"/>
      <point x="117.33300018310547" y="924.0"/>
      <point x="101.16699981689453" y="919.0"/>
      <point x="91.5" y="909.0" type="curve" smooth="yes"/>
      <point x="81.83329772949219" y="899.0"/>
      <point x="77.0" y="881.3330078125"/>
      <point x="77.0" y="856.0" type="curve" smooth="yes"/>
      <point x="77.0" y="830.6669921875"/>
      <point x="81.83329772949219" y="813.0"/>
      <point x="91.5" y="803.0" type="curve" smooth="yes"/>
      <point x="101.16699981689453" y="793.0"/>
      <point x="117.33300018310547" y="788.0"/>
      <point x="140.0" y="788.0" type="curve" smooth="yes"/>
      <point x="187.56" y="788.0" type="line" smooth="yes"/>
      <point x="205.8132" y="788.0"/>
      <point x="222.0" y="771.8131999999999"/>
      <point x="222.0" y="753.56" type="curve" smooth="yes"/>
      <point x="222.0" y="174.64" type="line" smooth="yes"/>
      <point x="222.0" y="154.1608"/>
      <point x="203.8392" y="136.0"/>
      <point x="183.36" y="136.0" type="curve" smooth="yes"/>
      <point x="130.0" y="136.0" type="line" smooth="yes"/>
      <point x="107.33300018310547" y="136.0"/>
      <point x="91.16670227050781" y="131.0"/>
      <point x="81.5" y="121.0" type="curve" smooth="yes"/>
      <point x="71.83329772949219" y="111.0"/>
      <point x="67.0" y="93.33329772949219"/>
      <point x="67.0" y="68.0" type="curve" smooth="yes"/>
      <point x="67.0" y="42.66669845581055"/>
      <point x="71.83329772949219" y="25.0"/>
      <point x="81.5" y="15.0" type="curve" smooth="yes"/>
      <point x="91.16670227050781" y="5.0"/>
      <point x="107.33300018310547" y="0.0"/>
      <point x="130.0" y="0.0" type="curve" smooth="yes"/>
      <point x="490.0" y="0.0" type="line" smooth="yes"/>
      <point x="515.44" y="0.0"/>
      <point x="538.0" y="-22.56"/>
      <point x="538.0" y="-48.0" type="curve" smooth="yes"/>
      <point x="538.0" y="-224.0" type="line" smooth="yes"/>
      <point x="538.0" y="-247.33299255371094"/>
      <point x="543.5" y="-264.0"/>
      <point x="554.5" y="-274.0" type="curve" smooth="yes"/>
      <point x="565.5" y="-284.0"/>
      <point x="585.0" y="-289.0"/>
      <point x="613.0" y="-289.0" type="curve" smooth="yes"/>
      <point x="641.0" y="-289.0"/>
      <point x="660.5" y="-284.0"/>
      <point x="671.5" y="-274.0" type="curve" smooth="yes"/>
      <point x="682.5" y="-264.0"/>
      <point x="688.0" y="-247.33299255371094"/>
      <point x="688.0" y="-224.0" type="curve" smooth="yes"/>
      <point x="688.0" y="-48.0" type="line" smooth="yes"/>
      <point x="688.0" y="-22.56"/>
      <point x="710.56" y="0.0"/>
      <point x="736.0" y="0.0" type="curve" smooth="yes"/>
      <point x="1096.0" y="0.0" type="line" smooth="yes"/>
      <point x="1118.6700439453125" y="0.0"/>
      <point x="1134.8299560546875" y="5.0"/>
      <point x="1144.5" y="15.0" type="curve" smooth="yes"/>
      <point x="1154.1700439453125" y="25.0"/>
      <point x="1159.0" y="42.66669845581055"/>
      <point x="1159.0" y="68.0" type="curve" smooth="yes"/>
      <point x="1159.0" y="93.33329772949219"/>
      <point x="1154.1700439453125" y="111.0"/>
      <point x="1144.5" y="121.0" type="curve" smooth="yes"/>
      <point x="1134.8299560546875" y="131.0"/>
      <point x="1118.6700439453125" y="136.0"/>
      <point x="1096.0" y="136.0" type="curve" smooth="yes"/>
      <point x="1042.64" y="136.0" type="line" smooth="yes"/>
      <point x="1022.1608" y="136.0"/>
      <point x="1004.0" y="154.1608"/>
      <point x="1004.0" y="174.64" type="curve" smooth="yes"/>
      <point x="1004.0" y="753.56" type="line" smooth="yes"/>
      <point x="1004.0" y="771.8131999999999"/>
      <point x="1020.1868000000001" y="788.0"/>
      <point x="1038.44" y="788.0" type="curve" smooth="yes"/>
      <point x="1086.0" y="788.0" type="line" smooth="yes"/>
      <point x="1108.6700439453125" y="788.0"/>
      <point x="1124.8299560546875" y="793.0"/>
      <point x="1134.5" y="803.0" type="curve" smooth="yes"/>
      <point x="1144.1700439453125" y="813.0"/>
      <point x="1149.0" y="830.6669921875"/>
      <point x="1149.0" y="856.0" type="curve" smooth="yes"/>
      <point x="1149.0" y="881.3330078125"/>
      <point x="1144.1700439453125" y="899.0"/>
      <point x="1134.5" y="909.0" type="curve" smooth="yes"/>
      <point x="1124.8299560546875" y="919.0"/>
      <point x="1108.6700439453125" y="924.0"/>
      <point x="1086.0" y="924.0" type="curve" smooth="yes"/>
      <point x="762.0" y="924.0" type="line" smooth="yes"/>
      <point x="739.3330078125" y="924.0"/>
      <point x="723.1669921875" y="919.0"/>
      <point x="713.5" y="909.0" type="curve" smooth="yes"/>
      <point x="703.8330078125" y="899.0"/>
      <point x="699.0" y="881.3330078125"/>
      <point x="699.0" y="856.0" type="curve" smooth="yes"/>
      <point x="699.0" y="830.6669921875"/>
      <point x="703.8330078125" y="813.0"/>
      <point x="713.5" y="803.0" type="curve" smooth="yes"/>
      <point x="723.1669921875" y="793.0"/>
      <point x="739.3330078125" y="788.0"/>
      <point x="762.0" y="788.0" type="curve" smooth="yes"/>
      <point x="815.36" y="788.0" type="line" smooth="yes"/>
      <point x="835.8392" y="788.0"/>
      <point x="854.0" y="769.8392"/>
      <point x="854.0" y="749.36" type="curve" smooth="yes"/>
      <point x="854.0" y="184.0" type="line" smooth="yes"/>
      <point x="854.0" y="158.56"/>
      <point x="831.44" y="136.0"/>
      <point x="806.0" y="136.0" type="curve" smooth="yes"/>
    </contour>
  </outline>
</glyph>
<glyph name="uni0469" format="2">
  <advance width="1228"/>
  <unicode hex="0469"/>
  <outline>
    <contour>
      <point x="-12.0" y="61.0" type="curve" smooth="yes"/>
      <point x="-12.0" y="39.0"/>
      <point x="-4.0" y="0.0"/>
      <point x="61.0" y="0.0" type="curve" smooth="yes"/>
      <point x="270.0" y="0.0" type="line" smooth="yes"/>
      <point x="299.0" y="0.0"/>
      <point x="307.0" y="4.0"/>
      <point x="313.96" y="8.64" type="curve" smooth="yes"/>
      <point x="316.6312" y="10.4208"/>
      <point x="321.5120087827409" y="10.66026198253818"/>
      <point x="324.34469953774664" y="9.14949357986847" type="curve" smooth="yes"/>
      <point x="334.0" y="4.0"/>
      <point x="340.0" y="0.0"/>
      <point x="371.0" y="0.0" type="curve" smooth="yes"/>
      <point x="492.0" y="0.0" type="line" smooth="yes"/>
      <point x="528.0" y="0.0"/>
      <point x="535.0" y="10.0"/>
      <point x="549.0" y="23.0" type="curve"/>
      <point x="551.0" y="23.0" type="line"/>
      <point x="563.0" y="10.0"/>
      <point x="575.0" y="0.0"/>
      <point x="610.0" y="0.0" type="curve" smooth="yes"/>
      <point x="729.0" y="0.0" type="line" smooth="yes"/>
      <point x="766.0" y="0.0"/>
      <point x="776.0" y="10.0"/>
      <point x="788.0" y="23.0" type="curve"/>
      <point x="791.0" y="23.0" type="line"/>
      <point x="809.0" y="6.0"/>
      <point x="817.0" y="0.0"/>
      <point x="848.0" y="0.0" type="curve" smooth="yes"/>
      <point x="971.0" y="0.0" type="line" smooth="yes"/>
      <point x="1032.0" y="0.0"/>
      <point x="1042.0" y="39.0"/>
      <point x="1042.0" y="63.0" type="curve" smooth="yes"/>
      <point x="1042.0" y="90.0"/>
      <point x="1030.0" y="127.0"/>
      <point x="971.0" y="127.0" type="curve" smooth="yes"/>
      <point x="953.616626016189" y="127.0" type="line" smooth="yes"/>
      <point x="947.4598142276088" y="127.0"/>
      <point x="940.8156" y="132.3298"/>
      <point x="939.48" y="138.34" type="curve" smooth="yes"/>
      <point x="936.0" y="154.0"/>
      <point x="928.0" y="180.0"/>
      <point x="922.0" y="207.0" type="curve" smooth="yes"/>
      <point x="768.0" y="803.0" type="line" smooth="yes"/>
      <point x="756.0" y="852.0"/>
      <point x="750.0" y="895.0"/>
      <point x="672.0" y="895.0" type="curve" smooth="yes"/>
      <point x="668.0" y="895.0" type="line" smooth="yes"/>
      <point x="645.0" y="895.0"/>
      <point x="608.0" y="893.0"/>
      <point x="586.0" y="852.0" type="curve" smooth="yes"/>
      <point x="575.0" y="829.0"/>
      <point x="461.0" y="375.0"/>
      <point x="461.0" y="369.0" type="curve"/>
      <point x="286.0" y="369.0" type="line" smooth="yes"/>
      <point x="260.56" y="369.0"/>
      <point x="238.0" y="391.56"/>
      <point x="238.0" y="417.0" type="curve" smooth="yes"/>
      <point x="238.0" y="743.4" type="line" smooth="yes"/>
      <point x="238.0" y="750.078"/>
      <point x="243.922" y="756.0"/>
      <point x="250.6" y="756.0" type="curve" smooth="yes"/>
      <point x="268.0" y="756.0" type="line" smooth="yes"/>
      <point x="328.0" y="756.0"/>
      <point x="342.0" y="791.0"/>
      <point x="342.0" y="821.0" type="curve" smooth="yes"/>
      <point x="342.0" y="852.0"/>
      <point x="324.0" y="881.0"/>
      <point x="270.0" y="881.0" type="curve" smooth="yes"/>
      <point x="61.0" y="881.0" type="line" smooth="yes"/>
      <point x="-4.0" y="881.0"/>
      <point x="-12.0" y="842.0"/>
      <point x="-12.0" y="819.0" type="curve" smooth="yes"/>
      <point x="-12.0" y="768.0"/>
      <point x="23.0" y="756.0"/>
      <point x="59.0" y="756.0" type="curve" smooth="yes"/>
      <point x="79.3" y="756.0" type="line" smooth="yes"/>
      <point x="87.091" y="756.0"/>
      <point x="94.0" y="749.091"/>
      <point x="94.0" y="741.3" type="curve" smooth="yes"/>
      <point x="94.0" y="141.7" type="line" smooth="yes"/>
      <point x="94.0" y="133.909"/>
      <point x="87.091" y="127.0"/>
      <point x="79.3" y="127.0" type="curve" smooth="yes"/>
      <point x="59.0" y="127.0" type="line" smooth="yes"/>
      <point x="2.0" y="127.0"/>
      <point x="-12.0" y="94.0"/>
    </contour>
    <contour>
      <point x="628.0" y="369.0" type="line" smooth="yes"/>
      <point x="602.56" y="369.0"/>
      <point x="585.3594390950875" y="390.91415096657977"/>
      <point x="591.4030619044414" y="415.62585312038243" type="curve" smooth="yes"/>
      <point x="658.5969380955586" y="690.3741468796176" type="line" smooth="yes"/>
      <point x="664.6405609049125" y="715.0858490334202"/>
      <point x="675.3594390950875" y="715.0858490334202"/>
      <point x="681.4030619044414" y="690.3741468796176" type="curve" smooth="yes"/>
      <point x="748.5969380955586" y="415.62585312038243" type="line" smooth="yes"/>
      <point x="754.6405609049125" y="390.91415096657977"/>
      <point x="737.44" y="369.0"/>
      <point x="712.0" y="369.0" type="curve" smooth="yes"/>
    </contour>
    <contour>
      <point x="250.6" y="127.0" type="line" smooth="yes"/>
      <point x="243.922" y="127.0"/>
      <point x="238.0" y="132.922"/>
      <point x="238.0" y="139.6" type="curve" smooth="yes"/>
      <point x="238.0" y="198.0" type="line" smooth="yes"/>
      <point x="238.0" y="223.44"/>
      <point x="260.56" y="246.0"/>
      <point x="286.0" y="246.0" type="curve" smooth="yes"/>
      <point x="380.0" y="246.0" type="line" smooth="yes"/>
      <point x="405.44" y="246.0"/>
      <point x="422.3128304979675" y="224.16860739542363"/>
      <point x="415.8996393573777" y="199.55022850090137" type="curve" smooth="yes"/>
      <point x="399.7528320461966" y="137.56732301604495" type="line" smooth="yes"/>
      <point x="398.2938310617124" y="131.96664181754113"/>
      <point x="391.8676" y="127.0"/>
      <point x="386.08" y="127.0" type="curve" smooth="yes"/>
      <point x="371.0" y="127.0" type="line" smooth="yes"/>
      <point x="350.0" y="127.0"/>
      <point x="334.0" y="121.0"/>
      <point x="324.939696961967" y="117.3758787847868" type="curve" smooth="yes"/>
      <point x="321.7916575721245" y="116.1166630288498"/>
      <point x="316.2364" y="116.1844"/>
      <point x="313.12" y="117.52" type="curve" smooth="yes"/>
      <point x="305.0" y="121.0"/>
      <point x="289.0" y="125.0"/>
      <point x="268.0" y="127.0" type="curve"/>
    </contour>
    <contour>
      <point x="746.66" y="126.16" type="curve" smooth="yes"/>
      <point x="741.5402" y="126.6052"/>
      <point x="737.0" y="131.5573328910669"/>
      <point x="737.0" y="136.69645295971677" type="curve" smooth="yes"/>
      <point x="737.0" y="222.48" type="line" smooth="yes"/>
      <point x="737.0" y="234.94559999999998"/>
      <point x="748.0544" y="246.0"/>
      <point x="760.52" y="246.0" type="curve" smooth="yes"/>
      <point x="769.48" y="246.0" type="line" smooth="yes"/>
      <point x="781.9456" y="246.0"/>
      <point x="795.6602162978176" y="235.27046093213573"/>
      <point x="798.6600346762076" y="223.17119347262923" type="curve" smooth="yes"/>
      <point x="821.6439761831065" y="130.46929606147057" type="line" smooth="yes"/>
      <point x="822.36266880606" y="127.57056914889117"/>
      <point x="820.6312" y="123.8156"/>
      <point x="817.96" y="122.48" type="curve" smooth="yes"/>
      <point x="811.0" y="119.0"/>
      <point x="801.0" y="113.0"/>
      <point x="791.0" y="104.0" type="curve"/>
      <point x="788.0" y="104.0" type="line"/>
      <point x="776.0" y="115.0"/>
      <point x="760.0" y="125.0"/>
    </contour>
    <contour>
      <point x="523.04" y="122.48" type="curve" smooth="yes"/>
      <point x="520.3688" y="123.8156"/>
      <point x="518.6172596201158" y="127.57546255289697"/>
      <point x="519.3133183406719" y="130.47970755935523" type="curve" smooth="yes"/>
      <point x="541.6161066759607" y="223.53616923418082" type="line" smooth="yes"/>
      <point x="544.4695701377016" y="235.44199954006498"/>
      <point x="557.857" y="246.0"/>
      <point x="570.1" y="246.0" type="curve" smooth="yes"/>
      <point x="578.9" y="246.0" type="line" smooth="yes"/>
      <point x="591.143" y="246.0"/>
      <point x="602.0" y="235.143"/>
      <point x="602.0" y="222.9" type="curve" smooth="yes"/>
      <point x="602.0" y="136.2781032544373" type="line" smooth="yes"/>
      <point x="602.0" y="131.36070852958554"/>
      <point x="597.6572" y="126.6052"/>
      <point x="592.76" y="126.16" type="curve" smooth="yes"/>
      <point x="580.0" y="125.0"/>
      <point x="565.0" y="115.0"/>
      <point x="551.0" y="104.0" type="curve"/>
      <point x="549.0" y="104.0" type="line"/>
      <point x="541.0" y="113.0"/>
      <point x="530.0" y="119.0"/>
    </contour>
  </outline>
</glyph>
<glyph name="uni046A" format="2">
  <advance width="1228"/>
  <unicode hex="046A"/>
  <outline>
    <contour>
      <point x="16.0" y="61.0" type="curve" smooth="yes"/>
      <point x="16.0" y="10.0"/>
      <point x="53.0" y="0.0"/>
      <point x="96.0" y="0.0" type="curve" smooth="yes"/>
      <point x="213.0" y="0.0" type="line" smooth="yes"/>
      <point x="229.0" y="0.0"/>
      <point x="246.0" y="0.0"/>
      <point x="260.0" y="10.0" type="curve"/>
      <point x="276.0" y="20.0"/>
      <point x="287.0" y="43.0"/>
      <point x="287.0" y="63.0" type="curve" smooth="yes"/>
      <point x="287.0" y="94.0"/>
      <point x="266.0" y="125.0"/>
      <point x="238.74" y="126.16" type="curve" smooth="yes"/>
      <point x="228.2778" y="126.6052"/>
      <point x="222.15626405489613" y="135.73335199655725"/>
      <point x="225.71545543594922" y="145.58159999267502" type="curve" smooth="yes"/>
      <point x="322.0" y="412.0" type="line" smooth="yes"/>
      <point x="367.0" y="535.0"/>
      <point x="367.0" y="575.0"/>
      <point x="430.8" y="581.38" type="curve" smooth="yes"/>
      <point x="455.286" y="583.8286"/>
      <point x="477.0" y="564.177700076298"/>
      <point x="477.0" y="539.5695746304215" type="curve" smooth="yes"/>
      <point x="477.0" y="150.1152676817726" type="line" smooth="yes"/>
      <point x="477.0" y="137.86417581043312"/>
      <point x="466.143" y="126.6052"/>
      <point x="453.9" y="126.16" type="curve" smooth="yes"/>
      <point x="422.0" y="125.0"/>
      <point x="406.0" y="96.0"/>
      <point x="406.0" y="63.0" type="curve" smooth="yes"/>
      <point x="406.0" y="35.0"/>
      <point x="422.0" y="0.0"/>
      <point x="477.0" y="0.0" type="curve" smooth="yes"/>
      <point x="592.0" y="0.0" type="line" smooth="yes"/>
      <point x="655.0" y="0.0"/>
      <point x="666.0" y="37.0"/>
      <point x="666.0" y="63.0" type="curve" smooth="yes"/>
      <point x="666.0" y="86.0"/>
      <point x="657.0" y="127.0"/>
      <point x="620.46" y="127.0" type="curve" smooth="yes"/>
      <point x="606.4362" y="127.0"/>
      <point x="594.0" y="139.4362"/>
      <point x="594.0" y="153.46" type="curve" smooth="yes"/>
      <point x="594.0" y="575.8850605538145" type="line" smooth="yes"/>
      <point x="594.0" y="581.2459784602928"/>
      <point x="598.7376" y="585.6052"/>
      <point x="604.08" y="585.16" type="curve" smooth="yes"/>
      <point x="618.0" y="584.0"/>
      <point x="641.0" y="580.0"/>
      <point x="664.0" y="569.0" type="curve" smooth="yes"/>
      <point x="713.0" y="545.0"/>
      <point x="700.0" y="547.0"/>
      <point x="852.0" y="127.0" type="curve"/>
      <point x="846.0" y="127.0"/>
      <point x="838.0" y="125.0"/>
      <point x="831.0" y="125.0" type="curve"/>
      <point x="801.0" y="117.0"/>
      <point x="784.0" y="90.0"/>
      <point x="784.0" y="61.0" type="curve" smooth="yes"/>
      <point x="784.0" y="31.0"/>
      <point x="807.0" y="0.0"/>
      <point x="858.0" y="0.0" type="curve" smooth="yes"/>
      <point x="981.0" y="0.0" type="line" smooth="yes"/>
      <point x="999.0" y="0.0"/>
      <point x="1055.0" y="2.0"/>
      <point x="1055.0" y="61.0" type="curve" smooth="yes"/>
      <point x="1055.0" y="115.0"/>
      <point x="1018.0" y="127.0"/>
      <point x="995.38" y="127.0" type="curve" smooth="yes"/>
      <point x="986.6985999999999" y="127.0"/>
      <point x="976.6672264028637" y="134.33666200015398"/>
      <point x="974.0366519209865" y="142.60991914926382" type="curve" smooth="yes"/>
      <point x="848.0" y="539.0"/>
      <point x="848.0" y="662.0"/>
      <point x="665.106847433281" y="697.7834428934885" type="curve" smooth="yes"/>
      <point x="640.1402182936421" y="702.6682181599397"/>
      <point x="627.1115281546461" y="727.6381601575114"/>
      <point x="637.3862301162682" y="750.910979058535" type="curve" smooth="yes"/>
      <point x="784.0" y="1083.0" type="line" smooth="yes"/>
      <point x="807.0" y="1135.0"/>
      <point x="834.0" y="1184.0"/>
      <point x="834.0" y="1214.0" type="curve" smooth="yes"/>
      <point x="834.0" y="1237.0"/>
      <point x="819.0" y="1251.0"/>
      <point x="782.0" y="1251.0" type="curve" smooth="yes"/>
      <point x="289.0" y="1251.0" type="line" smooth="yes"/>
      <point x="256.0" y="1251.0"/>
      <point x="254.0" y="1243.0"/>
      <point x="248.0" y="1239.0" type="curve"/>
      <point x="242.0" y="1233.0"/>
      <point x="238.0" y="1227.0"/>
      <point x="238.0" y="1219.0" type="curve" smooth="yes"/>
      <point x="238.0" y="1182.0"/>
      <point x="287.0" y="1081.0"/>
      <point x="440.1348851845216" y="735.9852586806562" type="curve" smooth="yes"/>
      <point x="446.95339603672517" y="720.6230715799085"/>
      <point x="438.3924" y="704.039"/>
      <point x="421.92" y="700.7" type="curve" smooth="yes"/>
      <point x="379.0" y="692.0"/>
      <point x="305.0" y="657.0"/>
      <point x="256.0" y="594.0" type="curve" smooth="yes"/>
      <point x="250.479248046875" y="587.0545654296875"/>
      <point x="246.7345733642578" y="583.5661010742188"/>
      <point x="243.4160614013672" y="579.7108154296875" type="curve" smooth="yes"/>
      <point x="228.10047912597656" y="561.91796875"/>
      <point x="221.8619842529297" y="536.3118286132812"/>
      <point x="96.19145148528153" y="140.21103078667716" type="curve" smooth="yes"/>
      <point x="93.96998219808232" y="133.20918446973826"/>
      <point x="85.4858" y="127.0"/>
      <point x="78.14" y="127.0" type="curve" smooth="yes"/>
      <point x="59.0" y="127.0"/>
      <point x="16.0" y="119.0"/>
    </contour>
    <contour>
      <point x="404.27975176408313" y="1080.0421659778904" type="line" smooth="yes"/>
      <point x="394.0614833291191" y="1103.3398180096085"/>
      <point x="407.56" y="1124.0"/>
      <point x="433.0" y="1124.0" type="curve" smooth="yes"/>
      <point x="638.0" y="1124.0" type="line" smooth="yes"/>
      <point x="663.44" y="1124.0"/>
      <point x="676.9892622155661" y="1103.3176354209636"/>
      <point x="666.8282174799278" y="1079.9949689807738" type="curve" smooth="yes"/>
      <point x="537.0" y="782.0" type="line"/>
      <point x="535.0" y="782.0" type="line"/>
    </contour>
  </outline>
</glyph>
<glyph name="uni046C" format="2">
  <advance width="1228"/>
  <unicode hex="046C"/>
  <outline>
    <contour>
      <point x="0.0" y="63.0" type="curve" smooth="yes"/>
      <point x="0.0" y="31.0"/>
      <point x="16.0" y="0.0"/>
      <point x="74.0" y="0.0" type="curve" smooth="yes"/>
      <point x="219.0" y="0.0" type="line" smooth="yes"/>
      <point x="272.0" y="0.0"/>
      <point x="285.0" y="41.0"/>
      <point x="285.0" y="63.0" type="curve" smooth="yes"/>
      <point x="285.0" y="94.0"/>
      <point x="264.0" y="127.0"/>
      <point x="217.0" y="127.0" type="curve" smooth="yes"/>
      <point x="215.0" y="127.0" type="line"/>
      <point x="215.0" y="540.0" type="line" smooth="yes"/>
      <point x="215.0" y="565.44"/>
      <point x="237.56" y="588.0"/>
      <point x="263.0" y="588.0" type="curve" smooth="yes"/>
      <point x="438.4843864337427" y="588.0" type="line" smooth="yes"/>
      <point x="449.3576616238591" y="588.0"/>
      <point x="455.2494" y="579.117"/>
      <point x="451.02" y="569.1" type="curve" smooth="yes"/>
      <point x="440.0" y="543.0" type="line"/>
      <point x="426.0" y="479.0" type="line"/>
      <point x="352.97305294270444" y="140.76992941884149" type="line" smooth="yes"/>
      <point x="351.3973348830711" y="133.4718668268555"/>
      <point x="343.4858" y="125.8156"/>
      <point x="336.14" y="124.48" type="curve" smooth="yes"/>
      <point x="317.0" y="121.0"/>
      <point x="297.0" y="96.0"/>
      <point x="297.0" y="63.0" type="curve" smooth="yes"/>
      <point x="297.0" y="37.0"/>
      <point x="307.0" y="0.0"/>
      <point x="373.0" y="0.0" type="curve" smooth="yes"/>
      <point x="395.0" y="0.0" type="line" smooth="yes"/>
      <point x="465.0" y="0.0"/>
      <point x="467.0" y="45.0"/>
      <point x="467.0" y="78.0" type="curve" smooth="yes"/>
      <point x="467.0" y="102.0"/>
      <point x="549.0" y="408.0"/>
      <point x="571.0" y="498.0" type="curve" smooth="yes"/>
      <point x="575.0" y="514.0"/>
      <point x="580.0" y="547.0"/>
      <point x="603.78" y="562.08" type="curve" smooth="yes"/>
      <point x="612.9066" y="567.8676"/>
      <point x="621.0" y="563.4164383802263"/>
      <point x="621.0" y="552.6094433621836" type="curve" smooth="yes"/>
      <point x="621.0" y="140.446560898609" type="line" smooth="yes"/>
      <point x="621.0" y="133.31988362234623"/>
      <point x="614.8806" y="125.4208"/>
      <point x="607.98" y="123.64" type="curve" smooth="yes"/>
      <point x="590.0" y="119.0"/>
      <point x="567.0" y="98.0"/>
      <point x="567.0" y="63.0" type="curve" smooth="yes"/>
      <point x="567.0" y="12.0"/>
      <point x="602.0" y="0.0"/>
      <point x="645.0" y="0.0" type="curve" smooth="yes"/>
      <point x="719.0" y="0.0" type="line" smooth="yes"/>
      <point x="776.0" y="0.0"/>
      <point x="791.0" y="41.0"/>
      <point x="791.0" y="66.0" type="curve" smooth="yes"/>
      <point x="791.0" y="90.0"/>
      <point x="774.0" y="117.0"/>
      <point x="752.54" y="122.8" type="curve" smooth="yes"/>
      <point x="744.3038" y="125.026"/>
      <point x="737.0" y="134.5658555656317"/>
      <point x="737.0" y="143.09756503325892" type="curve" smooth="yes"/>
      <point x="737.0" y="573.0" type="line"/>
      <point x="744.5508422851562" y="567.3807373046875"/>
      <point x="750.2824096679688" y="564.0125122070312"/>
      <point x="755.2451171875" y="559.7493286132812" type="curve" smooth="yes"/>
      <point x="778.5435791015625" y="539.7347412109375"/>
      <point x="784.8965454101562" y="499.9942321777344"/>
      <point x="883.0" y="115.0" type="curve" smooth="yes"/>
      <point x="886.4351196289062" y="100.76885986328125"/>
      <point x="887.40185546875" y="86.59793090820312"/>
      <point x="888.3080444335938" y="73.31442260742188" type="curve" smooth="yes"/>
      <point x="891.0951538085938" y="32.46006774902344"/>
      <point x="893.3096313476562" y="0.0"/>
      <point x="965.0" y="0.0" type="curve" smooth="yes"/>
      <point x="989.0" y="0.0" type="line" smooth="yes"/>
      <point x="1049.0" y="2.0"/>
      <point x="1059.0" y="39.0"/>
      <point x="1059.0" y="63.0" type="curve" smooth="yes"/>
      <point x="1059.0" y="76.0"/>
      <point x="1057.0" y="117.0"/>
      <point x="1020.7109895981686" y="124.11549223565322" type="curve" smooth="yes"/>
      <point x="1012.9141651111393" y="125.64428135075701"/>
      <point x="1004.6182" y="133.909"/>
      <point x="1003.06" y="141.7" type="curve" smooth="yes"/>
      <point x="999.0" y="162.0"/>
      <point x="975.0" y="270.0"/>
      <point x="930.0" y="485.0" type="curve" smooth="yes"/>
      <point x="913.0" y="563.0"/>
      <point x="891.0" y="655.0"/>
      <point x="752.0" y="702.0" type="curve"/>
      <point x="752.0" y="702.0"/>
      <point x="897.0" y="1178.0"/>
      <point x="897.0" y="1208.0" type="curve" smooth="yes"/>
      <point x="897.0" y="1235.0"/>
      <point x="881.0" y="1251.0"/>
      <point x="834.0" y="1251.0" type="curve" smooth="yes"/>
      <point x="516.0" y="1251.0" type="line" smooth="yes"/>
      <point x="496.0" y="1251.0"/>
      <point x="459.0" y="1247.0"/>
      <point x="459.0" y="1208.0" type="curve" smooth="yes"/>
      <point x="459.0" y="1186.0"/>
      <point x="469.0" y="1155.0"/>
      <point x="588.1691442638829" y="758.964197258374" type="curve" smooth="yes"/>
      <point x="595.4994978040249" y="734.6031727114358"/>
      <point x="579.44" y="713.0"/>
      <point x="554.0" y="713.0" type="curve" smooth="yes"/>
      <point x="263.0" y="713.0" type="line" smooth="yes"/>
      <point x="237.56" y="713.0"/>
      <point x="215.0" y="735.56"/>
      <point x="215.0" y="761.0" type="curve" smooth="yes"/>
      <point x="215.0" y="1100.06" type="line" smooth="yes"/>
      <point x="215.0" y="1112.7482"/>
      <point x="226.2518" y="1124.0"/>
      <point x="238.94" y="1124.0" type="curve" smooth="yes"/>
      <point x="272.0" y="1124.0"/>
      <point x="285.0" y="1163.0"/>
      <point x="285.0" y="1188.0" type="curve" smooth="yes"/>
      <point x="285.0" y="1221.0"/>
      <point x="262.0" y="1251.0"/>
      <point x="217.0" y="1251.0" type="curve" smooth="yes"/>
      <point x="74.0" y="1251.0" type="line" smooth="yes"/>
      <point x="16.0" y="1251.0"/>
      <point x="0.0" y="1219.0"/>
      <point x="0.0" y="1188.0" type="curve" smooth="yes"/>
      <point x="0.0" y="1159.0"/>
      <point x="14.0" y="1124.0"/>
      <point x="68.0" y="1124.0" type="curve" smooth="yes"/>
      <point x="72.0" y="1124.0" type="line"/>
      <point x="72.0" y="127.0" type="line"/>
      <point x="68.0" y="127.0" type="line" smooth="yes"/>
      <point x="14.0" y="127.0"/>
      <point x="0.0" y="92.0"/>
    </contour>
    <contour>
      <point x="601.88" y="1097.54" type="curve" smooth="yes"/>
      <point x="598.7636" y="1111.5638"/>
      <point x="608.7395665310872" y="1124.0"/>
      <point x="623.105460704441" y="1124.0" type="curve" smooth="yes"/>
      <point x="734.3628510877116" y="1124.0" type="line" smooth="yes"/>
      <point x="749.0105400112245" y="1124.0"/>
      <point x="758.2494" y="1111.5638"/>
      <point x="754.02" y="1097.54" type="curve" smooth="yes"/>
      <point x="743.0" y="1061.0"/>
      <point x="725.0" y="999.0"/>
      <point x="709.0" y="936.0" type="curve" smooth="yes"/>
      <point x="696.0" y="893.0"/>
      <point x="686.0" y="850.0"/>
      <point x="678.0" y="805.0" type="curve"/>
      <point x="664.0" y="903.0"/>
      <point x="610.0" y="1061.0"/>
    </contour>
  </outline>
</glyph>
<glyph name="uni0476" format="2">
  <advance width="1228"/>
  <unicode hex="0476"/>
  <outline>
    <contour>
      <point x="33.0" y="1186.0" type="curve" smooth="yes"/>
      <point x="33.0" y="1155.0"/>
      <point x="53.0" y="1124.0"/>
      <point x="106.0" y="1124.0" type="curve" smooth="yes"/>
      <point x="122.82" y="1124.0" type="line" smooth="yes"/>
      <point x="129.2754" y="1124.0"/>
      <point x="136.25308158736095" y="1118.4142295343063"/>
      <point x="137.66613103693822" y="1112.1153819878855" type="curve" smooth="yes"/>
      <point x="371.0" y="72.0" type="line" smooth="yes"/>
      <point x="383.0" y="8.0"/>
      <point x="399.0" y="-16.0"/>
      <point x="463.0" y="-16.0" type="curve" smooth="yes"/>
      <point x="498.0" y="-16.0" type="line" smooth="yes"/>
      <point x="549.0" y="-16.0"/>
      <point x="575.0" y="-2.0"/>
      <point x="588.0" y="57.0" type="curve" smooth="yes"/>
      <point x="807.0" y="1034.0" type="line" smooth="yes"/>
      <point x="821.0" y="1092.0"/>
      <point x="813.0" y="1108.0"/>
      <point x="856.0" y="1141.0" type="curve"/>
      <point x="854.0" y="1133.0"/>
      <point x="854.0" y="1126.0"/>
      <point x="854.0" y="1120.0" type="curve" smooth="yes"/>
      <point x="854.0" y="1069.0"/>
      <point x="893.0" y="1030.0"/>
      <point x="946.0" y="1030.0" type="curve" smooth="yes"/>
      <point x="995.0" y="1030.0"/>
      <point x="1036.0" y="1065.0"/>
      <point x="1036.0" y="1122.0" type="curve" smooth="yes"/>
      <point x="1036.0" y="1196.0"/>
      <point x="979.0" y="1274.0"/>
      <point x="887.0" y="1274.0" type="curve" smooth="yes"/>
      <point x="780.0" y="1274.0"/>
      <point x="705.0" y="1188.0"/>
      <point x="680.0" y="1116.0" type="curve" smooth="yes"/>
      <point x="670.0" y="1090.0"/>
      <point x="489.0" y="291.0"/>
      <point x="481.0" y="143.0" type="curve"/>
      <point x="459.0" y="350.0"/>
      <point x="283.0" y="1124.0"/>
      <point x="283.0" y="1124.0" type="curve"/>
      <point x="313.0" y="1124.0" type="line" smooth="yes"/>
      <point x="371.0" y="1124.0"/>
      <point x="385.0" y="1159.0"/>
      <point x="385.0" y="1188.0" type="curve" smooth="yes"/>
      <point x="385.0" y="1221.0"/>
      <point x="369.0" y="1251.0"/>
      <point x="311.0" y="1251.0" type="curve" smooth="yes"/>
      <point x="104.0" y="1251.0" type="line" smooth="yes"/>
      <point x="45.0" y="1251.0"/>
      <point x="33.0" y="1212.0"/>
    </contour>
    <contour>
      <point x="6.0" y="1581.0" type="curve" smooth="yes"/>
      <point x="6.0" y="1536.0"/>
      <point x="39.0" y="1518.0"/>
      <point x="72.0" y="1507.0" type="curve" smooth="yes"/>
      <point x="260.0" y="1446.0"/>
      <point x="354.0" y="1405.0"/>
      <point x="383.0" y="1405.0" type="curve" smooth="yes"/>
      <point x="436.0" y="1405.0"/>
      <point x="446.0" y="1468.0"/>
      <point x="448.9" y="1474.38" type="curve" smooth="yes"/>
      <point x="450.013" y="1476.8286"/>
      <point x="453.2577818966435" y="1478.2308655077368"/>
      <point x="455.8037912694542" y="1477.3635436334825" type="curve" smooth="yes"/>
      <point x="633.0" y="1417.0"/>
      <point x="657.0" y="1405.0"/>
      <point x="680.0" y="1405.0" type="curve" smooth="yes"/>
      <point x="733.0" y="1405.0"/>
      <point x="745.0" y="1473.0"/>
      <point x="745.0" y="1489.0" type="curve" smooth="yes"/>
      <point x="745.0" y="1526.0"/>
      <point x="715.0" y="1542.0"/>
      <point x="684.0" y="1550.0" type="curve"/>
      <point x="557.0" y="1591.0"/>
      <point x="401.0" y="1653.0"/>
      <point x="373.0" y="1653.0" type="curve" smooth="yes"/>
      <point x="356.0" y="1653.0"/>
      <point x="309.0" y="1647.0"/>
      <point x="304.36" y="1608.72" type="curve" smooth="yes"/>
      <point x="302.5792" y="1594.0284"/>
      <point x="288.5705787944403" y="1585.212192741884"/>
      <point x="274.55442296689415" y="1589.9621122167748" type="curve" smooth="yes"/>
      <point x="121.0" y="1642.0"/>
      <point x="96.0" y="1653.0"/>
      <point x="76.0" y="1653.0" type="curve" smooth="yes"/>
      <point x="37.0" y="1653.0"/>
      <point x="6.0" y="1618.0"/>
    </contour>
  </outline>
</glyph>
<glyph name="uni0478" format="2">
  <advance width="1228"/>
  <unicode hex="0478"/>
  <outline>
    <contour>
      <point x="41.0" y="283.0" type="curve" smooth="yes"/>
      <point x="41.0" y="121.0"/>
      <point x="248.0" y="-23.0"/>
      <point x="535.0" y="-23.0" type="curve" smooth="yes"/>
      <point x="797.0" y="-23.0"/>
      <point x="1032.0" y="100.0"/>
      <point x="1032.0" y="283.0" type="curve" smooth="yes"/>
      <point x="1032.0" y="455.0"/>
      <point x="850.0" y="596.0"/>
      <point x="657.6991031756224" y="617.6338508927424" type="curve" smooth="yes"/>
      <point x="632.4185784925426" y="620.4779099195889"/>
      <point x="621.2139272557434" y="642.5755315509667"/>
      <point x="633.8594196930711" y="664.6500671297165" type="curve" smooth="yes"/>
      <point x="885.9351941173383" y="1104.684781368594" type="line" smooth="yes"/>
      <point x="891.799541235149" y="1114.9218472432392"/>
      <point x="907.4621999999999" y="1124.0"/>
      <point x="919.26" y="1124.0" type="curve" smooth="yes"/>
      <point x="950.0" y="1124.0" type="line" smooth="yes"/>
      <point x="977.0" y="1124.0"/>
      <point x="1028.0" y="1126.0"/>
      <point x="1028.0" y="1188.0" type="curve" smooth="yes"/>
      <point x="1028.0" y="1221.0"/>
      <point x="1012.0" y="1251.0"/>
      <point x="954.0" y="1251.0" type="curve" smooth="yes"/>
      <point x="719.0" y="1251.0" type="line" smooth="yes"/>
      <point x="655.0" y="1251.0"/>
      <point x="645.0" y="1208.0"/>
      <point x="645.0" y="1188.0" type="curve" smooth="yes"/>
      <point x="645.0" y="1167.0"/>
      <point x="655.0" y="1147.0"/>
      <point x="674.0" y="1135.0" type="curve"/>
      <point x="688.1209106445312" y="1123.5267333984375"/>
      <point x="706.1362915039062" y="1123.737060546875"/>
      <point x="723.9216918945312" y="1123.94482421875" type="curve" smooth="yes"/>
      <point x="726.2884521484375" y="1123.972412109375"/>
      <point x="728.651123046875" y="1124.0"/>
      <point x="731.0" y="1124.0" type="curve"/>
      <point x="569.0" y="838.0" type="line"/>
      <point x="551.6" y="797.4" type="line" smooth="yes"/>
      <point x="544.922" y="781.818"/>
      <point x="532.4274476537731" y="781.520679112238"/>
      <point x="525.0158460718578" y="796.7674023664638" type="curve" smooth="yes"/>
      <point x="504.0" y="840.0" type="line"/>
      <point x="344.0" y="1124.0" type="line"/>
      <point x="352.0" y="1124.0" type="line" smooth="yes"/>
      <point x="379.0" y="1124.0"/>
      <point x="428.0" y="1128.0"/>
      <point x="428.0" y="1190.0" type="curve" smooth="yes"/>
      <point x="428.0" y="1221.0"/>
      <point x="410.0" y="1251.0"/>
      <point x="356.0" y="1251.0" type="curve" smooth="yes"/>
      <point x="119.0" y="1251.0" type="line" smooth="yes"/>
      <point x="68.0" y="1251.0"/>
      <point x="47.0" y="1225.0"/>
      <point x="47.0" y="1188.0" type="curve" smooth="yes"/>
      <point x="47.0" y="1135.0"/>
      <point x="84.0" y="1124.0"/>
      <point x="123.0" y="1124.0" type="curve" smooth="yes"/>
      <point x="154.9" y="1124.0" type="line" smooth="yes"/>
      <point x="167.143" y="1124.0"/>
      <point x="183.42494498448022" y="1114.5955105978387"/>
      <point x="189.54243613719197" y="1103.990448080508" type="curve" smooth="yes"/>
      <point x="443.0157171175232" y="664.5782897028405" type="line" smooth="yes"/>
      <point x="455.7273870452359" y="642.541796160335"/>
      <point x="444.56028347478986" y="620.6734742064164"/>
      <point x="419.2559222867869" y="618.0499451200347" type="curve" smooth="yes"/>
      <point x="168.0" y="592.0"/>
      <point x="41.0" y="412.0"/>
    </contour>
    <contour>
      <point x="184.0" y="293.0" type="curve" smooth="yes"/>
      <point x="184.0" y="401.0"/>
      <point x="322.0" y="479.0"/>
      <point x="430.2914285310299" y="491.6962364484656" type="curve" smooth="yes"/>
      <point x="449.74697140958403" y="493.9772311307788"/>
      <point x="467.0" y="478.6288"/>
      <point x="467.0" y="459.04" type="curve" smooth="yes"/>
      <point x="467.0" y="431.1" type="line" smooth="yes"/>
      <point x="467.0" y="418.857"/>
      <point x="456.143" y="408.0"/>
      <point x="443.9" y="408.0" type="curve" smooth="yes"/>
      <point x="412.0" y="408.0" type="line" smooth="yes"/>
      <point x="383.0" y="408.0"/>
      <point x="332.0" y="406.0"/>
      <point x="332.0" y="346.0" type="curve" smooth="yes"/>
      <point x="332.0" y="289.0"/>
      <point x="377.0" y="283.0"/>
      <point x="412.0" y="283.0" type="curve" smooth="yes"/>
      <point x="524.0" y="283.0" type="line" smooth="yes"/>
      <point x="526.0" y="283.0"/>
      <point x="530.0" y="281.0"/>
      <point x="532.0" y="281.0" type="curve" smooth="yes"/>
      <point x="565.0" y="281.0"/>
      <point x="610.0" y="285.0"/>
      <point x="610.0" y="356.0" type="curve" smooth="yes"/>
      <point x="610.0" y="448.0" type="line" smooth="yes"/>
      <point x="610.0" y="473.44"/>
      <point x="632.3763610534658" y="493.127359053947"/>
      <point x="657.6092788371612" y="489.8879979871212" type="curve" smooth="yes"/>
      <point x="758.0" y="477.0"/>
      <point x="889.0" y="399.0"/>
      <point x="889.0" y="293.0" type="curve" smooth="yes"/>
      <point x="889.0" y="188.0"/>
      <point x="735.0" y="102.0"/>
      <point x="537.0" y="102.0" type="curve" smooth="yes"/>
      <point x="354.0" y="102.0"/>
      <point x="184.0" y="180.0"/>
    </contour>
  </outline>
</glyph>
<glyph name="uni0482" format="2">
  <advance width="1228"/>
  <unicode hex="0482"/>
  <outline>
    <contour>
      <point x="133.0" y="-119.0" type="curve" smooth="yes"/>
      <point x="133.0" y="-193.0"/>
      <point x="188.0" y="-211.0"/>
      <point x="215.0" y="-211.0" type="curve" smooth="yes"/>
      <point x="260.0" y="-211.0"/>
      <point x="299.0" y="-176.0"/>
      <point x="299.0" y="-129.0" type="curve" smooth="yes"/>
      <point x="299.0" y="-90.0"/>
      <point x="272.0" y="-68.0"/>
      <point x="268.0" y="-63.0" type="curve"/>
      <point x="281.0" y="-29.0"/>
      <point x="303.0" y="33.0"/>
      <point x="359.84000000000003" y="60.260000000000005" type="curve" smooth="yes"/>
      <point x="381.6548" y="70.7222"/>
      <point x="416.17093167672965" y="64.82906832327032"/>
      <point x="433.27857803559505" y="47.72142196440494" type="curve" smooth="yes"/>
      <point x="514.0" y="-33.0"/>
      <point x="524.0" y="-49.0"/>
      <point x="555.0" y="-49.0" type="curve" smooth="yes"/>
      <point x="588.0" y="-49.0"/>
      <point x="618.0" y="-16.0"/>
      <point x="618.0" y="16.0" type="curve" smooth="yes"/>
      <point x="618.0" y="47.0"/>
      <point x="592.0" y="68.0"/>
      <point x="535.0" y="125.0" type="curve"/>
      <point x="539.0" y="127.0"/>
      <point x="657.0" y="152.0"/>
      <point x="709.0" y="152.0" type="curve" smooth="yes"/>
      <point x="719.0" y="152.0"/>
      <point x="725.0" y="150.0"/>
      <point x="729.0" y="147.0" type="curve"/>
      <point x="768.0" y="129.0"/>
      <point x="842.0" y="16.0"/>
      <point x="891.0" y="16.0" type="curve" smooth="yes"/>
      <point x="924.0" y="16.0"/>
      <point x="954.0" y="47.0"/>
      <point x="954.0" y="80.0" type="curve" smooth="yes"/>
      <point x="954.0" y="113.0"/>
      <point x="924.0" y="135.0"/>
      <point x="906.7044870771908" y="153.67915395663397" type="curve" smooth="yes"/>
      <point x="902.6211089262797" y="158.08920235961796"/>
      <point x="904.3298" y="162.0"/>
      <point x="910.34" y="162.0" type="curve" smooth="yes"/>
      <point x="926.0" y="162.0" type="line" smooth="yes"/>
      <point x="987.0" y="162.0"/>
      <point x="997.0" y="201.0"/>
      <point x="997.0" y="225.0" type="curve" smooth="yes"/>
      <point x="997.0" y="250.0"/>
      <point x="987.0" y="287.0"/>
      <point x="920.0" y="287.0" type="curve" smooth="yes"/>
      <point x="850.0" y="287.0"/>
      <point x="825.0" y="285.0"/>
      <point x="803.0" y="285.0" type="curve" smooth="yes"/>
      <point x="774.0" y="285.0"/>
      <point x="770.0" y="291.0"/>
      <point x="739.0" y="322.0" type="curve" smooth="yes"/>
      <point x="645.0" y="416.0"/>
      <point x="641.0" y="422.0"/>
      <point x="612.0" y="422.0" type="curve" smooth="yes"/>
      <point x="575.0" y="422.0"/>
      <point x="549.0" y="383.0"/>
      <point x="549.0" y="356.0" type="curve" smooth="yes"/>
      <point x="549.0" y="326.0"/>
      <point x="584.0" y="297.0"/>
      <point x="601.4" y="280.18" type="curve" smooth="yes"/>
      <point x="608.078" y="273.7246"/>
      <point x="605.9045018182221" y="266.48209409091663"/>
      <point x="596.7755357834512" y="264.7704129593971" type="curve" smooth="yes"/>
      <point x="518.0" y="250.0" type="line"/>
      <point x="468.12" y="236.66" type="line" smooth="yes"/>
      <point x="448.9764" y="231.5402"/>
      <point x="420.0095972356511" y="239.84686010465958"/>
      <point x="406.4885047567044" y="254.333744903531" type="curve" smooth="yes"/>
      <point x="334.0" y="332.0"/>
      <point x="305.0" y="358.0"/>
      <point x="276.0" y="358.0" type="curve" smooth="yes"/>
      <point x="244.0" y="358.0"/>
      <point x="213.0" y="328.0"/>
      <point x="213.0" y="293.0" type="curve" smooth="yes"/>
      <point x="213.0" y="260.0"/>
      <point x="240.0" y="240.0"/>
      <point x="280.02" y="200.56" type="curve" smooth="yes"/>
      <point x="295.3794" y="185.4232"/>
      <point x="292.46232637341467" y="162.39747982972466"/>
      <point x="273.8134603689674" y="151.56910602069075" type="curve" smooth="yes"/>
      <point x="154.0" y="82.0"/>
      <point x="133.0" y="-57.0"/>
    </contour>
  </outline>
</glyph>
<glyph name="uni0484" format="2">
  <unicode hex="0484"/>
  <outline>
    <contour>
      <point x="203.875" y="1049.0" type="curve" smooth="yes"/>
      <point x="203.875" y="1028.0"/>
      <point x="213.91880053908358" y="989.0"/>
      <point x="249.40689577717882" y="989.0" type="curve" smooth="yes"/>
      <point x="252.0852425876011" y="989.0" type="line" smooth="yes"/>
      <point x="292.2604447439353" y="989.0"/>
      <point x="296.27796495956875" y="1022.0"/>
      <point x="302.97383198562443" y="1049.0" type="curve" smooth="yes"/>
      <point x="329.0877133872417" y="1149.0"/>
      <point x="412.786051212938" y="1204.0"/>
      <point x="533.3116576819407" y="1204.0" type="curve" smooth="yes"/>
      <point x="647.1413971248877" y="1204.0"/>
      <point x="696.6908131176999" y="1161.0"/>
      <point x="724.1438679245283" y="1126.0" type="curve" smooth="yes"/>
      <point x="759.6319631626236" y="1079.0"/>
      <point x="827.9298068283917" y="905.0"/>
      <point x="906.2714510332435" y="905.0" type="curve" smooth="yes"/>
      <point x="932.3853324348607" y="905.0"/>
      <point x="949.125" y="930.0"/>
      <point x="949.125" y="967.0" type="curve" smooth="yes"/>
      <point x="949.125" y="1028.0"/>
      <point x="915.6456648697215" y="1022.0"/>
      <point x="892.8797169811321" y="1051.0" type="curve" smooth="yes"/>
      <point x="817.2164195867026" y="1143.0"/>
      <point x="797.798405211141" y="1331.0"/>
      <point x="533.3116576819407" y="1331.0" type="curve" smooth="yes"/>
      <point x="261.45945642407906" y="1331.0"/>
      <point x="203.875" y="1104.0"/>
    </contour>
  </outline>
</glyph>
<glyph name="uni048D" format="2">
  <advance width="1228"/>
  <unicode hex="048D"/>
  <outline>
    <contour>
      <point x="12.0" y="1245.0" type="curve" smooth="yes"/>
      <point x="12.0" y="1212.0"/>
      <point x="29.0" y="1182.0"/>
      <point x="86.0" y="1182.0" type="curve" smooth="yes"/>
      <point x="175.0" y="1182.0" type="line" smooth="yes"/>
      <point x="200.44" y="1182.0"/>
      <point x="223.0" y="1159.44"/>
      <point x="223.0" y="1134.0" type="curve" smooth="yes"/>
      <point x="223.0" y="921.32" type="line" smooth="yes"/>
      <point x="223.0" y="899.9504000000001"/>
      <point x="204.0496" y="881.0"/>
      <point x="182.68" y="881.0" type="curve" smooth="yes"/>
      <point x="127.0" y="881.0" type="line" smooth="yes"/>
      <point x="123.0" y="881.0"/>
      <point x="117.0" y="883.0"/>
      <point x="111.0" y="883.0" type="curve" smooth="yes"/>
      <point x="82.0" y="883.0"/>
      <point x="37.0" y="877.0"/>
      <point x="37.0" y="819.0" type="curve" smooth="yes"/>
      <point x="37.0" y="760.0"/>
      <point x="84.0" y="756.0"/>
      <point x="113.0" y="756.0" type="curve" smooth="yes"/>
      <point x="176.8" y="756.0" type="line" smooth="yes"/>
      <point x="201.286" y="756.0"/>
      <point x="223.0" y="734.286"/>
      <point x="223.0" y="709.8" type="curve" smooth="yes"/>
      <point x="223.0" y="170.68" type="line" smooth="yes"/>
      <point x="223.0" y="147.52960000000002"/>
      <point x="202.47039999999998" y="127.0"/>
      <point x="179.32" y="127.0" type="curve" smooth="yes"/>
      <point x="119.0" y="127.0" type="line" smooth="yes"/>
      <point x="88.0" y="127.0"/>
      <point x="41.0" y="123.0"/>
      <point x="41.0" y="63.0" type="curve" smooth="yes"/>
      <point x="41.0" y="33.0"/>
      <point x="53.0" y="2.0"/>
      <point x="111.0" y="0.0" type="curve" smooth="yes"/>
      <point x="584.0" y="0.0" type="line" smooth="yes"/>
      <point x="809.0" y="0.0"/>
      <point x="948.0" y="133.0"/>
      <point x="948.0" y="274.0" type="curve" smooth="yes"/>
      <point x="948.0" y="383.0"/>
      <point x="850.0" y="547.0"/>
      <point x="575.0" y="547.0" type="curve" smooth="yes"/>
      <point x="388.0" y="547.0" type="line" smooth="yes"/>
      <point x="362.56" y="547.0"/>
      <point x="340.0" y="569.56"/>
      <point x="340.0" y="595.0" type="curve" smooth="yes"/>
      <point x="340.0" y="708.0" type="line" smooth="yes"/>
      <point x="340.0" y="733.44"/>
      <point x="362.56" y="756.0"/>
      <point x="388.0" y="756.0" type="curve" smooth="yes"/>
      <point x="719.0" y="756.0" type="line" smooth="yes"/>
      <point x="776.0" y="756.0"/>
      <point x="793.0" y="788.0"/>
      <point x="793.0" y="819.0" type="curve" smooth="yes"/>
      <point x="793.0" y="852.0"/>
      <point x="774.0" y="881.0"/>
      <point x="719.0" y="881.0" type="curve" smooth="yes"/>
      <point x="388.0" y="881.0" type="line" smooth="yes"/>
      <point x="362.56" y="881.0"/>
      <point x="340.0" y="903.56"/>
      <point x="340.0" y="929.0" type="curve" smooth="yes"/>
      <point x="340.0" y="1229.0" type="line" smooth="yes"/>
      <point x="340.0" y="1268.0"/>
      <point x="340.0" y="1309.0"/>
      <point x="258.0" y="1309.0" type="curve" smooth="yes"/>
      <point x="88.0" y="1309.0" type="line" smooth="yes"/>
      <point x="20.0" y="1309.0"/>
      <point x="12.0" y="1268.0"/>
    </contour>
    <contour>
      <point x="388.0" y="127.0" type="line" smooth="yes"/>
      <point x="362.56" y="127.0"/>
      <point x="340.0" y="149.56"/>
      <point x="340.0" y="175.0" type="curve" smooth="yes"/>
      <point x="340.0" y="376.0" type="line" smooth="yes"/>
      <point x="340.0" y="401.44"/>
      <point x="362.56" y="424.0"/>
      <point x="388.0" y="424.0" type="curve" smooth="yes"/>
      <point x="543.0" y="424.0" type="line" smooth="yes"/>
      <point x="737.0" y="424.0"/>
      <point x="805.0" y="334.0"/>
      <point x="805.0" y="274.0" type="curve" smooth="yes"/>
      <point x="805.0" y="215.0"/>
      <point x="735.0" y="127.0"/>
      <point x="543.0" y="127.0" type="curve" smooth="yes"/>
    </contour>
  </outline>
</glyph>
<glyph name="uni048F" format="2">
  <advance width="1228"/>
  <unicode hex="048F"/>
  <outline>
    <contour>
      <point x="23.0" y="-391.0" type="curve" smooth="yes"/>
      <point x="23.0" y="-453.0"/>
      <point x="74.0" y="-455.0"/>
      <point x="98.0" y="-455.0" type="curve" smooth="yes"/>
      <point x="440.0" y="-455.0" type="line" smooth="yes"/>
      <point x="500.0" y="-455.0"/>
      <point x="514.0" y="-420.0"/>
      <point x="514.0" y="-391.0" type="curve" smooth="yes"/>
      <point x="514.0" y="-334.0"/>
      <point x="471.0" y="-328.0"/>
      <point x="434.0" y="-328.0" type="curve" smooth="yes"/>
      <point x="379.48" y="-328.0" type="line" smooth="yes"/>
      <point x="358.5556" y="-328.0"/>
      <point x="340.0" y="-309.4444"/>
      <point x="340.0" y="-288.52" type="curve" smooth="yes"/>
      <point x="340.0" y="54.253704817558585" type="line" smooth="yes"/>
      <point x="340.0" y="74.25924126425254"/>
      <point x="353.02840000000003" y="79.9586"/>
      <point x="367.72" y="66.38" type="curve" smooth="yes"/>
      <point x="406.0" y="31.0"/>
      <point x="475.0" y="-10.0"/>
      <point x="580.0" y="-10.0" type="curve" smooth="yes"/>
      <point x="631.0" y="-10.0"/>
      <point x="797.0" y="2.0"/>
      <point x="915.0" y="170.0" type="curve"/>
      <point x="918.0" y="170.0" type="line"/>
      <point x="977.0" y="121.0"/>
      <point x="995.0" y="111.0"/>
      <point x="1014.0" y="111.0" type="curve" smooth="yes"/>
      <point x="1049.0" y="111.0"/>
      <point x="1079.0" y="143.0"/>
      <point x="1079.0" y="176.0" type="curve" smooth="yes"/>
      <point x="1079.0" y="233.0"/>
      <point x="979.0" y="262.0"/>
      <point x="979.0" y="293.0" type="curve" smooth="yes"/>
      <point x="979.0" y="311.0"/>
      <point x="999.0" y="336.0"/>
      <point x="999.0" y="442.0" type="curve" smooth="yes"/>
      <point x="999.0" y="700.0"/>
      <point x="813.0" y="893.0"/>
      <point x="598.0" y="893.0" type="curve" smooth="yes"/>
      <point x="485.0" y="893.0"/>
      <point x="399.0" y="844.0"/>
      <point x="343.8772163726581" y="798.2200610552584" type="curve" smooth="yes"/>
      <point x="341.8222916951493" y="796.5134286959715"/>
      <point x="340.0" y="797.3688"/>
      <point x="340.0" y="800.04" type="curve" smooth="yes"/>
      <point x="340.0" y="807.0" type="line" smooth="yes"/>
      <point x="340.0" y="844.0"/>
      <point x="336.0" y="881.0"/>
      <point x="260.0" y="881.0" type="curve" smooth="yes"/>
      <point x="94.0" y="881.0" type="line" smooth="yes"/>
      <point x="74.0" y="881.0"/>
      <point x="23.0" y="877.0"/>
      <point x="23.0" y="817.0" type="curve" smooth="yes"/>
      <point x="23.0" y="758.0"/>
      <point x="72.0" y="756.0"/>
      <point x="100.0" y="756.0" type="curve" smooth="yes"/>
      <point x="156.26" y="756.0" type="line" smooth="yes"/>
      <point x="177.85219999999998" y="756.0"/>
      <point x="197.0" y="736.8522"/>
      <point x="197.0" y="715.26" type="curve" smooth="yes"/>
      <point x="197.0" y="-286.42" type="line" smooth="yes"/>
      <point x="197.0" y="-308.4574"/>
      <point x="177.4574" y="-328.0"/>
      <point x="155.42000000000002" y="-328.0" type="curve" smooth="yes"/>
      <point x="98.0" y="-328.0" type="line" smooth="yes"/>
      <point x="72.0" y="-328.0"/>
      <point x="23.0" y="-332.0"/>
    </contour>
    <contour>
      <point x="340.0" y="401.0" type="curve" smooth="yes"/>
      <point x="340.0" y="549.0" type="line" smooth="yes"/>
      <point x="340.0" y="643.0"/>
      <point x="446.0" y="766.0"/>
      <point x="588.0" y="766.0" type="curve" smooth="yes"/>
      <point x="764.0" y="766.0"/>
      <point x="856.0" y="588.0"/>
      <point x="856.0" y="444.0" type="curve" smooth="yes"/>
      <point x="856.0" y="420.0"/>
      <point x="854.0" y="397.0"/>
      <point x="852.426191980169" y="381.2619198016903" type="curve" smooth="yes"/>
      <point x="852.2003102306794" y="379.00310230679446"/>
      <point x="850.026" y="377.3948"/>
      <point x="847.8" y="377.84" type="curve" smooth="yes"/>
      <point x="842.0" y="379.0"/>
      <point x="762.0" y="459.0"/>
      <point x="723.0" y="459.0" type="curve" smooth="yes"/>
      <point x="690.0" y="459.0"/>
      <point x="659.0" y="422.0"/>
      <point x="659.0" y="393.0" type="curve" smooth="yes"/>
      <point x="659.0" y="348.0"/>
      <point x="729.0" y="311.0"/>
      <point x="805.0" y="254.0" type="curve"/>
      <point x="805.0" y="252.0" type="line"/>
      <point x="760.0" y="190.0"/>
      <point x="686.0" y="115.0"/>
      <point x="571.0" y="115.0" type="curve" smooth="yes"/>
      <point x="438.0" y="115.0"/>
      <point x="340.0" y="252.0"/>
    </contour>
  </outline>
</glyph>
<glyph name="uni0497" format="2">
  <advance width="1228"/>
  <unicode hex="0497"/>
  <outline>
    <contour>
      <point x="2.0" y="63.0" type="curve" smooth="yes"/>
      <point x="2.0" y="41.0"/>
      <point x="12.0" y="2.0"/>
      <point x="72.0" y="0.0" type="curve" smooth="yes"/>
      <point x="233.0" y="0.0" type="line" smooth="yes"/>
      <point x="293.0" y="0.0"/>
      <point x="303.0" y="39.0"/>
      <point x="303.0" y="63.0" type="curve" smooth="yes"/>
      <point x="303.0" y="94.0"/>
      <point x="283.0" y="127.0"/>
      <point x="236.0" y="127.0" type="curve" smooth="yes"/>
      <point x="233.0" y="127.0" type="line"/>
      <point x="377.1341633401852" y="399.3574125454149" type="line" smooth="yes"/>
      <point x="382.363056769887" y="409.237983896345"/>
      <point x="392.7246" y="409.90659999999997"/>
      <point x="399.18" y="400.78" type="curve" smooth="yes"/>
      <point x="416.0" y="377.0"/>
      <point x="449.0" y="338.0"/>
      <point x="469.3113091398519" y="302.8458111041025" type="curve" smooth="yes"/>
      <point x="472.3263152957304" y="297.6275312189282"/>
      <point x="475.3948" y="287.6702"/>
      <point x="475.84" y="281.66" type="curve" smooth="yes"/>
      <point x="477.0" y="266.0" type="line"/>
      <point x="477.0" y="144.22" type="line" smooth="yes"/>
      <point x="477.0" y="135.0934"/>
      <point x="468.90659999999997" y="127.0"/>
      <point x="459.78" y="127.0" type="curve" smooth="yes"/>
      <point x="436.0" y="127.0" type="line" smooth="yes"/>
      <point x="377.0" y="127.0"/>
      <point x="362.0" y="94.0"/>
      <point x="362.0" y="63.0" type="curve" smooth="yes"/>
      <point x="362.0" y="31.0"/>
      <point x="379.0" y="0.0"/>
      <point x="436.0" y="0.0" type="curve" smooth="yes"/>
      <point x="639.0" y="0.0" type="line" smooth="yes"/>
      <point x="700.0" y="0.0"/>
      <point x="711.0" y="39.0"/>
      <point x="711.0" y="61.0" type="curve" smooth="yes"/>
      <point x="711.0" y="115.0"/>
      <point x="674.0" y="127.0"/>
      <point x="635.0" y="127.0" type="curve" smooth="yes"/>
      <point x="611.22" y="127.0" type="line" smooth="yes"/>
      <point x="602.0934" y="127.0"/>
      <point x="594.0" y="135.0934"/>
      <point x="594.0" y="144.22" type="curve" smooth="yes"/>
      <point x="594.0" y="268.0" type="line"/>
      <point x="596.564409435648" y="285.30976369062427" type="line" smooth="yes"/>
      <point x="597.3252724347545" y="290.4455889345934"/>
      <point x="600.3688" y="298.948"/>
      <point x="603.04" y="303.4" type="curve" smooth="yes"/>
      <point x="610.0" y="315.0" type="line"/>
      <point x="655.9932687162111" y="379.01765780769915" type="line" smooth="yes"/>
      <point x="670.8368362966193" y="399.6782991696186"/>
      <point x="694.6590028992046" y="398.11685997648385"/>
      <point x="706.6787295727756" y="375.6954467584763" type="curve" smooth="yes"/>
      <point x="840.0" y="127.0" type="line"/>
      <point x="838.0" y="127.0" type="line" smooth="yes"/>
      <point x="782.0" y="127.0"/>
      <point x="768.0" y="90.0"/>
      <point x="768.0" y="63.0" type="curve" smooth="yes"/>
      <point x="768.0" y="43.0"/>
      <point x="776.0" y="23.0"/>
      <point x="795.0" y="10.0" type="curve" smooth="yes"/>
      <point x="809.04638671875" y="-0.5347869396209717"/>
      <point x="828.4877319335938" y="-0.2796829044818878"/>
      <point x="845.2047729492188" y="-0.06032620742917061" type="curve" smooth="yes"/>
      <point x="847.5298461914062" y="-0.029817352071404457"/>
      <point x="849.8021850585938" y="0.0"/>
      <point x="852.0" y="0.0" type="curve" smooth="yes"/>
      <point x="911.16" y="0.0" type="line" smooth="yes"/>
      <point x="933.8652" y="0.0"/>
      <point x="954.0" y="-20.1348"/>
      <point x="954.0" y="-42.839999999999996" type="curve" smooth="yes"/>
      <point x="954.0" y="-201.0" type="line" smooth="yes"/>
      <point x="954.0" y="-201.92393493652344"/>
      <point x="953.9894409179688" y="-202.9690704345703"/>
      <point x="953.9778442382812" y="-204.1205291748047" type="curve" smooth="yes"/>
      <point x="953.7632446289062" y="-225.40158081054688"/>
      <point x="953.1824340820312" y="-283.0"/>
      <point x="1012.0" y="-283.0" type="curve" smooth="yes"/>
      <point x="1034.0" y="-283.0"/>
      <point x="1069.0" y="-272.0"/>
      <point x="1069.0" y="-209.0" type="curve" smooth="yes"/>
      <point x="1069.0" y="51.0" type="line" smooth="yes"/>
      <point x="1069.0" y="51.55853271484375"/>
      <point x="1069.001220703125" y="52.1347541809082"/>
      <point x="1069.00244140625" y="52.727481842041016" type="curve" smooth="yes"/>
      <point x="1069.0511474609375" y="76.5428466796875"/>
      <point x="1069.1544189453125" y="127.0"/>
      <point x="995.0" y="127.0" type="curve" smooth="yes"/>
      <point x="981.08" y="127.0" type="line" smooth="yes"/>
      <point x="975.7376" y="127.0"/>
      <point x="968.9140645915401" y="131.25367220548702"/>
      <point x="966.5618395564682" y="136.05036639465325" type="curve" smooth="yes"/>
      <point x="920.0" y="231.0"/>
      <point x="768.0" y="500.0"/>
      <point x="768.0" y="518.0" type="curve" smooth="yes"/>
      <point x="768.0" y="532.0"/>
      <point x="788.0" y="557.0"/>
      <point x="924.8074792983567" y="743.4704683587191" type="curve" smooth="yes"/>
      <point x="929.6795152702276" y="750.111120128598"/>
      <point x="941.3038" y="756.0"/>
      <point x="949.54" y="756.0" type="curve" smooth="yes"/>
      <point x="971.0" y="756.0" type="line" smooth="yes"/>
      <point x="1024.0" y="756.0"/>
      <point x="1040.0" y="788.0"/>
      <point x="1040.0" y="819.0" type="curve" smooth="yes"/>
      <point x="1040.0" y="850.0"/>
      <point x="1020.0" y="881.0"/>
      <point x="973.0" y="881.0" type="curve" smooth="yes"/>
      <point x="817.0" y="881.0" type="line" smooth="yes"/>
      <point x="760.0" y="881.0"/>
      <point x="748.0" y="842.0"/>
      <point x="748.0" y="817.0" type="curve" smooth="yes"/>
      <point x="748.0" y="795.0"/>
      <point x="760.0" y="770.0"/>
      <point x="777.98" y="763.04" type="curve" smooth="yes"/>
      <point x="784.8806" y="760.3688"/>
      <point x="787.1204051400043" y="752.7078347038008"/>
      <point x="782.7455428510731" y="746.740073837874" type="curve" smooth="yes"/>
      <point x="607.6814857973156" y="507.934744728646" type="line" smooth="yes"/>
      <point x="601.4902983247383" y="499.4893300224636"/>
      <point x="595.6052" y="501.2778"/>
      <point x="595.16" y="511.74" type="curve" smooth="yes"/>
      <point x="594.0" y="539.0" type="line"/>
      <point x="594.0" y="737.94" type="line" smooth="yes"/>
      <point x="594.0" y="747.5118"/>
      <point x="602.4882" y="756.0"/>
      <point x="612.06" y="756.0" type="curve" smooth="yes"/>
      <point x="637.0" y="756.0" type="line" smooth="yes"/>
      <point x="700.0" y="756.0"/>
      <point x="711.0" y="795.0"/>
      <point x="711.0" y="817.0" type="curve" smooth="yes"/>
      <point x="711.0" y="850.0"/>
      <point x="694.0" y="881.0"/>
      <point x="637.0" y="881.0" type="curve" smooth="yes"/>
      <point x="434.0" y="881.0" type="line" smooth="yes"/>
      <point x="373.0" y="881.0"/>
      <point x="362.0" y="844.0"/>
      <point x="362.0" y="819.0" type="curve" smooth="yes"/>
      <point x="362.0" y="786.0"/>
      <point x="379.0" y="756.0"/>
      <point x="436.0" y="756.0" type="curve" smooth="yes"/>
      <point x="459.78" y="756.0" type="line" smooth="yes"/>
      <point x="468.90659999999997" y="756.0"/>
      <point x="477.0" y="747.9066"/>
      <point x="477.0" y="738.78" type="curve" smooth="yes"/>
      <point x="477.0" y="537.0" type="line" smooth="yes"/>
      <point x="477.0" y="511.56"/>
      <point x="463.71473055901964" y="507.2333544878761"/>
      <point x="448.73346927450984" y="527.7943712508003" type="curve" smooth="yes"/>
      <point x="287.7281617208228" y="748.7659413117278" type="line" smooth="yes"/>
      <point x="284.16223600878675" y="753.6599924165121"/>
      <point x="286.1324" y="759.5792"/>
      <point x="291.92" y="761.36" type="curve" smooth="yes"/>
      <point x="307.0" y="766.0"/>
      <point x="324.0" y="786.0"/>
      <point x="324.0" y="819.0" type="curve" smooth="yes"/>
      <point x="324.0" y="848.0"/>
      <point x="309.0" y="881.0"/>
      <point x="254.0" y="881.0" type="curve" smooth="yes"/>
      <point x="100.0" y="881.0" type="line" smooth="yes"/>
      <point x="45.0" y="881.0"/>
      <point x="31.0" y="846.0"/>
      <point x="31.0" y="817.0" type="curve" smooth="yes"/>
      <point x="31.0" y="793.0"/>
      <point x="43.0" y="756.0"/>
      <point x="106.0" y="756.0" type="curve" smooth="yes"/>
      <point x="123.98" y="756.0" type="line" smooth="yes"/>
      <point x="130.88060000000002" y="756.0"/>
      <point x="140.57205581851443" y="751.0313509291341"/>
      <point x="144.60011876279668" y="745.4284062322001" type="curve" smooth="yes"/>
      <point x="270.0" y="571.0"/>
      <point x="303.0" y="541.0"/>
      <point x="303.0" y="518.0" type="curve" smooth="yes"/>
      <point x="303.0" y="514.0"/>
      <point x="303.0" y="510.0"/>
      <point x="301.0" y="504.0" type="curve"/>
      <point x="297.0" y="496.0"/>
      <point x="113.0" y="152.0"/>
      <point x="105.46" y="137.5" type="curve" smooth="yes"/>
      <point x="102.5662" y="131.935"/>
      <point x="94.43766169313659" y="127.0"/>
      <point x="88.16523764497148" y="127.0" type="curve" smooth="yes"/>
      <point x="70.0" y="127.0" type="line" smooth="yes"/>
      <point x="27.0" y="127.0"/>
      <point x="2.0" y="100.0"/>
    </contour>
  </outline>
</glyph>
<glyph name="uni049F" format="2">
  <advance width="1228"/>
  <unicode hex="049F"/>
  <outline>
    <contour>
      <point x="35.0" y="1036.0" type="curve" smooth="yes"/>
      <point x="35.0" y="1008.0"/>
      <point x="49.0" y="989.0"/>
      <point x="70.0" y="979.0" type="curve" smooth="yes"/>
      <point x="83.30546569824219" y="972.3472900390625"/>
      <point x="97.99402618408203" y="972.6099853515625"/>
      <point x="113.49059295654297" y="972.8871459960938" type="curve" smooth="yes"/>
      <point x="116.62885284423828" y="972.9432983398438"/>
      <point x="119.80024719238281" y="973.0"/>
      <point x="123.0" y="973.0" type="curve" smooth="yes"/>
      <point x="172.88" y="973.0" type="line" smooth="yes"/>
      <point x="192.0236" y="973.0"/>
      <point x="209.0" y="956.0236"/>
      <point x="209.0" y="936.88" type="curve" smooth="yes"/>
      <point x="209.0" y="168.16" type="line" smooth="yes"/>
      <point x="209.0" y="146.3452"/>
      <point x="189.6548" y="127.0"/>
      <point x="167.84" y="127.0" type="curve" smooth="yes"/>
      <point x="111.0" y="127.0" type="line" smooth="yes"/>
      <point x="84.0" y="127.0"/>
      <point x="37.0" y="123.0"/>
      <point x="37.0" y="61.0" type="curve" smooth="yes"/>
      <point x="37.0" y="39.0"/>
      <point x="45.0" y="0.0"/>
      <point x="111.0" y="0.0" type="curve" smooth="yes"/>
      <point x="424.0" y="0.0" type="line" smooth="yes"/>
      <point x="457.0" y="0.0"/>
      <point x="500.0" y="6.0"/>
      <point x="500.0" y="63.0" type="curve" smooth="yes"/>
      <point x="500.0" y="121.0"/>
      <point x="457.0" y="127.0"/>
      <point x="420.0" y="127.0" type="curve" smooth="yes"/>
      <point x="365.48" y="127.0" type="line" smooth="yes"/>
      <point x="344.5556" y="127.0"/>
      <point x="326.0" y="145.5556"/>
      <point x="326.0" y="166.48" type="curve" smooth="yes"/>
      <point x="326.0" y="241.0" type="line" smooth="yes"/>
      <point x="326.0" y="266.44"/>
      <point x="342.76871593933606" y="304.0918443454025"/>
      <point x="361.67811901986397" y="321.1103071178776" type="curve" smooth="yes"/>
      <point x="496.0" y="442.0" type="line"/>
      <point x="498.0" y="442.0" type="line"/>
      <point x="741.8664704808414" y="137.16691189894826" type="line" smooth="yes"/>
      <point x="746.1772411259955" y="131.77844859250567"/>
      <point x="743.8806" y="127.0"/>
      <point x="736.98" y="127.0" type="curve" smooth="yes"/>
      <point x="719.0" y="127.0" type="line" smooth="yes"/>
      <point x="664.0" y="127.0"/>
      <point x="647.0" y="96.0"/>
      <point x="647.0" y="63.0" type="curve" smooth="yes"/>
      <point x="647.0" y="33.0"/>
      <point x="662.0" y="0.0"/>
      <point x="723.0" y="0.0" type="curve" smooth="yes"/>
      <point x="965.0" y="0.0" type="line" smooth="yes"/>
      <point x="1001.0" y="0.0"/>
      <point x="1040.0" y="10.0"/>
      <point x="1040.0" y="63.0" type="curve" smooth="yes"/>
      <point x="1040.0" y="96.0"/>
      <point x="1024.0" y="127.0"/>
      <point x="967.0" y="127.0" type="curve" smooth="yes"/>
      <point x="938.0" y="127.0" type="line" smooth="yes"/>
      <point x="909.0" y="127.0"/>
      <point x="903.0" y="127.0"/>
      <point x="891.0" y="139.0" type="curve" smooth="yes"/>
      <point x="879.0" y="150.0"/>
      <point x="686.0" y="393.0"/>
      <point x="614.0571798950267" y="482.57586424834903" type="curve" smooth="yes"/>
      <point x="598.1268745506626" y="502.41065619672406"/>
      <point x="601.2650702311792" y="534.5213962797127"/>
      <point x="620.7341919812321" y="550.8965878291759" type="curve" smooth="yes"/>
      <point x="842.0" y="737.0"/>
      <point x="815.0" y="756.0"/>
      <point x="885.0" y="756.0" type="curve" smooth="yes"/>
      <point x="926.0" y="756.0" type="line" smooth="yes"/>
      <point x="983.0" y="756.0"/>
      <point x="997.0" y="786.0"/>
      <point x="997.0" y="819.0" type="curve" smooth="yes"/>
      <point x="997.0" y="874.0"/>
      <point x="954.0" y="881.0"/>
      <point x="920.0" y="881.0" type="curve" smooth="yes"/>
      <point x="647.0" y="881.0" type="line" smooth="yes"/>
      <point x="610.0" y="881.0"/>
      <point x="569.0" y="872.0"/>
      <point x="569.0" y="817.0" type="curve" smooth="yes"/>
      <point x="569.0" y="797.0"/>
      <point x="578.0" y="756.0"/>
      <point x="641.0" y="756.0" type="curve" smooth="yes"/>
      <point x="658.98" y="756.0" type="line" smooth="yes"/>
      <point x="665.8806" y="756.0"/>
      <point x="667.4554065142042" y="751.9019850648316"/>
      <point x="662.3306521578814" y="747.2808192868757" type="curve" smooth="yes"/>
      <point x="361.64736531656604" y="476.1444450253428" type="line" smooth="yes"/>
      <point x="342.754261698786" y="459.1078891619111"/>
      <point x="326.0" y="466.56"/>
      <point x="326.0" y="492.0" type="curve" smooth="yes"/>
      <point x="326.0" y="948.22" type="line" smooth="yes"/>
      <point x="326.0" y="961.3534"/>
      <point x="337.6466" y="973.0"/>
      <point x="350.78" y="973.0" type="curve" smooth="yes"/>
      <point x="385.0" y="973.0" type="line" smooth="yes"/>
      <point x="408.0" y="973.0"/>
      <point x="459.0" y="975.0"/>
      <point x="459.0" y="1036.0" type="curve" smooth="yes"/>
      <point x="459.0" y="1090.0"/>
      <point x="422.0" y="1100.0"/>
      <point x="381.0" y="1100.0" type="curve" smooth="yes"/>
      <point x="349.1" y="1100.0" type="line" smooth="yes"/>
      <point x="336.857" y="1100.0"/>
      <point x="326.0" y="1110.857"/>
      <point x="326.0" y="1123.1" type="curve" smooth="yes"/>
      <point x="326.0" y="1171.0" type="line" smooth="yes"/>
      <point x="326.0" y="1172.1842041015625"/>
      <point x="326.0076904296875" y="1173.4183349609375"/>
      <point x="326.0156555175781" y="1174.6959228515625" type="curve" smooth="yes"/>
      <point x="326.1893005371094" y="1202.5469970703125"/>
      <point x="326.4913635253906" y="1251.0"/>
      <point x="250.0" y="1251.0" type="curve" smooth="yes"/>
      <point x="106.0" y="1251.0" type="line" smooth="yes"/>
      <point x="47.0" y="1251.0"/>
      <point x="37.0" y="1210.0"/>
      <point x="37.0" y="1186.0" type="curve" smooth="yes"/>
      <point x="37.0" y="1128.0"/>
      <point x="80.0" y="1124.0"/>
      <point x="119.0" y="1124.0" type="curve" smooth="yes"/>
      <point x="198.92" y="1124.0" type="line" smooth="yes"/>
      <point x="204.26239999999999" y="1124.0"/>
      <point x="209.0" y="1119.2624"/>
      <point x="209.0" y="1113.92" type="curve" smooth="yes"/>
      <point x="209.0" y="1110.08" type="line" smooth="yes"/>
      <point x="209.0" y="1104.7376"/>
      <point x="204.26239999999999" y="1100.0"/>
      <point x="198.92" y="1100.0" type="curve" smooth="yes"/>
      <point x="111.0" y="1100.0" type="line" smooth="yes"/>
      <point x="84.0" y="1100.0"/>
      <point x="35.0" y="1096.0"/>
    </contour>
  </outline>
</glyph>
<glyph name="uni04A3" format="2">
  <advance width="1228"/>
  <unicode hex="04A3"/>
  <outline>
    <contour>
      <point x="484.0" y="136.0" type="curve" smooth="yes"/>
      <point x="430.64" y="136.0" type="line" smooth="yes"/>
      <point x="410.1608" y="136.0"/>
      <point x="392.0" y="154.1608"/>
      <point x="392.0" y="174.64" type="curve" smooth="yes"/>
      <point x="392.0" y="341.0" type="line" smooth="yes"/>
      <point x="392.0" y="366.44"/>
      <point x="414.56" y="389.0"/>
      <point x="440.0" y="389.0" type="curve" smooth="yes"/>
      <point x="826.0" y="389.0" type="line" smooth="yes"/>
      <point x="851.44" y="389.0"/>
      <point x="874.0" y="366.44"/>
      <point x="874.0" y="341.0" type="curve" smooth="yes"/>
      <point x="874.0" y="174.64" type="line" smooth="yes"/>
      <point x="874.0" y="154.1608"/>
      <point x="855.8392" y="136.0"/>
      <point x="835.36" y="136.0" type="curve" smooth="yes"/>
      <point x="782.0" y="136.0" type="line" smooth="yes"/>
      <point x="759.3330078125" y="136.0"/>
      <point x="743.1669921875" y="131.0"/>
      <point x="733.5" y="121.0" type="curve" smooth="yes"/>
      <point x="723.8330078125" y="111.0"/>
      <point x="719.0" y="93.33329772949219"/>
      <point x="719.0" y="68.0" type="curve" smooth="yes"/>
      <point x="719.0" y="42.66669845581055"/>
      <point x="723.8330078125" y="25.0"/>
      <point x="733.5" y="15.0" type="curve" smooth="yes"/>
      <point x="743.1669921875" y="5.0"/>
      <point x="759.3330078125" y="0.0"/>
      <point x="782.0" y="0.0" type="curve" smooth="yes"/>
      <point x="1011.0" y="0.0" type="line" smooth="yes"/>
      <point x="1036.44" y="0.0"/>
      <point x="1059.0" y="-22.56"/>
      <point x="1059.0" y="-48.0" type="curve" smooth="yes"/>
      <point x="1059.0" y="-234.0" type="line" smooth="yes"/>
      <point x="1059.0" y="-257.3330078125"/>
      <point x="1064.5" y="-274.0"/>
      <point x="1075.5" y="-284.0" type="curve" smooth="yes"/>
      <point x="1086.5" y="-294.0"/>
      <point x="1106.0" y="-299.0"/>
      <point x="1134.0" y="-299.0" type="curve" smooth="yes"/>
      <point x="1162.0" y="-299.0"/>
      <point x="1181.5" y="-294.0"/>
      <point x="1192.5" y="-284.0" type="curve" smooth="yes"/>
      <point x="1203.5" y="-274.0"/>
      <point x="1209.0" y="-257.3330078125"/>
      <point x="1209.0" y="-234.0" type="curve" smooth="yes"/>
      <point x="1209.0" y="68.0" type="line" smooth="yes"/>
      <point x="1209.0" y="93.33329772949219"/>
      <point x="1204.1700439453125" y="111.0"/>
      <point x="1194.5" y="121.0" type="curve" smooth="yes"/>
      <point x="1184.8299560546875" y="131.0"/>
      <point x="1168.6700439453125" y="136.0"/>
      <point x="1146.0" y="136.0" type="curve" smooth="yes"/>
      <point x="1072.0" y="136.0" type="line" smooth="yes"/>
      <point x="1046.56" y="136.0"/>
      <point x="1024.0" y="158.56"/>
      <point x="1024.0" y="184.0" type="curve" smooth="yes"/>
      <point x="1024.0" y="749.36" type="line" smooth="yes"/>
      <point x="1024.0" y="769.8392"/>
      <point x="1042.1608" y="788.0"/>
      <point x="1062.64" y="788.0" type="curve" smooth="yes"/>
      <point x="1116.0" y="788.0" type="line" smooth="yes"/>
      <point x="1138.6700439453125" y="788.0"/>
      <point x="1154.8299560546875" y="793.0"/>
      <point x="1164.5" y="803.0" type="curve" smooth="yes"/>
      <point x="1174.1700439453125" y="813.0"/>
      <point x="1179.0" y="830.6669921875"/>
      <point x="1179.0" y="856.0" type="curve" smooth="yes"/>
      <point x="1179.0" y="881.3330078125"/>
      <point x="1174.1700439453125" y="899.0"/>
      <point x="1164.5" y="909.0" type="curve" smooth="yes"/>
      <point x="1154.8299560546875" y="919.0"/>
      <point x="1138.6700439453125" y="924.0"/>
      <point x="1116.0" y="924.0" type="curve" smooth="yes"/>
      <point x="792.0" y="924.0" type="line" smooth="yes"/>
      <point x="769.3330078125" y="924.0"/>
      <point x="753.1669921875" y="919.0"/>
      <point x="743.5" y="909.0" type="curve" smooth="yes"/>
      <point x="733.8330078125" y="899.0"/>
      <point x="729.0" y="881.3330078125"/>
      <point x="729.0" y="856.0" type="curve" smooth="yes"/>
      <point x="729.0" y="830.6669921875"/>
      <point x="733.8330078125" y="813.0"/>
      <point x="743.5" y="803.0" type="curve" smooth="yes"/>
      <point x="753.1669921875" y="793.0"/>
      <point x="769.3330078125" y="788.0"/>
      <point x="792.0" y="788.0" type="curve" smooth="yes"/>
      <point x="839.56" y="788.0" type="line" smooth="yes"/>
      <point x="857.8131999999999" y="788.0"/>
      <point x="874.0" y="771.8131999999999"/>
      <point x="874.0" y="753.56" type="curve" smooth="yes"/>
      <point x="874.0" y="573.0" type="line" smooth="yes"/>
      <point x="874.0" y="547.56"/>
      <point x="851.44" y="525.0"/>
      <point x="826.0" y="525.0" type="curve" smooth="yes"/>
      <point x="440.0" y="525.0" type="line" smooth="yes"/>
      <point x="414.56" y="525.0"/>
      <point x="392.0" y="547.56"/>
      <point x="392.0" y="573.0" type="curve" smooth="yes"/>
      <point x="392.0" y="753.56" type="line" smooth="yes"/>
      <point x="392.0" y="771.8131999999999"/>
      <point x="408.1868" y="788.0"/>
      <point x="426.44" y="788.0" type="curve" smooth="yes"/>
      <point x="474.0" y="788.0" type="line" smooth="yes"/>
      <point x="496.6669921875" y="788.0"/>
      <point x="512.8330078125" y="793.0"/>
      <point x="522.5" y="803.0" type="curve" smooth="yes"/>
      <point x="532.1669921875" y="813.0"/>
      <point x="537.0" y="830.6669921875"/>
      <point x="537.0" y="856.0" type="curve" smooth="yes"/>
      <point x="537.0" y="881.3330078125"/>
      <point x="532.1669921875" y="899.0"/>
      <point x="522.5" y="909.0" type="curve" smooth="yes"/>
      <point x="512.8330078125" y="919.0"/>
      <point x="496.6669921875" y="924.0"/>
      <point x="474.0" y="924.0" type="curve" smooth="yes"/>
      <point x="150.0" y="924.0" type="line" smooth="yes"/>
      <point x="127.33300018310547" y="924.0"/>
      <point x="111.16699981689453" y="919.0"/>
      <point x="101.5" y="909.0" type="curve" smooth="yes"/>
      <point x="91.83329772949219" y="899.0"/>
      <point x="87.0" y="881.3330078125"/>
      <point x="87.0" y="856.0" type="curve" smooth="yes"/>
      <point x="87.0" y="830.6669921875"/>
      <point x="91.83329772949219" y="813.0"/>
      <point x="101.5" y="803.0" type="curve" smooth="yes"/>
      <point x="111.16699981689453" y="793.0"/>
      <point x="127.33300018310547" y="788.0"/>
      <point x="150.0" y="788.0" type="curve" smooth="yes"/>
      <point x="203.36" y="788.0" type="line" smooth="yes"/>
      <point x="223.8392" y="788.0"/>
      <point x="242.0" y="769.8392"/>
      <point x="242.0" y="749.36" type="curve" smooth="yes"/>
      <point x="242.0" y="174.64" type="line" smooth="yes"/>
      <point x="242.0" y="154.1608"/>
      <point x="223.8392" y="136.0"/>
      <point x="203.36" y="136.0" type="curve" smooth="yes"/>
      <point x="150.0" y="136.0" type="line" smooth="yes"/>
      <point x="127.33300018310547" y="136.0"/>
      <point x="111.16699981689453" y="131.0"/>
      <point x="101.5" y="121.0" type="curve" smooth="yes"/>
      <point x="91.83329772949219" y="111.0"/>
      <point x="87.0" y="93.33329772949219"/>
      <point x="87.0" y="68.0" type="curve" smooth="yes"/>
      <point x="87.0" y="42.66669845581055"/>
      <point x="91.83329772949219" y="25.0"/>
      <point x="101.5" y="15.0" type="curve" smooth="yes"/>
      <point x="111.16699981689453" y="5.0"/>
      <point x="127.33300018310547" y="0.0"/>
      <point x="150.0" y="0.0" type="curve" smooth="yes"/>
      <point x="484.0" y="0.0" type="line" smooth="yes"/>
      <point x="506.6669921875" y="0.0"/>
      <point x="522.8330078125" y="5.0"/>
      <point x="532.5" y="15.0" type="curve" smooth="yes"/>
      <point x="542.1669921875" y="25.0"/>
      <point x="547.0" y="42.66669845581055"/>
      <point x="547.0" y="68.0" type="curve" smooth="yes"/>
      <point x="547.0" y="93.33329772949219"/>
      <point x="542.1669921875" y="111.0"/>
      <point x="532.5" y="121.0" type="curve" smooth="yes"/>
      <point x="522.8330078125" y="131.0"/>
      <point x="506.6669921875" y="136.0"/>
    </contour>
  </outline>
</glyph>
<glyph name="uni04A5" format="2">
  <advance width="1228"/>
  <unicode hex="04A5"/>
  <outline>
    <contour>
      <point x="20.0" y="61.0" type="curve" smooth="yes"/>
      <point x="20.0" y="41.0"/>
      <point x="29.0" y="0.0"/>
      <point x="94.0" y="0.0" type="curve" smooth="yes"/>
      <point x="348.0" y="0.0" type="line" smooth="yes"/>
      <point x="383.0" y="0.0"/>
      <point x="424.0" y="8.0"/>
      <point x="424.0" y="63.0" type="curve" smooth="yes"/>
      <point x="424.0" y="117.0"/>
      <point x="387.0" y="127.0"/>
      <point x="346.0" y="127.0" type="curve" smooth="yes"/>
      <point x="308.3" y="127.0" type="line" smooth="yes"/>
      <point x="293.831" y="127.0"/>
      <point x="281.0" y="139.83100000000002"/>
      <point x="281.0" y="154.3" type="curve" smooth="yes"/>
      <point x="281.0" y="376.0" type="line" smooth="yes"/>
      <point x="281.0" y="401.44"/>
      <point x="303.56" y="424.0"/>
      <point x="329.0" y="424.0" type="curve" smooth="yes"/>
      <point x="566.0" y="424.0" type="line" smooth="yes"/>
      <point x="591.44" y="424.0"/>
      <point x="614.0" y="401.44"/>
      <point x="614.0" y="376.0" type="curve" smooth="yes"/>
      <point x="614.0" y="154.3" type="line" smooth="yes"/>
      <point x="614.0" y="139.83100000000002"/>
      <point x="601.169" y="127.0"/>
      <point x="586.7" y="127.0" type="curve" smooth="yes"/>
      <point x="549.0" y="127.0" type="line" smooth="yes"/>
      <point x="522.0" y="127.0"/>
      <point x="471.0" y="125.0"/>
      <point x="471.0" y="63.0" type="curve" smooth="yes"/>
      <point x="471.0" y="39.0"/>
      <point x="481.0" y="0.0"/>
      <point x="547.0" y="0.0" type="curve" smooth="yes"/>
      <point x="801.0" y="0.0" type="line" smooth="yes"/>
      <point x="862.0" y="0.0"/>
      <point x="874.0" y="39.0"/>
      <point x="874.0" y="63.0" type="curve" smooth="yes"/>
      <point x="874.0" y="117.0"/>
      <point x="836.0" y="127.0"/>
      <point x="799.0" y="127.0" type="curve" smooth="yes"/>
      <point x="758.4" y="127.0" type="line" smooth="yes"/>
      <point x="742.818" y="127.0"/>
      <point x="729.0" y="140.818"/>
      <point x="729.0" y="156.4" type="curve" smooth="yes"/>
      <point x="729.0" y="708.0" type="line" smooth="yes"/>
      <point x="729.0" y="733.44"/>
      <point x="751.56" y="756.0"/>
      <point x="777.0" y="756.0" type="curve" smooth="yes"/>
      <point x="865.8" y="756.0" type="line" smooth="yes"/>
      <point x="879.156" y="756.0"/>
      <point x="891.0" y="744.156"/>
      <point x="891.0" y="730.8" type="curve" smooth="yes"/>
      <point x="891.0" y="696.0" type="line" smooth="yes"/>
      <point x="891.0" y="695.3132934570312"/>
      <point x="890.998779296875" y="694.6121215820312"/>
      <point x="890.99755859375" y="693.897705078125" type="curve" smooth="yes"/>
      <point x="890.9487915039062" y="665.4806518554688"/>
      <point x="890.8638916015625" y="616.0"/>
      <point x="965.0" y="616.0" type="curve" smooth="yes"/>
      <point x="967.0" y="616.0" type="line" smooth="yes"/>
      <point x="1026.0" y="616.0"/>
      <point x="1036.0" y="664.0"/>
      <point x="1034.0" y="705.0" type="curve" smooth="yes"/>
      <point x="1034.0" y="797.0" type="line" smooth="yes"/>
      <point x="1034.0" y="798.369384765625"/>
      <point x="1034.00830078125" y="799.788818359375"/>
      <point x="1034.0169677734375" y="801.2507934570312" type="curve" smooth="yes"/>
      <point x="1034.1964111328125" y="831.8173217773438"/>
      <point x="1034.4852294921875" y="881.0"/>
      <point x="961.0" y="881.0" type="curve" smooth="yes"/>
      <point x="559.0" y="881.0" type="line" smooth="yes"/>
      <point x="553.0" y="881.0"/>
      <point x="547.0" y="883.0"/>
      <point x="543.0" y="883.0" type="curve" smooth="yes"/>
      <point x="483.0" y="883.0"/>
      <point x="471.0" y="846.0"/>
      <point x="471.0" y="817.0" type="curve" smooth="yes"/>
      <point x="471.0" y="766.0"/>
      <point x="508.0" y="756.0"/>
      <point x="549.0" y="756.0" type="curve" smooth="yes"/>
      <point x="586.7" y="756.0" type="line" smooth="yes"/>
      <point x="601.169" y="756.0"/>
      <point x="614.0" y="743.169"/>
      <point x="614.0" y="728.7" type="curve" smooth="yes"/>
      <point x="614.0" y="595.0" type="line" smooth="yes"/>
      <point x="614.0" y="569.56"/>
      <point x="591.44" y="547.0"/>
      <point x="566.0" y="547.0" type="curve" smooth="yes"/>
      <point x="329.0" y="547.0" type="line" smooth="yes"/>
      <point x="303.56" y="547.0"/>
      <point x="281.0" y="569.56"/>
      <point x="281.0" y="595.0" type="curve" smooth="yes"/>
      <point x="281.0" y="726.18" type="line" smooth="yes"/>
      <point x="281.0" y="741.9846"/>
      <point x="295.0154" y="756.0"/>
      <point x="310.82" y="756.0" type="curve" smooth="yes"/>
      <point x="352.0" y="756.0" type="line" smooth="yes"/>
      <point x="373.0" y="756.0"/>
      <point x="424.0" y="760.0"/>
      <point x="424.0" y="819.0" type="curve" smooth="yes"/>
      <point x="424.0" y="844.0"/>
      <point x="414.0" y="881.0"/>
      <point x="348.0" y="881.0" type="curve" smooth="yes"/>
      <point x="94.0" y="881.0" type="line" smooth="yes"/>
      <point x="29.0" y="881.0"/>
      <point x="20.0" y="840.0"/>
      <point x="20.0" y="819.0" type="curve" smooth="yes"/>
      <point x="20.0" y="756.0"/>
      <point x="76.0" y="756.0"/>
      <point x="96.0" y="756.0" type="curve" smooth="yes"/>
      <point x="136.6" y="756.0" type="line" smooth="yes"/>
      <point x="152.182" y="756.0"/>
      <point x="166.0" y="742.182"/>
      <point x="166.0" y="726.6" type="curve" smooth="yes"/>
      <point x="166.0" y="158.07999999999998" type="line" smooth="yes"/>
      <point x="166.0" y="141.6076"/>
      <point x="151.3924" y="127.0"/>
      <point x="134.92000000000002" y="127.0" type="curve" smooth="yes"/>
      <point x="92.0" y="127.0" type="line" smooth="yes"/>
      <point x="72.0" y="127.0"/>
      <point x="20.0" y="123.0"/>
    </contour>
  </outline>
</glyph>
<glyph name="uni04AE" format="2">
  <advance width="1228"/>
  <unicode hex="04AE"/>
  <outline>
    <contour>
      <point x="513.7374921096127" y="532.8142829789783" type="line" smooth="yes"/>
      <point x="527.126621291518" y="511.1827130001198"/>
      <point x="539.0" y="469.44"/>
      <point x="539.0" y="444.0" type="curve" smooth="yes"/>
      <point x="539.0" y="184.0" type="line" smooth="yes"/>
      <point x="539.0" y="158.56"/>
      <point x="516.44" y="136.0"/>
      <point x="491.0" y="136.0" type="curve" smooth="yes"/>
      <point x="313.0" y="136.0" type="line" smooth="yes"/>
      <point x="290.3330078125" y="136.0"/>
      <point x="274.1669921875" y="131.0"/>
      <point x="264.5" y="121.0" type="curve" smooth="yes"/>
      <point x="254.83299255371094" y="111.0"/>
      <point x="250.0" y="93.33329772949219"/>
      <point x="250.0" y="68.0" type="curve" smooth="yes"/>
      <point x="250.0" y="42.66669845581055"/>
      <point x="254.83299255371094" y="25.0"/>
      <point x="264.5" y="15.0" type="curve" smooth="yes"/>
      <point x="274.1669921875" y="5.0"/>
      <point x="290.3330078125" y="0.0"/>
      <point x="313.0" y="0.0" type="curve" smooth="yes"/>
      <point x="915.0" y="0.0" type="line" smooth="yes"/>
      <point x="937.6669921875" y="0.0"/>
      <point x="953.8330078125" y="5.0"/>
      <point x="963.5" y="15.0" type="curve" smooth="yes"/>
      <point x="973.1669921875" y="25.0"/>
      <point x="978.0" y="42.66669845581055"/>
      <point x="978.0" y="68.0" type="curve" smooth="yes"/>
      <point x="978.0" y="93.33329772949219"/>
      <point x="973.1669921875" y="111.0"/>
      <point x="963.5" y="121.0" type="curve" smooth="yes"/>
      <point x="953.8330078125" y="131.0"/>
      <point x="937.6669921875" y="136.0"/>
      <point x="915.0" y="136.0" type="curve" smooth="yes"/>
      <point x="737.0" y="136.0" type="line" smooth="yes"/>
      <point x="711.56" y="136.0"/>
      <point x="689.0" y="158.56"/>
      <point x="689.0" y="184.0" type="curve" smooth="yes"/>
      <point x="689.0" y="444.0" type="line" smooth="yes"/>
      <point x="689.0" y="469.44"/>
      <point x="700.9228811446612" y="511.1519843674299"/>
      <point x="714.3678322226834" y="532.7489029094254" type="curve" smooth="yes"/>
      <point x="1021.9061398275034" y="1026.7544027688919" type="line" smooth="yes"/>
      <point x="1029.9058857189266" y="1039.6045693013791"/>
      <point x="1050.4232" y="1051.0"/>
      <point x="1065.56" y="1051.0" type="curve" smooth="yes"/>
      <point x="1105.0" y="1051.0" type="line" smooth="yes"/>
      <point x="1127.6700439453125" y="1051.0"/>
      <point x="1143.8299560546875" y="1056.0"/>
      <point x="1153.5" y="1066.0" type="curve" smooth="yes"/>
      <point x="1163.1700439453125" y="1076.0"/>
      <point x="1168.0" y="1093.6700439453125"/>
      <point x="1168.0" y="1119.0" type="curve" smooth="yes"/>
      <point x="1168.0" y="1144.3299560546875"/>
      <point x="1163.1700439453125" y="1162.0"/>
      <point x="1153.5" y="1172.0" type="curve" smooth="yes"/>
      <point x="1143.8299560546875" y="1182.0"/>
      <point x="1127.6700439453125" y="1187.0"/>
      <point x="1105.0" y="1187.0" type="curve" smooth="yes"/>
      <point x="801.0" y="1187.0" type="line" smooth="yes"/>
      <point x="778.3330078125" y="1187.0"/>
      <point x="762.1669921875" y="1182.0"/>
      <point x="752.5" y="1172.0" type="curve" smooth="yes"/>
      <point x="742.8330078125" y="1162.0"/>
      <point x="738.0" y="1144.3299560546875"/>
      <point x="738.0" y="1119.0" type="curve" smooth="yes"/>
      <point x="738.0" y="1093.6700439453125"/>
      <point x="742.8330078125" y="1076.0"/>
      <point x="752.5" y="1066.0" type="curve" smooth="yes"/>
      <point x="762.1669921875" y="1056.0"/>
      <point x="778.3330078125" y="1051.0"/>
      <point x="801.0" y="1051.0" type="curve" smooth="yes"/>
      <point x="838.7" y="1051.0" type="line" smooth="yes"/>
      <point x="853.169" y="1051.0"/>
      <point x="859.2693461374128" y="1040.0760419452454"/>
      <point x="851.6794598668357" y="1027.7575360537135" type="curve" smooth="yes"/>
      <point x="639.1789716627065" y="682.8658706747896" type="line" smooth="yes"/>
      <point x="625.8341166814721" y="661.206959217151"/>
      <point x="602.2341841616795" y="661.2488747114922"/>
      <point x="588.9663492801692" y="682.9550525776432" type="curve" smooth="yes"/>
      <point x="384.3711332732623" y="1017.6728259649428" type="line" smooth="yes"/>
      <point x="373.5744326384333" y="1035.3362282035232"/>
      <point x="382.3582" y="1051.0"/>
      <point x="403.06" y="1051.0" type="curve" smooth="yes"/>
      <point x="457.0" y="1051.0" type="line" smooth="yes"/>
      <point x="479.6669921875" y="1051.0"/>
      <point x="495.8330078125" y="1056.0"/>
      <point x="505.5" y="1066.0" type="curve" smooth="yes"/>
      <point x="515.1669921875" y="1076.0"/>
      <point x="520.0" y="1093.6700439453125"/>
      <point x="520.0" y="1119.0" type="curve" smooth="yes"/>
      <point x="520.0" y="1144.3299560546875"/>
      <point x="515.1669921875" y="1162.0"/>
      <point x="505.5" y="1172.0" type="curve" smooth="yes"/>
      <point x="495.8330078125" y="1182.0"/>
      <point x="479.6669921875" y="1187.0"/>
      <point x="457.0" y="1187.0" type="curve" smooth="yes"/>
      <point x="123.0" y="1187.0" type="line" smooth="yes"/>
      <point x="100.33300018310547" y="1187.0"/>
      <point x="84.16670227050781" y="1182.0"/>
      <point x="74.5" y="1172.0" type="curve" smooth="yes"/>
      <point x="64.83329772949219" y="1162.0"/>
      <point x="60.0" y="1144.3299560546875"/>
      <point x="60.0" y="1119.0" type="curve" smooth="yes"/>
      <point x="60.0" y="1093.6700439453125"/>
      <point x="64.83329772949219" y="1076.0"/>
      <point x="74.5" y="1066.0" type="curve" smooth="yes"/>
      <point x="84.16670227050781" y="1056.0"/>
      <point x="100.33300018310547" y="1051.0"/>
      <point x="123.0" y="1051.0" type="curve" smooth="yes"/>
      <point x="163.6" y="1051.0" type="line" smooth="yes"/>
      <point x="179.182" y="1051.0"/>
      <point x="200.27244445894524" y="1039.2505882874266"/>
      <point x="208.47328608286222" y="1026.0012516753757" type="curve" smooth="yes"/>
    </contour>
  </outline>
</glyph>
<glyph name="uni04B0" format="2">
  <advance width="1228"/>
  <unicode hex="04B0"/>
  <outline>
    <contour>
      <point x="539.0" y="467.64" type="line" smooth="yes"/>
      <point x="539.0" y="458.2908"/>
      <point x="530.7092" y="450.0"/>
      <point x="521.36" y="450.0" type="curve" smooth="yes"/>
      <point x="233.0" y="450.0" type="line" smooth="yes"/>
      <point x="210.33299255371094" y="450.0"/>
      <point x="194.16700744628906" y="445.0"/>
      <point x="184.5" y="435.0" type="curve" smooth="yes"/>
      <point x="174.83299255371094" y="425.0"/>
      <point x="170.0" y="407.3330078125"/>
      <point x="170.0" y="382.0" type="curve" smooth="yes"/>
      <point x="170.0" y="356.6669921875"/>
      <point x="174.83299255371094" y="339.0"/>
      <point x="184.5" y="329.0" type="curve" smooth="yes"/>
      <point x="194.16700744628906" y="319.0"/>
      <point x="210.33299255371094" y="314.0"/>
      <point x="233.0" y="314.0" type="curve" smooth="yes"/>
      <point x="491.0" y="314.0" type="line" smooth="yes"/>
      <point x="516.44" y="314.0"/>
      <point x="539.0" y="291.44"/>
      <point x="539.0" y="266.0" type="curve" smooth="yes"/>
      <point x="539.0" y="184.0" type="line" smooth="yes"/>
      <point x="539.0" y="158.56"/>
      <point x="516.44" y="136.0"/>
      <point x="491.0" y="136.0" type="curve" smooth="yes"/>
      <point x="313.0" y="136.0" type="line" smooth="yes"/>
      <point x="290.3330078125" y="136.0"/>
      <point x="274.1669921875" y="131.0"/>
      <point x="264.5" y="121.0" type="curve" smooth="yes"/>
      <point x="254.83299255371094" y="111.0"/>
      <point x="250.0" y="93.33329772949219"/>
      <point x="250.0" y="68.0" type="curve" smooth="yes"/>
      <point x="250.0" y="42.66669845581055"/>
      <point x="254.83299255371094" y="25.0"/>
      <point x="264.5" y="15.0" type="curve" smooth="yes"/>
      <point x="274.1669921875" y="5.0"/>
      <point x="290.3330078125" y="0.0"/>
      <point x="313.0" y="0.0" type="curve" smooth="yes"/>
      <point x="915.0" y="0.0" type="line" smooth="yes"/>
      <point x="937.6669921875" y="0.0"/>
      <point x="953.8330078125" y="5.0"/>
      <point x="963.5" y="15.0" type="curve" smooth="yes"/>
      <point x="973.1669921875" y="25.0"/>
      <point x="978.0" y="42.66669845581055"/>
      <point x="978.0" y="68.0" type="curve" smooth="yes"/>
      <point x="978.0" y="93.33329772949219"/>
      <point x="973.1669921875" y="111.0"/>
      <point x="963.5" y="121.0" type="curve" smooth="yes"/>
      <point x="953.8330078125" y="131.0"/>
      <point x="937.6669921875" y="136.0"/>
      <point x="915.0" y="136.0" type="curve" smooth="yes"/>
      <point x="737.0" y="136.0" type="line" smooth="yes"/>
      <point x="711.56" y="136.0"/>
      <point x="689.0" y="158.56"/>
      <point x="689.0" y="184.0" type="curve" smooth="yes"/>
      <point x="689.0" y="266.0" type="line" smooth="yes"/>
      <point x="689.0" y="291.44"/>
      <point x="711.56" y="314.0"/>
      <point x="737.0" y="314.0" type="curve" smooth="yes"/>
      <point x="995.0" y="314.0" type="line" smooth="yes"/>
      <point x="1017.6699829101562" y="314.0"/>
      <point x="1033.8299560546875" y="319.0"/>
      <point x="1043.5" y="329.0" type="curve" smooth="yes"/>
      <point x="1053.1700439453125" y="339.0"/>
      <point x="1058.0" y="356.6669921875"/>
      <point x="1058.0" y="382.0" type="curve" smooth="yes"/>
      <point x="1058.0" y="407.3330078125"/>
      <point x="1053.1700439453125" y="425.0"/>
      <point x="1043.5" y="435.0" type="curve" smooth="yes"/>
      <point x="1033.8299560546875" y="445.0"/>
      <point x="1017.6699829101562" y="450.0"/>
      <point x="995.0" y="450.0" type="curve" smooth="yes"/>
      <point x="706.64" y="450.0" type="line" smooth="yes"/>
      <point x="697.2908" y="450.0"/>
      <point x="689.0" y="458.2908"/>
      <point x="689.0" y="467.64" type="curve" smooth="yes"/>
      <point x="689.0" y="474.36" type="line" smooth="yes"/>
      <point x="689.0" y="483.7092"/>
      <point x="693.381658820663" y="499.0383542550305"/>
      <point x="698.3226783418362" y="506.97522181921386" type="curve" smooth="yes"/>
      <point x="1021.9061398275034" y="1026.7544027688919" type="line" smooth="yes"/>
      <point x="1029.9058857189266" y="1039.6045693013791"/>
      <point x="1050.4232" y="1051.0"/>
      <point x="1065.56" y="1051.0" type="curve" smooth="yes"/>
      <point x="1105.0" y="1051.0" type="line" smooth="yes"/>
      <point x="1127.6700439453125" y="1051.0"/>
      <point x="1143.8299560546875" y="1056.0"/>
      <point x="1153.5" y="1066.0" type="curve" smooth="yes"/>
      <point x="1163.1700439453125" y="1076.0"/>
      <point x="1168.0" y="1093.6700439453125"/>
      <point x="1168.0" y="1119.0" type="curve" smooth="yes"/>
      <point x="1168.0" y="1144.3299560546875"/>
      <point x="1163.1700439453125" y="1162.0"/>
      <point x="1153.5" y="1172.0" type="curve" smooth="yes"/>
      <point x="1143.8299560546875" y="1182.0"/>
      <point x="1127.6700439453125" y="1187.0"/>
      <point x="1105.0" y="1187.0" type="curve" smooth="yes"/>
      <point x="801.0" y="1187.0" type="line" smooth="yes"/>
      <point x="778.3330078125" y="1187.0"/>
      <point x="762.1669921875" y="1182.0"/>
      <point x="752.5" y="1172.0" type="curve" smooth="yes"/>
      <point x="742.8330078125" y="1162.0"/>
      <point x="738.0" y="1144.3299560546875"/>
      <point x="738.0" y="1119.0" type="curve" smooth="yes"/>
      <point x="738.0" y="1093.6700439453125"/>
      <point x="742.8330078125" y="1076.0"/>
      <point x="752.5" y="1066.0" type="curve" smooth="yes"/>
      <point x="762.1669921875" y="1056.0"/>
      <point x="778.3330078125" y="1051.0"/>
      <point x="801.0" y="1051.0" type="curve" smooth="yes"/>
      <point x="838.7" y="1051.0" type="line" smooth="yes"/>
      <point x="853.169" y="1051.0"/>
      <point x="859.2693461374128" y="1040.0760419452454"/>
      <point x="851.6794598668357" y="1027.7575360537135" type="curve" smooth="yes"/>
      <point x="639.1789716627065" y="682.8658706747896" type="line" smooth="yes"/>
      <point x="625.8341166814721" y="661.206959217151"/>
      <point x="602.2341841616795" y="661.2488747114922"/>
      <point x="588.9663492801692" y="682.9550525776432" type="curve" smooth="yes"/>
      <point x="384.3711332732623" y="1017.6728259649428" type="line" smooth="yes"/>
      <point x="373.5744326384333" y="1035.3362282035232"/>
      <point x="382.3582" y="1051.0"/>
      <point x="403.06" y="1051.0" type="curve" smooth="yes"/>
      <point x="457.0" y="1051.0" type="line" smooth="yes"/>
      <point x="479.6669921875" y="1051.0"/>
      <point x="495.8330078125" y="1056.0"/>
      <point x="505.5" y="1066.0" type="curve" smooth="yes"/>
      <point x="515.1669921875" y="1076.0"/>
      <point x="520.0" y="1093.6700439453125"/>
      <point x="520.0" y="1119.0" type="curve" smooth="yes"/>
      <point x="520.0" y="1144.3299560546875"/>
      <point x="515.1669921875" y="1162.0"/>
      <point x="505.5" y="1172.0" type="curve" smooth="yes"/>
      <point x="495.8330078125" y="1182.0"/>
      <point x="479.6669921875" y="1187.0"/>
      <point x="457.0" y="1187.0" type="curve" smooth="yes"/>
      <point x="123.0" y="1187.0" type="line" smooth="yes"/>
      <point x="100.33300018310547" y="1187.0"/>
      <point x="84.16670227050781" y="1182.0"/>
      <point x="74.5" y="1172.0" type="curve" smooth="yes"/>
      <point x="64.83329772949219" y="1162.0"/>
      <point x="60.0" y="1144.3299560546875"/>
      <point x="60.0" y="1119.0" type="curve" smooth="yes"/>
      <point x="60.0" y="1093.6700439453125"/>
      <point x="64.83329772949219" y="1076.0"/>
      <point x="74.5" y="1066.0" type="curve" smooth="yes"/>
      <point x="84.16670227050781" y="1056.0"/>
      <point x="100.33300018310547" y="1051.0"/>
      <point x="123.0" y="1051.0" type="curve" smooth="yes"/>
      <point x="163.6" y="1051.0" type="line" smooth="yes"/>
      <point x="179.182" y="1051.0"/>
      <point x="200.27244445894524" y="1039.2505882874266"/>
      <point x="208.47328608286222" y="1026.0012516753757" type="curve" smooth="yes"/>
      <point x="529.7160283502826" y="506.9992489947745" type="line" smooth="yes"/>
      <point x="534.6365333246329" y="499.04964702754404"/>
      <point x="539.0" y="483.7092"/>
      <point x="539.0" y="474.36" type="curve" smooth="yes"/>
    </contour>
  </outline>
</glyph>
<glyph name="uni04B2" format="2">
  <advance width="1228"/>
  <unicode hex="04B2"/>
  <outline>
    <contour>
      <point x="55.0" y="63.0" type="curve" smooth="yes"/>
      <point x="55.0" y="33.0"/>
      <point x="70.0" y="0.0"/>
      <point x="127.0" y="0.0" type="curve" smooth="yes"/>
      <point x="360.0" y="0.0" type="line" smooth="yes"/>
      <point x="401.0" y="0.0"/>
      <point x="436.0" y="12.0"/>
      <point x="436.0" y="63.0" type="curve" smooth="yes"/>
      <point x="436.0" y="115.0"/>
      <point x="399.0" y="127.0"/>
      <point x="365.0" y="127.0" type="curve" smooth="yes"/>
      <point x="350.5" y="127.0" type="line" smooth="yes"/>
      <point x="344.935" y="127.0"/>
      <point x="342.1199523701004" y="131.4564590145659"/>
      <point x="344.5105369576604" y="136.48182769056575" type="curve" smooth="yes"/>
      <point x="505.3804024792666" y="474.6545019859852" type="line" smooth="yes"/>
      <point x="516.3087891652553" y="497.62761593341304"/>
      <point x="536.3142925956379" y="497.9358785826149"/>
      <point x="547.9453033949742" y="475.3103799630105" type="curve" smooth="yes"/>
      <point x="724.3117003341157" y="132.2294784545312" type="line" smooth="yes"/>
      <point x="725.7364991570344" y="129.45785487362966"/>
      <point x="724.2364" y="127.0"/>
      <point x="721.12" y="127.0" type="curve" smooth="yes"/>
      <point x="713.0" y="127.0" type="line" smooth="yes"/>
      <point x="682.0" y="127.0"/>
      <point x="635.0" y="121.0"/>
      <point x="635.0" y="61.0" type="curve" smooth="yes"/>
      <point x="635.0" y="41.0"/>
      <point x="643.0" y="0.0"/>
      <point x="709.0" y="0.0" type="curve" smooth="yes"/>
      <point x="861.0" y="0.0" type="line" smooth="yes"/>
      <point x="886.44" y="0.0"/>
      <point x="909.0" y="-22.56"/>
      <point x="909.0" y="-48.0" type="curve" smooth="yes"/>
      <point x="909.0" y="-272.0" type="line" smooth="yes"/>
      <point x="911.0" y="-330.0"/>
      <point x="950.0" y="-340.0"/>
      <point x="969.0" y="-340.0" type="curve" smooth="yes"/>
      <point x="1020.0" y="-340.0"/>
      <point x="1026.0" y="-295.0"/>
      <point x="1026.0" y="-264.0" type="curve" smooth="yes"/>
      <point x="1026.0" y="47.0" type="line" smooth="yes"/>
      <point x="1026.0" y="47.77872848510742"/>
      <point x="1026.0010986328125" y="48.565250396728516"/>
      <point x="1026.002197265625" y="49.3587646484375" type="curve" smooth="yes"/>
      <point x="1026.0487060546875" y="82.1920166015625"/>
      <point x="1026.1121826171875" y="127.0"/>
      <point x="948.0" y="127.0" type="curve" smooth="yes"/>
      <point x="911.46" y="127.0" type="line" smooth="yes"/>
      <point x="897.4362" y="127.0"/>
      <point x="879.1719266417065" y="137.98601981476227"/>
      <point x="872.5998439185245" y="150.37451024417507" type="curve" smooth="yes"/>
      <point x="620.4946142067583" y="625.597260328027" type="line" smooth="yes"/>
      <point x="608.5724686771764" y="648.0707123541727"/>
      <point x="608.124492621728" y="688.1605617271091"/>
      <point x="619.541473663251" y="710.8948121853384" type="curve" smooth="yes"/>
      <point x="816.444677905007" y="1102.981542029184" type="line" smooth="yes"/>
      <point x="822.0389986153533" y="1114.1213247537164"/>
      <point x="838.0544" y="1124.0"/>
      <point x="850.52" y="1124.0" type="curve" smooth="yes"/>
      <point x="883.0" y="1124.0" type="line" smooth="yes"/>
      <point x="903.0" y="1124.0"/>
      <point x="956.0" y="1126.0"/>
      <point x="956.0" y="1188.0" type="curve" smooth="yes"/>
      <point x="956.0" y="1245.0"/>
      <point x="909.0" y="1251.0"/>
      <point x="885.0" y="1251.0" type="curve" smooth="yes"/>
      <point x="653.0" y="1251.0" type="line" smooth="yes"/>
      <point x="586.0" y="1251.0"/>
      <point x="575.0" y="1210.0"/>
      <point x="575.0" y="1188.0" type="curve" smooth="yes"/>
      <point x="575.0" y="1165.0"/>
      <point x="586.0" y="1126.0"/>
      <point x="647.0" y="1124.0" type="curve" smooth="yes"/>
      <point x="660.34" y="1124.0" type="line" smooth="yes"/>
      <point x="665.4598" y="1124.0"/>
      <point x="668.008379123391" y="1119.919943343058"/>
      <point x="665.7625087731725" y="1115.3190283894853" type="curve" smooth="yes"/>
      <point x="547.0558570277141" y="872.1352626609421" type="line" smooth="yes"/>
      <point x="535.8962528030256" y="849.2735734506427"/>
      <point x="515.5067139494496" y="848.9710928058863"/>
      <point x="503.673859466914" y="871.4916868210347" type="curve" smooth="yes"/>
      <point x="373.73495221530305" y="1118.7947683644234" type="line" smooth="yes"/>
      <point x="372.28542754119246" y="1121.553541131279"/>
      <point x="373.7636" y="1124.0"/>
      <point x="376.88" y="1124.0" type="curve" smooth="yes"/>
      <point x="385.0" y="1124.0" type="line" smooth="yes"/>
      <point x="442.0" y="1124.0"/>
      <point x="459.0" y="1157.0"/>
      <point x="459.0" y="1188.0" type="curve" smooth="yes"/>
      <point x="459.0" y="1221.0"/>
      <point x="442.0" y="1251.0"/>
      <point x="385.0" y="1251.0" type="curve" smooth="yes"/>
      <point x="154.0" y="1251.0" type="line" smooth="yes"/>
      <point x="90.0" y="1251.0"/>
      <point x="78.0" y="1212.0"/>
      <point x="78.0" y="1188.0" type="curve" smooth="yes"/>
      <point x="78.0" y="1165.0"/>
      <point x="88.0" y="1126.0"/>
      <point x="150.0" y="1124.0" type="curve" smooth="yes"/>
      <point x="176.0" y="1124.0" type="line" smooth="yes"/>
      <point x="203.0" y="1124.0"/>
      <point x="207.0" y="1124.0"/>
      <point x="219.0" y="1104.0" type="curve" smooth="yes"/>
      <point x="395.0" y="776.0" type="line" smooth="yes"/>
      <point x="432.0" y="702.0"/>
      <point x="449.0" y="684.0"/>
      <point x="449.0" y="666.0" type="curve" smooth="yes"/>
      <point x="449.0" y="659.0"/>
      <point x="446.0" y="653.0"/>
      <point x="442.0" y="645.0" type="curve" smooth="yes"/>
      <point x="193.54969232471973" y="146.1734132721117" type="line" smooth="yes"/>
      <point x="188.48835539261827" y="136.0115042378925"/>
      <point x="173.9326" y="127.0"/>
      <point x="162.58" y="127.0" type="curve" smooth="yes"/>
      <point x="133.0" y="127.0" type="line" smooth="yes"/>
      <point x="98.0" y="127.0"/>
      <point x="55.0" y="119.0"/>
    </contour>
  </outline>
</glyph>
<glyph name="uni04B4" format="2">
  <advance width="1228"/>
  <unicode hex="04B4"/>
  <outline>
    <contour>
      <point x="39.0" y="1001.0" type="line" smooth="yes"/>
      <point x="39.0" y="942.0"/>
      <point x="78.0" y="932.0"/>
      <point x="104.0" y="932.0" type="curve" smooth="yes"/>
      <point x="113.0" y="932.0" type="line" smooth="yes"/>
      <point x="133.0" y="932.0"/>
      <point x="180.0" y="934.0"/>
      <point x="182.0" y="999.0" type="curve" smooth="yes"/>
      <point x="182.0" y="1097.96" type="line" smooth="yes"/>
      <point x="182.0" y="1111.7612"/>
      <point x="194.2388" y="1124.0"/>
      <point x="208.04" y="1124.0" type="curve" smooth="yes"/>
      <point x="217.96" y="1124.0" type="line" smooth="yes"/>
      <point x="231.7612" y="1124.0"/>
      <point x="244.0" y="1111.7612"/>
      <point x="244.0" y="1097.96" type="curve" smooth="yes"/>
      <point x="244.0" y="138.34" type="line" smooth="yes"/>
      <point x="244.0" y="132.3298"/>
      <point x="238.6702" y="127.0"/>
      <point x="232.66" y="127.0" type="curve" smooth="yes"/>
      <point x="217.0" y="127.0" type="line" smooth="yes"/>
      <point x="156.0" y="127.0"/>
      <point x="145.0" y="88.0"/>
      <point x="145.0" y="63.0" type="curve" smooth="yes"/>
      <point x="145.0" y="12.0"/>
      <point x="178.0" y="0.0"/>
      <point x="223.0" y="0.0" type="curve" smooth="yes"/>
      <point x="896.0" y="0.0" type="line" smooth="yes"/>
      <point x="921.44" y="0.0"/>
      <point x="944.0" y="-22.56"/>
      <point x="944.0" y="-48.0" type="curve" smooth="yes"/>
      <point x="944.0" y="-272.0" type="line" smooth="yes"/>
      <point x="946.0" y="-330.0"/>
      <point x="983.0" y="-340.0"/>
      <point x="1001.0" y="-340.0" type="curve" smooth="yes"/>
      <point x="1055.0" y="-340.0"/>
      <point x="1059.0" y="-295.0"/>
      <point x="1059.0" y="-266.0" type="curve" smooth="yes"/>
      <point x="1059.0" y="49.0" type="line" smooth="yes"/>
      <point x="1059.0" y="50.114620208740234"/>
      <point x="1059.0079345703125" y="51.2849006652832"/>
      <point x="1059.0162353515625" y="52.503662109375" type="curve" smooth="yes"/>
      <point x="1059.1937255859375" y="78.62064361572266"/>
      <point x="1059.5223388671875" y="127.0"/>
      <point x="985.0" y="127.0" type="curve" smooth="yes"/>
      <point x="964.7" y="127.0" type="line" smooth="yes"/>
      <point x="956.909" y="127.0"/>
      <point x="950.0" y="133.909"/>
      <point x="950.0" y="141.7" type="curve" smooth="yes"/>
      <point x="950.0" y="1113.5" type="line" smooth="yes"/>
      <point x="950.0" y="1119.065"/>
      <point x="954.935" y="1124.0"/>
      <point x="960.5" y="1124.0" type="curve" smooth="yes"/>
      <point x="975.0" y="1124.0" type="line" smooth="yes"/>
      <point x="1034.0" y="1124.0"/>
      <point x="1049.0" y="1159.0"/>
      <point x="1049.0" y="1190.0" type="curve" smooth="yes"/>
      <point x="1049.0" y="1221.0"/>
      <point x="1030.0" y="1251.0"/>
      <point x="977.0" y="1251.0" type="curve" smooth="yes"/>
      <point x="778.0" y="1251.0" type="line" smooth="yes"/>
      <point x="721.0" y="1251.0"/>
      <point x="709.0" y="1214.0"/>
      <point x="709.0" y="1186.0" type="curve" smooth="yes"/>
      <point x="709.0" y="1155.0"/>
      <point x="727.0" y="1124.0"/>
      <point x="780.0" y="1124.0" type="curve" smooth="yes"/>
      <point x="795.66" y="1124.0" type="line" smooth="yes"/>
      <point x="801.6702" y="1124.0"/>
      <point x="807.0" y="1118.6702"/>
      <point x="807.0" y="1112.66" type="curve" smooth="yes"/>
      <point x="807.0" y="175.0" type="line" smooth="yes"/>
      <point x="807.0" y="149.56"/>
      <point x="784.44" y="127.0"/>
      <point x="759.0" y="127.0" type="curve" smooth="yes"/>
      <point x="435.0" y="127.0" type="line" smooth="yes"/>
      <point x="409.56" y="127.0"/>
      <point x="387.0" y="149.56"/>
      <point x="387.0" y="175.0" type="curve" smooth="yes"/>
      <point x="387.0" y="1097.12" type="line" smooth="yes"/>
      <point x="387.0" y="1111.3663999999999"/>
      <point x="399.6336" y="1124.0"/>
      <point x="413.88" y="1124.0" type="curve" smooth="yes"/>
      <point x="424.12" y="1124.0" type="line" smooth="yes"/>
      <point x="438.3664" y="1124.0"/>
      <point x="451.0" y="1111.3663999999999"/>
      <point x="451.0" y="1097.12" type="curve" smooth="yes"/>
      <point x="451.0" y="999.0" type="line" smooth="yes"/>
      <point x="453.0" y="934.0"/>
      <point x="494.0" y="932.0"/>
      <point x="524.0" y="932.0" type="curve" smooth="yes"/>
      <point x="526.0" y="932.0" type="line" smooth="yes"/>
      <point x="588.0" y="932.0"/>
      <point x="594.0" y="971.0"/>
      <point x="594.0" y="1014.0" type="curve" smooth="yes"/>
      <point x="594.0" y="1167.0" type="line" smooth="yes"/>
      <point x="594.0" y="1167.889404296875"/>
      <point x="594.0012817382812" y="1168.7879638671875"/>
      <point x="594.0026245117188" y="1169.6944580078125" type="curve" smooth="yes"/>
      <point x="594.0525512695312" y="1204.458740234375"/>
      <point x="594.1194458007812" y="1251.0"/>
      <point x="522.0" y="1251.0" type="curve" smooth="yes"/>
      <point x="115.0" y="1251.0" type="line" smooth="yes"/>
      <point x="43.0" y="1251.0"/>
      <point x="39.0" y="1206.0"/>
      <point x="39.0" y="1176.0" type="curve" smooth="yes"/>
    </contour>
  </outline>
</glyph>
<glyph name="uni04BD" format="2">
  <advance width="1228"/>
  <unicode hex="04BD"/>
  <outline>
    <contour>
      <point x="47.0" y="637.0" type="curve" smooth="yes"/>
      <point x="47.0" y="575.0"/>
      <point x="70.0" y="434.0"/>
      <point x="241.7434807629277" y="403.4155445216704" type="curve" smooth="yes"/>
      <point x="266.789435958576" y="398.9553059251851"/>
      <point x="290.5455448236485" y="372.4930035056187"/>
      <point x="292.28839324180535" y="347.11277341620996" type="curve" smooth="yes"/>
      <point x="305.0" y="162.0"/>
      <point x="483.0" y="-10.0"/>
      <point x="678.0" y="-10.0" type="curve" smooth="yes"/>
      <point x="868.0" y="-10.0"/>
      <point x="973.0" y="152.0"/>
      <point x="973.0" y="223.0" type="curve" smooth="yes"/>
      <point x="973.0" y="246.0"/>
      <point x="963.0" y="281.0"/>
      <point x="901.0" y="281.0" type="curve" smooth="yes"/>
      <point x="897.0" y="281.0" type="line" smooth="yes"/>
      <point x="842.0" y="281.0"/>
      <point x="834.0" y="240.0"/>
      <point x="827.0" y="225.0" type="curve"/>
      <point x="813.0" y="184.0"/>
      <point x="772.0" y="115.0"/>
      <point x="688.0" y="115.0" type="curve" smooth="yes"/>
      <point x="586.0" y="115.0"/>
      <point x="459.0" y="209.0"/>
      <point x="439.04379034497833" y="343.51963545236845" type="curve" smooth="yes"/>
      <point x="435.3105814621398" y="368.6842286626132"/>
      <point x="454.56" y="391.0"/>
      <point x="480.0" y="391.0" type="curve" smooth="yes"/>
      <point x="897.0" y="391.0" type="line" smooth="yes"/>
      <point x="928.0" y="391.0"/>
      <point x="973.0" y="393.0"/>
      <point x="973.0" y="465.0" type="curve" smooth="yes"/>
      <point x="973.0" y="784.0"/>
      <point x="803.0" y="899.0"/>
      <point x="653.0" y="899.0" type="curve" smooth="yes"/>
      <point x="496.0" y="899.0"/>
      <point x="334.0" y="774.0"/>
      <point x="294.48534094803233" y="542.4257190442826" type="curve" smooth="yes"/>
      <point x="292.6381102455752" y="531.6000879508128"/>
      <point x="281.7222" y="524.961"/>
      <point x="271.26" y="528.3" type="curve" smooth="yes"/>
      <point x="244.0" y="537.0"/>
      <point x="223.0" y="555.0"/>
      <point x="207.4990248742027" y="577.4764139324061" type="curve" smooth="yes"/>
      <point x="205.11454169087526" y="580.9339145482309"/>
      <point x="204.974" y="587.1584"/>
      <point x="207.2" y="590.72" type="curve" smooth="yes"/>
      <point x="213.0" y="600.0"/>
      <point x="223.0" y="614.0"/>
      <point x="223.0" y="643.0" type="curve" smooth="yes"/>
      <point x="223.0" y="696.0"/>
      <point x="180.0" y="731.0"/>
      <point x="135.0" y="731.0" type="curve" smooth="yes"/>
      <point x="106.0" y="731.0"/>
      <point x="47.0" y="713.0"/>
    </contour>
    <contour>
      <point x="482.0" y="516.0" type="line" smooth="yes"/>
      <point x="456.56" y="516.0"/>
      <point x="437.9570007296924" y="538.210262160209"/>
      <point x="442.41915048870726" y="563.255876936615" type="curve" smooth="yes"/>
      <point x="465.0" y="690.0"/>
      <point x="565.0" y="772.0"/>
      <point x="653.0" y="772.0" type="curve" smooth="yes"/>
      <point x="723.0" y="772.0"/>
      <point x="811.0" y="727.0"/>
      <point x="824.9200322681357" y="563.8262884124092" type="curve" smooth="yes"/>
      <point x="827.0824151660238" y="538.4783555538323"/>
      <point x="806.44" y="516.0"/>
      <point x="781.0" y="516.0" type="curve" smooth="yes"/>
    </contour>
  </outline>
</glyph>
<glyph name="uni04C3" format="2">
  <advance width="1228"/>
  <unicode hex="04C3"/>
  <outline>
    <contour>
      <point x="51.0" y="61.0" type="curve" smooth="yes"/>
      <point x="51.0" y="37.0"/>
      <point x="61.0" y="0.0"/>
      <point x="123.0" y="0.0" type="curve" smooth="yes"/>
      <point x="350.0" y="0.0" type="line" smooth="yes"/>
      <point x="350.3155212402344" y="0.0"/>
      <point x="350.66558837890625" y="-0.0013825601199641824"/>
      <point x="351.0481872558594" y="-0.002893586177378893" type="curve" smooth="yes"/>
      <point x="365.2173767089844" y="-0.05885305628180504"/>
      <point x="424.0" y="-0.2910066843032837"/>
      <point x="424.0" y="63.0" type="curve" smooth="yes"/>
      <point x="424.0" y="115.0"/>
      <point x="389.0" y="127.0"/>
      <point x="348.0" y="127.0" type="curve" smooth="yes"/>
      <point x="318.42" y="127.0" type="line" smooth="yes"/>
      <point x="307.0674" y="127.0"/>
      <point x="297.0" y="137.0674"/>
      <point x="297.0" y="148.42" type="curve" smooth="yes"/>
      <point x="297.0" y="540.0" type="line" smooth="yes"/>
      <point x="297.0" y="565.44"/>
      <point x="319.56" y="588.0"/>
      <point x="345.0" y="588.0" type="curve" smooth="yes"/>
      <point x="463.0" y="588.0" type="line" smooth="yes"/>
      <point x="774.0" y="588.0"/>
      <point x="850.0" y="336.0"/>
      <point x="850.0" y="102.0" type="curve" smooth="yes"/>
      <point x="850.0" y="-133.0"/>
      <point x="745.0" y="-340.0"/>
      <point x="586.0" y="-340.0" type="curve" smooth="yes"/>
      <point x="561.0" y="-340.0"/>
      <point x="532.0" y="-336.0"/>
      <point x="505.3592975834745" y="-329.3398243958686" type="curve" smooth="yes"/>
      <point x="502.518869864233" y="-328.62971746605825"/>
      <point x="500.3948" y="-325.4338"/>
      <point x="500.84" y="-322.54" type="curve" smooth="yes"/>
      <point x="502.0" y="-315.0"/>
      <point x="504.0" y="-305.0"/>
      <point x="504.0" y="-295.0" type="curve" smooth="yes"/>
      <point x="504.0" y="-242.0"/>
      <point x="461.0" y="-205.0"/>
      <point x="414.0" y="-205.0" type="curve" smooth="yes"/>
      <point x="373.0" y="-205.0"/>
      <point x="322.0" y="-236.0"/>
      <point x="322.0" y="-299.0" type="curve" smooth="yes"/>
      <point x="322.0" y="-365.0"/>
      <point x="377.0" y="-467.0"/>
      <point x="586.0" y="-467.0" type="curve" smooth="yes"/>
      <point x="815.0" y="-467.0"/>
      <point x="993.0" y="-223.0"/>
      <point x="993.0" y="102.0" type="curve" smooth="yes"/>
      <point x="993.0" y="467.0"/>
      <point x="840.0" y="692.0"/>
      <point x="596.8754993536262" y="709.5450670569548" type="curve" smooth="yes"/>
      <point x="571.5014846962043" y="711.3761815167687"/>
      <point x="563.0874496363967" y="730.6209353537769"/>
      <point x="578.9732970987166" y="750.4913518165465" type="curve" smooth="yes"/>
      <point x="852.0" y="1092.0" type="line" smooth="yes"/>
      <point x="874.0" y="1120.0"/>
      <point x="881.0" y="1124.0"/>
      <point x="905.0" y="1124.0" type="curve" smooth="yes"/>
      <point x="918.0" y="1124.0"/>
      <point x="930.0" y="1124.0"/>
      <point x="942.0" y="1126.0" type="curve" smooth="yes"/>
      <point x="967.0" y="1130.0"/>
      <point x="993.0" y="1151.0"/>
      <point x="993.0" y="1188.0" type="curve" smooth="yes"/>
      <point x="993.0" y="1208.0"/>
      <point x="985.0" y="1251.0"/>
      <point x="922.0" y="1251.0" type="curve" smooth="yes"/>
      <point x="715.0" y="1251.0" type="line" smooth="yes"/>
      <point x="659.0" y="1251.0"/>
      <point x="645.0" y="1212.0"/>
      <point x="645.0" y="1188.0" type="curve" smooth="yes"/>
      <point x="645.0" y="1126.0"/>
      <point x="696.0" y="1124.0"/>
      <point x="715.14" y="1124.0" type="curve" smooth="yes"/>
      <point x="722.4858" y="1124.0"/>
      <point x="724.9290255839285" y="1118.91453355692"/>
      <point x="720.3383523062307" y="1113.179858631745" type="curve" smooth="yes"/>
      <point x="416.0" y="733.0" type="line" smooth="yes"/>
      <point x="398.53857421875" y="712.781494140625"/>
      <point x="390.3677673339844" y="712.83349609375"/>
      <point x="368.2012939453125" y="712.9744873046875" type="curve" smooth="yes"/>
      <point x="366.2481689453125" y="712.9868774414062"/>
      <point x="364.1863708496094" y="713.0"/>
      <point x="362.0" y="713.0" type="curve" smooth="yes"/>
      <point x="324.3" y="713.0" type="line" smooth="yes"/>
      <point x="309.831" y="713.0"/>
      <point x="297.0" y="725.831"/>
      <point x="297.0" y="740.3" type="curve" smooth="yes"/>
      <point x="297.0" y="1100.9" type="line" smooth="yes"/>
      <point x="297.0" y="1113.143"/>
      <point x="307.857" y="1124.0"/>
      <point x="320.1" y="1124.0" type="curve" smooth="yes"/>
      <point x="352.0" y="1124.0" type="line" smooth="yes"/>
      <point x="373.0" y="1124.0"/>
      <point x="424.0" y="1128.0"/>
      <point x="424.0" y="1188.0" type="curve" smooth="yes"/>
      <point x="424.0" y="1210.0"/>
      <point x="416.0" y="1251.0"/>
      <point x="350.0" y="1251.0" type="curve" smooth="yes"/>
      <point x="123.0" y="1251.0" type="line" smooth="yes"/>
      <point x="66.0" y="1251.0"/>
      <point x="51.0" y="1219.0"/>
      <point x="51.0" y="1186.0" type="curve" smooth="yes"/>
      <point x="51.0" y="1137.0"/>
      <point x="88.0" y="1124.0"/>
      <point x="127.0" y="1124.0" type="curve" smooth="yes"/>
      <point x="157.74" y="1124.0" type="line" smooth="yes"/>
      <point x="169.5378" y="1124.0"/>
      <point x="180.0" y="1113.5378"/>
      <point x="180.0" y="1101.74" type="curve" smooth="yes"/>
      <point x="180.0" y="150.94" type="line" smooth="yes"/>
      <point x="180.0" y="138.2518"/>
      <point x="168.7482" y="127.0"/>
      <point x="156.06" y="127.0" type="curve" smooth="yes"/>
      <point x="123.0" y="127.0" type="line" smooth="yes"/>
      <point x="104.0" y="127.0"/>
      <point x="51.0" y="123.0"/>
    </contour>
  </outline>
</glyph>
